<?xml version="1.0" encoding="UTF-8" standalone="no"?>
<!-- Generated by SVGMaker - https://svgmaker.io -->
<!-- Prompt: remove the M32, I just want the accessories and arrange them so they can both fit within a square - updated by SVGMaker Editor -->
<!-- Quality: medium -->
<!-- Type: edit -->
<!-- Created: 2026-03-25T19:01:29.568Z -->
<svg xmlns="http://www.w3.org/2000/svg" xmlns:xlink="http://www.w3.org/1999/xlink" version="1.1" width="1308" height="1032" viewBox="0 0 1308 1032">
<desc>Created with SVGMaker Editor 3.0.0</desc>
<defs>
</defs>
<path transform="translate(0,0)" style="stroke-linecap: round; fill: rgb(4,4,4)" stroke-linecap="round" d="M61.133 57.232C62.264 57.162 63.396 57.104 64.528 57.057 98.352 55.931 138.773 57.001 172.989 57.007L390.275 57.028 568.694 57.017C598.5 57.016 628.95 55.684 658.695 57.18 663.625 57.428 668.528 58.518 672.11 62.137 676.34 66.416 678.32 72.691 679.02 78.536 681.05 95.376 679.28 114.095 679.16 131.209 678.98 156.708 679.63 182.148 679.74 207.635 679.76 214.685 679.22 221.61 676.03 228.029 670.65 238.87 638.322 268.272 627.52 279.116 621.459 285.2 615.085 291.995 606.95 295.22 594.778 300.047 537.267 297.622 519.998 297.65 520.074 304.309 520.022 311.7 520.201 318.292 521.032 348.913 518.032 362.988 484.25 363.167L412.858 363.356C373.011 363.418 373.611 349.882 374.083 315.768 348.989 330.853 324.109 347.746 299.543 363.697L177.199 442.9C152.9 458.592 128.44 475.458 103.514 490.107 90.831 497.505 78.114 497.761 64.229 493.495 52.079 489.763 42.221 478.078 42.106 465.179 41.934 445.991 41.976 426.794 41.977 407.604L41.972 298.8 41.979 155.957C41.984 131.894 40.89 97.532 43.29 73.138 43.966 66.269 54.664 60.04 61.133 57.232ZM140.2 89.705L140.076 304.851C140.066 342.902 138.643 391.552 140.415 428.92L154.752 420.003 311.934 317.835 361.042 286.256C367.259 282.268 388.579 267.494 394.501 267.321 459.333 265.434 525.66 269.028 590.41 266.801 603.703 256.201 635.705 224.575 647.807 211.398 649.563 195.073 648.163 164.588 648.6 147.188 648.856 137.008 649.227 98.347 647.823 89.93L630.593 89.483C467.881 91.242 303.12 89.449 140.2 89.705ZM406.834 297.299C401.874 303.238 402.118 327.605 406.794 332.102 415.499 333.851 472.497 332.93 485.563 332.887 491.505 326.08 488.994 307.58 488.908 297.878 466.783 296.211 430.003 297.257 406.834 297.299ZM95.184 89.535C89.871 89.507 76.475 88.567 73.102 91.799 71.581 101.138 72.086 121.685 72.085 131.864L72.103 201.998 72.127 455.021C75.477 458.425 80.027 463.68 85.346 463.025 91.686 459.287 104.799 451.895 109.822 447.314 110.207 414.979 109.586 382.943 109.649 350.754L110.03 89.404C105.125 89.432 100.073 89.391 95.184 89.535Z"></path>
<path transform="translate(0,0)" style="stroke-linecap: round; fill: rgb(4,4,4)" stroke-linecap="round" d="M193.765 176.159C212.186 174.613 252.718 175.878 272.329 175.884L432.399 175.906 545.116 175.851C561.795 175.845 583.713 174.783 599.816 176.907 614.169 178.8 613.784 198.749 600.447 206.826 575.961 208.027 543.064 207.038 517.904 207.035L358.211 207.029 251.288 207.102C234.019 207.112 213.378 208.021 196.444 206.474 180.238 204.994 178.721 185.557 193.765 176.159Z"></path>
<path transform="translate(0,0)" style="stroke-linecap: round; fill: rgb(4,4,4)" stroke-linecap="round" d="M190.105 248.213C212.093 247 242.344 248.296 264.725 247.876 278.973 247.608 323.585 246.941 335.413 249.809 349.322 262.057 346.013 278.961 328.226 280.86 310.727 282.729 287.574 281.317 269.5 281.201 247.732 281.051 225.962 281.086 204.195 281.304 203.888 290.375 205.514 322.795 202.893 328.763 201.051 332.903 197.547 336.073 193.244 337.491 172.021 344.473 170.514 315.389 171.883 301.762 173.888 281.805 165.01 255.755 190.105 248.213Z"></path>
<path transform="translate(0,0)" style="stroke-linecap: round; fill: rgb(4,4,4)" stroke-linecap="round" d="M965.83 1.23C1009.26-0.306 1054.42 0.759 1097.9 1.489 1135.43 2.118 1136.31 48.723 1143.91 75.035 1184.69 75.943 1226.05 74.932 1266.65 75.112 1290.13 75.217 1307.58 78.855 1308.1 106.396 1308.68 137.849 1307.31 172.134 1308.18 203.353 1309.62 254.605 1289.83 258.555 1244.67 255.77 1241.85 255.606 1236.82 257.431 1234.81 259.914 1244.19 268.707 1244.92 267.136 1245.36 281.682 1245.8 296.248 1246.34 310.846 1246 325.455 1245.28 356.254 1217.99 351.308 1195.89 351.092L1153.63 351.04C1144.97 350.914 1128.92 350.253 1121.07 351.852 1112.6 353.579 1108.69 357.799 1097.64 357.838 1082.24 357.891 1075.27 351.203 1059.69 351.113 1009.92 350.823 960.12 351.281 910.36 351.104 903.75 351.019 891.55 349.456 887.18 344.011 877.39 331.796 880.9 303.147 881.74 288.086 866.21 287.976 839.16 291.543 829.1 280.738 816.85 267.57 807.55 217.673 807.01 200.384 805.88 164.407 829.96 138.057 850.39 111.29 857.34 102.174 869.09 80.217 880.73 78.232 899.02 75.113 921.08 76.352 939.84 76.598 940.97 47.212 929.79 9.218 965.83 1.23ZM1032.25 259.036C1084.66 259.045 1137.31 259.047 1189.74 259.083 1195.74 259.087 1195.79 259.256 1199.78 255.363L1200.11 253.11C1197.63 250 1193.79 249.45 1190.02 249.241 1168.22 248.035 1147.11 255.381 1140.15 226.92 1136.15 210.569 1132.94 193.228 1129.45 176.385L1109.68 82.579C1107.33 71.578 1102.97 33.769 1089.1 33.497 1050.83 32.748 1011.95 32.575 973.65 33.182L973.52 34.34C971.52 55.198 975.34 96.759 971.2 114.517 968.56 125.835 930.53 165.675 920.49 176.557 927.77 188.574 931.98 195.517 928.62 210.656 921.85 241.159 883.87 251.939 861.33 231.312 855.81 226.254 852.88 213.82 843.78 214.242 839.24 221.386 852.02 251.601 856.76 258.96L1032.25 259.036ZM866.37 170.263C878.43 163.257 887.24 164.715 900.87 165.376L908.91 155.017C892.42 155.896 877.51 154.773 861.36 155.205 854.6 160.404 838.7 181.932 841.12 190.778 843.43 192.704 848.58 194.288 850.39 191.594 856.82 182.015 856.84 177.727 866.37 170.263ZM1112.91 289.077C1125.03 299.974 1126.42 304.294 1130.44 320.149 1156.6 319.804 1185.89 319.516 1211.98 320.309 1212.7 310.143 1212.27 299.43 1212.08 289.201L1112.91 289.077ZM1266.62 109.81C1265.69 122.684 1264.36 218.653 1267.28 223.238 1267.96 224.301 1269.31 224.68 1270.5 224.799 1272.21 224.97 1275.1 223.927 1276.72 223.466 1278.97 218.151 1278.53 123.801 1277.61 112.77 1274.82 109.787 1273.74 110.004 1269.08 109.863 1268.26 109.838 1267.44 109.82 1266.62 109.81ZM878.37 125.082C891.47 125.048 904.75 124.903 917.84 125.048 923.01 120.957 929.76 111.817 934.32 106.283 921.1 105.117 909.29 105.113 896.06 105.229 890.36 108.831 882.66 119.472 878.37 125.082ZM885.01 189.098C866.4 200.193 874.56 223.559 895.29 219.124 900.71 215.824 904.54 212.836 905.96 206.197 906.82 202.335 906 198.292 903.72 195.064 898.57 187.756 892.99 188.419 885.01 189.098ZM1077.37 289.138C1022.82 289.051 966.69 288.371 912.29 289.145 912.08 296.902 910.72 313.101 914.01 319.372 923.66 321.578 955.67 320.404 967.65 320.35 998.62 320.21 1029.59 320.347 1060.55 320.762L1062.78 309.718C1066.31 300.467 1070.37 295.911 1077.37 289.138ZM1097.46 334.657C1104.78 332.945 1109.36 325.661 1107.72 318.323 1106.09 310.986 1098.86 306.33 1091.5 307.882 1086.67 308.901 1082.76 312.437 1081.27 317.14 1079.77 321.843 1080.91 326.988 1084.26 330.613 1087.61 334.237 1092.65 335.782 1097.46 334.657ZM1229.23 105.352C1227.45 112.089 1227.84 149.343 1228.05 158.453 1228.52 179.223 1227.38 204.326 1228.36 224.785L1241.57 225.09C1243.16 205.634 1241.41 177.27 1242.05 157.06 1242.33 148.557 1242.37 113.565 1241.32 107.192 1237.48 103.792 1234.25 104.932 1229.23 105.352ZM1152.82 119.013C1157.47 147.724 1164.8 176.29 1170.12 204.897 1171.01 209.648 1171.99 214.192 1173.51 218.789 1181.52 218.965 1190.13 219.386 1198.03 218.52L1198.04 119.011C1183.09 119.022 1167.72 119.228 1152.82 119.013Z"></path>
<path transform="translate(0,0)" style="stroke-linecap: round; fill: rgb(4,4,4)" stroke-linecap="round" d="M1010.53 143.6C1040.24 138.301 1068.58 158.254 1073.6 188.016 1078.62 217.778 1058.4 245.922 1028.59 250.665 999.18 255.346 971.48 235.451 966.53 206.08 961.57 176.709 981.21 148.829 1010.53 143.6ZM1026.49 225.953C1036.97 223.583 1045.37 215.765 1048.48 205.482 1051.59 195.2 1048.93 184.039 1041.52 176.259 1034.12 168.478 1023.1 165.279 1012.68 167.881 996.81 171.842 987.08 187.837 990.87 203.749 994.65 219.661 1010.54 229.562 1026.49 225.953Z"></path>
<path transform="translate(0,0)" style="stroke-linecap: round; fill: rgb(4,4,4)" stroke-linecap="round" d="M957.89 464.422C993.29 463.342 1029.01 464.502 1064.45 464.444 1099.17 464.386 1134.41 463.025 1169.07 464.699 1173.86 464.93 1179.17 465.102 1183.63 466.992 1189.04 469.29 1193.94 473.106 1195.94 478.793 1199.57 489.094 1199.9 551.747 1194.95 561.798 1190.78 570.291 1182.58 573.471 1174.27 576.504 1163.65 595.787 1149.48 605.523 1140.04 624.45 1139.11 626.33 1139.17 640.36 1139.42 643.22 1142.02 672.62 1145.8 701.98 1148.2 731.41 1151.61 773.67 1152.8 815.96 1155.73 858.25 1156.93 875.59 1160.58 891.7 1159.96 908.86 1159.56 919.73 1152.89 926.73 1150.93 935.16 1148.07 947.45 1147.87 957.1 1143.79 969.77 1140.31 981.28 1132.46 997.64 1120.23 1001.68 1093.51 1010.5 1042.14 1008.9 1015.58 1002.7 991.46 997.07 989.45 957.19 989.35 938.15 989.02 927.96 978.11 911.62 978.25 900.7 977.76 883.47 982.08 864.58 981.83 847.53 981.15 800.2 983.19 753.68 986.5 706.48 988.26 681.45 995.53 654.4 991.27 629.27 986.93 603.725 964.33 598.872 954 575.539 939.72 570.589 932.89 568.277 932.25 551.062 931.63 534.027 931.74 516.89 931.88 499.858 932.06 477.784 932.87 465.817 957.89 464.422ZM1019.03 666.71C1028.65 666.51 1055.07 664.55 1059.66 670.9 1070.14 685.42 1055.73 693.65 1041.49 692.34 1032.67 691.53 1022.5 692.07 1014.4 691.1 1013.39 699.92 1012.02 710.09 1011.94 718.84 1025.61 718.79 1074.79 712.66 1056.53 739.88 1052.6 745.75 1018.27 743.3 1010.27 743.06 1010.03 752.88 1010.03 763.01 1008.71 772.71 1023.6 773.01 1060.18 767.56 1058.73 788.43 1057.54 805.5 1011.61 790.09 1008.69 801.82 1007.84 805.22 1008.13 819.96 1008.19 824.17 1019.42 823.99 1047.11 821.57 1054.95 828.58 1057.34 830.73 1058.04 834.61 1058.76 837.7 1056.66 841.82 1055.06 845.62 1050.26 846.78 1037.75 849.8 1021.74 847.42 1008.17 847.95 1008.04 853.88 1008.05 860.85 1007.66 866.66 1046.8 866.56 1086.78 865.93 1125.83 866.32 1126.3 848.84 1125 829.14 1124.15 811.52 1122.61 778.09 1120.22 744.71 1116.98 711.4 1114.38 685.85 1109.49 659.56 1110.11 633.98 1110.35 624.28 1113.49 616.61 1116.66 607.511 1084.83 606.038 1046.39 607.17 1013.82 607.13 1021.69 633.58 1019.21 640.35 1019.03 666.71ZM1126.68 908.41C1131.1 905.17 1134.82 901.36 1132.36 895.4 1128.24 891.21 1122.06 891.06 1116.21 891.17 1082.18 891.84 1044.91 889.99 1011.22 891.33 1006.48 894.12 1004.16 898.22 1008.08 903.43 1012.1 908.76 1021.95 908.89 1028.23 908.95 1053.71 909.19 1079.31 909 1104.8 908.98 1111.92 908.97 1119.62 909.22 1126.68 908.41ZM1084.53 977.35C1085.48 965.16 1084.95 947.5 1084.58 935.13 1072.93 934.19 1063.41 934.08 1051.74 934.01 1051.88 944.42 1049 969.72 1052.87 975.67 1059.48 980.47 1076.42 978.38 1084.53 977.35ZM1012.08 528.207C1003.24 528.067 994.66 527.916 985.81 528.133 986.03 517.652 986.11 507.17 986.06 496.688 978.46 496.514 972.23 496.874 964.62 497.336 963.81 509.901 963.62 530.056 964.51 542.655 997.08 544.189 1039.29 543.012 1072.5 543.022 1085.12 543.042 1157.12 544.309 1164.06 541.548 1167.35 533.921 1166.08 507.247 1165.88 497.231 1156.89 496.27 1151.37 496.539 1142.24 496.883L1142.12 528.212C1133.98 528.16 1124.23 527.845 1116.24 528.489 1116.17 523.928 1122.55 480.724 1097.55 498.025 1094.79 499.94 1095.45 521.513 1094.83 528.123 1087.23 527.978 1079.62 527.967 1072.02 528.089L1072.17 494.918C1067.02 494.743 1061.87 494.498 1056.73 494.182 1055.71 504.91 1056.06 517.826 1056.06 528.759 1048.13 528.033 1040.16 527.895 1032.21 528.344 1032.18 517.303 1032.02 505.954 1032.17 494.943 1024.24 494.741 1010.44 492.533 1011.29 505.024 1011.84 513.025 1012.15 520.171 1012.08 528.207ZM1138.03 578.024C1139.78 575.648 1141.75 573.701 1141.89 570.903 1138.42 568.309 1002.72 568.937 988.69 569.463L987.15 570.991C987.45 574.236 987.28 574.085 989.11 576.734 995.69 580.544 1046.67 578.831 1057.36 578.861L1109.73 578.989C1116.4 578.999 1132.29 579.687 1138.03 578.024ZM1015.88 934.01C1016.26 938.43 1018.82 984.78 1031.54 973.31 1033.37 958.98 1034.17 948.88 1034.08 934.19L1015.88 934.01ZM1115.24 968.31C1118.42 958.68 1120.11 945.47 1121.68 935.18 1115.82 934.71 1109.63 934.11 1103.79 933.78 1103.87 943.12 1102.69 966.53 1106.33 973.21 1110.82 975.59 1112.59 972.03 1115.24 968.31Z"></path>
<path transform="translate(0,0)" style="stroke-width: 0; stroke-linecap: round; fill: rgb(1,1,1)" vector-effect="non-scaling-stroke" stroke-linecap="round" d="M668.3887 455.3362C671.0831 455.1274 673.9165 454.9853 676.4875 455.8995 682.2701 457.9535 687.4274 462.8816 691.7586 466.9629 708.9599 483.1684 721.166 501.1356 731.11 522.0952 736.5144 533.4851 749.5466 561.8599 744.4973 573.2365 741.44 580.1231 665.6942 618.309 653.7815 623.3866 653.6965 623.5051 650.1528 628.3459 649.5738 628.7826 637.6688 637.7683 616.7231 649.5076 602.278 653.6526 600.896 654.4446 589.323 651.1508 589.2767 651.173 578.6147 656.4727 566.4472 662.2017 556.4105 668.3748 545.7871 674.9032 538.4912 685.0881 524.3627 684.8734 521.9925 684.8364 518.3176 685.3989 516.0632 686.2427 503.3861 692.105 488.7558 698.3669 476.457 704.6066 457.1017 714.4288 433.5002 723.9993 414.8938 734.0954L414.6467 734.7097C408.4857 749.6095 397.5875 749.2098 384.2828 756.6116 376.8109 760.7641 374.7402 760.5642 367.2544 757.9958 360.665 758.9876 336.1902 774.6794 328.6612 778.3803 312.9569 786.1004 296.6929 794.6569 281.0821 802.6804 273.9445 806.3517 266.4278 808.6315 259.4145 812.5989 262.9698 821.0665 264.9593 834.1751 252.8883 839.4156 243.5658 843.4644 240.1603 826.418 238.8216 819.8822 219.9264 823.8348 204.9795 841.2364 190.2735 819.6972 178.9723 824.8636 167.6996 830.0819 156.4547 835.3594 132.4045 846.921 120.1467 858.7713 107.4882 826.4698 94.1047 836.9656 70.8413 846.0994 55.8295 857.7572-21.7932 918.0449 45.5535 997.8437 131.1337 972.4481 150.6164 966.6673 170.3546 959.0805 189.7354 951.5825 219.9689 940.1837 249.9785 928.2372 279.7487 915.7651 350.2408 886.8463 434.0097 853.7751 501.0623 820.0673 542.8147 798.9203 583.1852 775.3604 621.9499 749.5059 647.3194 732.2597 678.2786 708.7442 698.7379 686.1317 730.724 650.7733 757.7534 614.3639 813.6885 621.7657 834.8426 624.5191 853.9123 635.422 866.5044 651.9576 879.3359 668.5968 884.2538 689.9362 881.0344 710.2172 874.7576 749.7502 821.1851 813.5241 790.8976 841.5399 781.2701 850.4443 770.5 858.305 759.7067 865.8622 771.5577 881.1543 788.8053 896.7277 767.1416 911.7978 749.8399 923.8331 732.2526 934.7952 714.4414 946.0903L614.4918 1009.62C601.1585 1019.4496 566.6016 1045.9554 554.0867 1023.3577 547.1382 1010.8339 515.5228 977.2741 517.6922 965.0167 518.5029 960.6719 520.8267 956.7193 524.2855 953.803 527.8678 950.7387 539.549 943.855 544.0963 940.9683 556.5109 933.0113 568.8791 924.9952 581.2011 916.9124L710.9518 830.8665C713.0595 829.4972 719.6991 825.4484 721.9226 824.8636 732.9552 821.9843 742.9301 842.1765 746.9602 848.5568 789.8707 822.2212 826.8519 771.6595 851.6347 729.5877 870.9514 696.8125 856.7843 653.1345 816.9156 643.3789 770.3301 631.9727 745.9565 666.2579 719.591 695.0509 710.1025 705.3172 700.089 715.132 689.5814 724.4434 619.6569 786.204 506.6982 842.1616 420.7613 879.3409 373.3683 899.8809 325.6857 919.7917 277.7229 939.0734 249.2744 950.7164 220.6946 962.0634 191.9883 973.1143 151.1877 988.7469 112.1483 1005.9117 67.3493 994.1058 19.503 981.4857-10.3908 939.4287 3.2267 892.294 15.6096 849.445 62.3279 828.3055 99.9043 808.106 97.9557 803.0505 97.118 800.2156 95.8024 794.9604L96.2981 793.5244C96.7482 792.2513 97.8167 789.2314 98.7308 788.3136 106.3015 780.7341 123.0426 772.9548 132.762 768.3583 134.0544 756.6635 146.5925 752.7553 156.5272 747.2854 157.2483 743.6585 157.9787 740.757 158.9314 737.2115 166.2489 730.4463 175.6818 727.9445 183.5984 721.9564 187.8562 719.2622 186.1369 714.8507 186.7808 710.4022 188.216 700.4986 198.8796 700.5208 207.0363 702.1122 231.5103 689.7364 256.7293 674.9698 281.5986 662.742 290.2857 658.4712 299.2978 653.4454 308.2019 649.2189 310.0417 648.3529 312.1015 644.4152 313.5228 642.7942 319.7347 635.7328 340.0651 628.3829 349.1143 625.5998 352.7306 624.4895 358.1805 628.5013 360.868 630.3443 390.9394 614.0012 424.3051 601.5143 454.361 585.1119 457.5418 572.406 455.6812 570.3505 470.5354 563.8999 485.6444 557.3389 508.2578 541.3532 523.7528 534.0047 526.3932 532.7494 526.2234 523.6392 530.7553 520.4076 538.7229 514.7164 547.0378 514.1709 555.5613 509.729 565.4203 505.3738 576.7077 494.1882 587.4778 494.1031 587.941 494.092 592.6737 494.6257 592.7818 494.5746 612.0908 485.6436 651.1179 462.7062 668.3887 455.3362ZM541.8419 968.2513C547.586 977.7108 564.849 1002.0035 572.2221 1010.1825 586.3352 1002.5513 597.0435 995.786 610.5158 987.1555 646.4624 964.5504 682.247 941.7085 717.8616 918.6296 727.6435 912.2493 745.9642 902.0644 754.1325 895.4472 750.2877 889.474 746.3039 883.5821 742.1812 877.7865 737.9504 880.5696 728.2148 885.7805 727.3887 889.9847 728.6394 892.6715 731.6196 898.0082 730.3071 900.9023 727.7747 906.4611 721.1969 909.0295 715.3911 906.0096 707.3695 901.835 700.6835 887.4237 705.2695 879.4297 709.4308 872.1834 722.3009 865.84 729.3652 860.3479 727.5277 857.7646 723.5439 851.3473 720.8031 850.311 711.1834 855.8106 701.1545 862.9385 691.8667 869.1264L642.911 901.5907 580.1742 942.8927C567.6516 951.1087 553.8628 959.5394 541.8419 968.2513ZM655.5572 600.5299C669.5159 593.3353 683.4128 586.0298 697.2402 578.6132 704.8371 574.5422 717.0046 568.3298 723.3432 563.25 718.3635 537.6605 692.9398 490.2712 669.9173 476.5631 656.4373 483.9056 642.8801 491.115 629.2457 498.1889 621.9885 501.9446 611.9364 506.7824 605.1655 510.8371 618.9466 541.2156 633.5538 574.1943 648.2073 604.1124 650.5543 603.0169 653.3723 601.7956 655.5572 600.5299ZM374.3094 645.4736C383.6844 665.873 398.6869 694.2145 409.8137 714.1327 436.0711 700.4468 472.7049 682.9489 499.8347 670.7804 495.8509 662.9493 466.9994 604.7489 464.4053 603.1575 444.9651 612.7429 425.3782 622.0617 405.66 631.1067 396.7043 635.2665 383.3015 641.8837 374.3094 645.4736ZM607.968 629.7892C611.6121 628.7159 628.0336 619.1454 631.0986 616.9101 626.6825 607.3692 586.5359 519.4091 584.5826 517.9539 577.6728 521.2833 566.1615 526.4371 559.8693 530.0662 576.2985 562.8525 591.9248 596.6958 607.968 629.7892ZM560.3711 643.9044C568.2306 639.9075 577.6419 634.8446 585.5554 631.277 576.121 610.996 566.5321 590.7817 556.7888 570.634 554.99 566.8865 546.536 548.6855 544.6599 546.3021L543.6408 546.0563C535.2795 550.5611 526.9568 555.1398 518.6882 559.7941 523.9999 569.4482 555.9319 641.4766 560.2322 643.8748 560.2708 643.897 560.3248 643.897 560.3711 643.9044ZM217.0691 718.9957C224.9007 736.1531 233.9816 753.3993 242.2742 770.4234 244.4931 774.9755 252.0082 790.6451 254.163 793.3542L255.1937 793.5392C261.6434 790.238 280.3764 783.7614 282.5049 778.5802 279.9495 770.9119 273.1662 758.1068 269.3886 750.5126L246.6648 704.9693 245.0034 704.4734C235.7666 709.8915 226.4533 714.0587 217.0691 718.9957ZM520.8962 664.215C527.2039 661.1876 534.6619 658.2491 540.0199 654.1485 534.6928 640.8475 507.81 582.0698 499.7961 572.2987 492.9943 575.8227 485.5132 579.4792 479.1515 583.5872 488.0918 600.9518 496.8855 618.383 505.5247 635.8809 508.9681 642.7498 516.3566 658.8857 520.8962 664.215ZM288.1062 682.3124C280.5717 686.6498 272.6837 690.484 264.8976 694.3995 266.9883 698.8702 277.3615 723.7254 280.9246 725.4057 281.0473 725.4575 281.1925 725.4501 281.326 725.4797 289.0658 721.4087 296.8566 717.4339 304.6975 713.548 301.2302 707.5377 291.7726 684.4293 288.1062 682.3124ZM148.8893 817.373C145.0924 809.8158 139.4201 797.4104 135.4904 790.5563L134.923 790.5563C129.1588 793.517 123.4796 796.6332 117.8908 799.89 119.5252 803.6797 128.8099 825.441 132.2632 826.159 137.805 823.0798 143.4541 820.3633 148.8893 817.373ZM288.1139 743.0664C290.1143 746.9227 300.8388 769.4242 302.3018 770.453L302.8624 770.5344C309.9312 767.063 319.7432 762.5331 326.3226 758.7434 322.9882 750.6532 317.5799 739.8096 312.9345 732.4078 311.4723 731.8526 312.0552 731.7416 311.1912 732.0599L288.1139 743.0664ZM152.748 778.9725C154.8565 783.6208 164.9542 805.5746 167.2966 807.9875L168.1443 808.0171 181.6212 801.1779C180.1257 797.7657 167.9682 771.7335 166.4465 770.6159 161.815 773.3027 157.2476 776.0858 152.748 778.9725ZM377.7118 737.33C382.4522 735.176 388.8734 732.5558 392.8757 729.5507 384.8309 712.682 376.4511 695.9687 367.7408 679.4109 364.0218 672.2015 354.4971 651.2322 348.2103 647.5979 342.2408 649.9147 339.0692 651.2396 333.942 655.3402 339.0646 664.8441 373.4354 736.2789 375.1201 737.9665 375.9616 737.7889 376.9568 737.6408 377.7118 737.33ZM315.0777 666.739L306.1158 672.2459C310.8191 681.2465 342.6808 746.6562 344.4843 748.2328 347.5316 746.1159 351.1224 743.7621 354.0192 741.5416 347.9192 726.7084 338.5411 710.0691 331.5788 695.3395 329.0179 689.9288 319.4831 670.7064 316.6033 667.0795L315.0777 666.739ZM234.2032 800.2082L212.7996 757.7441C209.5925 751.386 204.5557 742.1929 201.8952 735.8644L201.0884 735.5979C193.2722 740.1204 185.3733 744.5097 177.395 748.7657 183.2811 756.5894 205.4675 808.2022 209.9994 809.1718 210.4078 809.2606 210.8317 809.2606 211.2478 809.3051 217.0559 806.9957 229.3146 802.6138 234.2032 800.2082Z"></path>
</svg>