<?xml version="1.0" encoding="UTF-8" standalone="no"?>
<!-- Generated by SVGMaker - https://svgmaker.io -->
<!-- Prompt: Keep this style but draw a M32 Grenade Launcher -->
<!-- Quality: medium -->
<!-- Type: edit -->
<!-- Created: 2026-03-25T17:57:31.111Z -->
<svg xmlns="http://www.w3.org/2000/svg" xmlns:xlink="http://www.w3.org/1999/xlink" version="1.1" width="1618" height="609" viewBox="214 377 1618 609">
<desc>Created with SVGMaker Editor 3.0.0</desc>
<defs>
</defs>
<path transform="translate(0,0)" style="fill: rgb(0,0,0)" stroke-linecap="round" d="M701.827 377.4863C712.19 377.4873 728.276 379.0777 738.927 379.7969L808.023 384.2499C865.99 387.7938 924.048 391.3426 982.047 394.3804 986.05 394.5894 988.022 394.6834 991.556 396.4199 1011.74 406.3412 1038.12 392.6139 1058.23 410.9233 1074 425.2898 1068.86 453.0364 1069.8 474.1125 1077.01 475.0597 1094.81 473.0642 1100.09 476.196 1107.04 480.327 1100.48 557.0614 1104.61 569.8995 1105.29 572.004 1105.48 572.187 1107.45 573.0913 1112.96 567.2508 1106.93 500.7549 1110.2 489.3742 1110.01 488.629 1112.11 487.0806 1112.68 486.9346 1133.24 481.6803 1124.26 499.2345 1127.8 510.8443 1131.84 523.8354 1153.07 522.227 1161.66 514.9313 1169.46 508.2997 1176.96 491.7347 1189.62 498.2243 1192.27 502.0092 1194.46 505.22 1199.64 504.3228 1207.53 502.9564 1204.78 496.1278 1215.28 496.6169 1224.38 497.041 1225.22 504.5458 1233.32 503.8286 1240.95 501.6671 1240.58 496.932 1249.49 496.3588 1257.87 495.8217 1261.13 509.334 1269.9 502.5793 1278.37 495.6347 1283.51 493.2541 1291.66 501.9142 1299.42 510.1712 1307.39 495.8717 1315.05 496.4719 1321.51 496.979 1319.85 497.4131 1324.4 501.4691 1333.76 509.8181 1336.98 497.009 1345.07 496.6449 1355.99 495.3406 1354.67 504.6368 1364.08 503.8136 1371.53 502.6513 1372.66 495.9567 1381.16 496.4909 1387.93 496.915 1387.22 499.7697 1392.27 503.6396 1396.06 504.2317 1396.91 504.5358 1400.39 503.0704 1414.3 488.0518 1420.16 503.7566 1431.07 504.2057 1434.76 504.3578 1442.95 487.8928 1457.27 502.7184 1463.37 509.0379 1473.46 492.4759 1483.46 497.9192 1492.88 503.0434 1499.68 513.1279 1510.55 515.7355 1520.87 517.955 1535.9 513.2459 1545.96 517.4399 1548.15 518.6552 1546.26 537.0396 1546.44 542.0668 1549.26 544.8525 1551.71 548.9955 1551.6 553.0875 1550.68 586.3784 1553.64 620.4216 1551.26 653.5005 1550.88 658.7648 1534.94 655.206 1531.92 657.2004 1521.64 665.7975 1539.13 704.1967 1520.64 704.8979 1506.22 705.445 1489.95 705.466 1475.02 705.463L1392.86 705.414 1145.1 705.211C1133.23 705.1159 1065.27 702.2152 1058.19 705.447 1040.58 737.6817 1126.89 709.8391 1131.16 726.289 1133.76 736.3274 1121.16 741.2176 1115.39 750.5018 1078.51 755.1889 1087.63 741.1076 1085.13 778.3995 1083.96 795.8457 1088.39 861.3834 1083.38 871.8749 1077.9 876.471 1068.44 876.268 1061.64 876.314 1004.53 876.7001 1009.54 881.4963 1009.44 828.0904L1009.2 754.6838C1008.4 691.0916 1008.03 627.4943 1008.09 563.897 1008.09 554.8559 1006.08 523.0022 1010.09 517.6159 1016.05 512.9788 1043.48 515.0053 1052.94 515.1503 1053.85 530.172 1053.06 547.6762 1053.3 562.9348 1053.82 596.3238 1053.14 630.8041 1054.62 664.0821 1071.1 665.8385 1087.98 662.6377 1104.1 666.1726 1116.15 668.8152 1112.66 687.4557 1117.59 691.8147 1121.15 692.5399 1119.94 692.833 1122.63 691.3186 1127.52 682.3635 1121.55 671.0047 1116.54 663.4669 1106.29 648.0402 1079.77 660.5672 1072.3 651.8111 1072.43 648.9294 1072.77 647.6411 1071.57 645.1365L1067.19 643.8322C1065.4 641.5507 1065.23 639.7542 1065.16 636.8005 1064.1 592.2068 1064.77 547.242 1063.8 502.6834 1045.06 501.9362 1012.91 500.8519 995.321 501.6761 994.76 508.6708 996.218 519.7995 993.204 525.5839 985.659 527.7194 779.332 527.1802 776.446 525.8359 775.263 524.1195 773.754 521.6949 771.479 521.5929 752.462 521.2448 727.889 519.2863 709.325 522.167 684.34 530.0679 689.63 549.9537 687.728 569.6054 686.193 585.4672 637.261 563.9611 634.504 596.5199 633.058 613.586 637.772 624.4856 655.98 627.8144 664.728 629.4138 692.165 632.3815 693.786 621.7619 693.14 620.4436 691.671 617.2138 689.792 616.7037 680.849 614.2731 643.333 620.7707 642.125 606.0862 640.676 588.4739 656.4 585.2092 670.451 586.4004 678.326 587.0686 693.413 586.9916 701.788 585.8493 702.353 575.9059 697.85 536.5385 709.37 535.0321 717.379 533.9849 753.187 532.6796 759.977 535.8183 763.272 547.3511 760.271 625.0017 761.259 642.2779 761.64 648.9324 759.986 661.6905 762.167 668.5322 763.377 672.3271 764.961 674.4206 768.412 676.165 786.299 675.9989 768.943 638.557 780.069 627.9544 804.543 627.9484 985.951 626.219 993.316 629.0857 996.627 637.7088 996.386 693.8192 991.798 703.0354 990.069 706.5083 933.339 705.1229 924.565 705.1129L789.113 704.9039C784.973 704.9129 780.52 704.4828 777.731 707.2905 776.363 711.3664 777.105 716.4857 777.406 720.9047 787.609 722.4951 822.179 721.7669 834.112 721.7689L947.843 721.7709C958.953 721.7649 982.811 720.7507 992.612 723.6074 996.302 724.6836 995.851 799.0895 993.447 804.7698 987.537 809.516 952.338 807.7616 942.461 807.7526L834.537 807.6375C821.361 807.6265 791.919 806.8073 779.673 808.1727 775.68 810.8723 773.986 814.2421 777.101 818.6512 786.407 821.1688 812.02 820.3476 823.414 820.3486L936.916 820.2806C948.609 820.2746 982.442 819.5634 992.482 821.2588 996.344 824.5926 995.595 844.3123 993.153 848.1392 987.472 851.272 890.004 849.8106 876.814 849.8186L811.556 849.8987C800.542 849.9167 773.917 850.7539 764.647 848.1823 755.985 840.2544 767.714 787.2796 761.276 774.6936 756.63 770.4276 701.849 772.251 691.708 772.3061 684.299 784.44 674.643 805.469 668.033 818.8932 673.684 823.1192 680.291 829.8529 673.855 837.0176 669.129 842.2788 662.104 841.5167 655.599 841.4987 646.634 857.1294 634.506 884.643 626.359 901.6501 630.123 904.6238 633.612 906.7243 634.868 911.6735 637.009 920.1085 634.063 926.258 625.218 928.5035 621.585 929.4147 617.812 929.6308 614.099 929.1407 602.489 927.6393 511.941 906.1262 503.414 900.9639 498.416 891.9958 529.848 849.9857 536.345 840.2093L605.116 737.3667C612.687 726.113 625.349 709.1259 630.321 696.8399 631.329 694.3513 631.489 680.1229 631.598 676.7831 632.684 643.4771 610.566 641.2116 598.526 615.5574 596.344 610.9083 595.14 600.0937 594.233 594.4484 588.433 593.9373 574.248 592.998 568.861 593.4571 546.598 595.3506 575.933 636.3904 541.436 636.3974 529.569 636.4004 516.859 636.3874 505.112 636.3374 505.811 669.8505 494.122 658.2847 466.943 660.9603 466.725 665.2264 466.803 669.9665 463.933 673.4773 459.233 679.2267 446.913 682.9756 441.426 676.7601 439.285 674.3345 439.905 664.2731 439.932 660.6133 430.208 667.5519 395.438 695.0795 386.063 693.2641 382.751 689.4532 383.966 675.5688 384.063 669.9085 340.201 703.2015 292.879 733.9398 248.976 767.3839 240.508 773.8334 229.087 773.0912 220.875 766.6947 215.494 762.5037 215.122 756.4072 214.797 750.0807 214.552 734.557 214.697 718.9783 214.738 703.4385L214.871 617.871 215.039 535.7433C215.043 526.9122 213.916 517.901 214.275 509.1179 214.408 505.8851 214.974 502.1312 217.408 499.7797 221.151 496.1618 227.928 496.3958 232.761 496.5409 237.026 496.6699 251.391 495.9867 254.365 498.7274 263.757 507.3865 250.601 605.396 260.453 614.8653 262.121 616.4687 262.945 616.1576 265.05 616.1606 278.907 608.2517 264.733 511.3064 272.516 499.4076 276.122 497.21 302.102 498.0622 308.229 498.0622L370.696 498.0662C446.246 498.0713 524.803 499.2145 600.136 497.8622 600.767 495.9117 602.897 489.5462 604.245 488.9211 618.019 482.5355 660.708 496.1568 673.817 488.9801 677.627 484.7391 676.121 473.1473 675.864 467.1778 668.844 466.4547 646.088 467.765 644.085 464.5912 629.697 441.7827 652.622 442.0198 661.142 441.5087 662.032 424.4566 657.963 404.5918 670.311 390.5074 678.695 380.9441 689.738 378.3445 701.827 377.4863ZM744.225 477.9924C751.655 478.2915 771.728 477.3773 776.573 480.0589 777.797 482.3205 778.389 483.4807 779.324 485.8693 786.022 487.9368 951.813 486.9646 971.707 485.6143 972.631 485.5512 973.6 482.6676 973.686 481.8153 974.09 477.8174 974.343 473.3183 974.655 469.2753 987.186 469.1153 999.719 469.1143 1012.25 469.2723 1018.51 469.2783 1042.73 469.8695 1047.1 468.2621 1054.02 460.2172 1050.16 435.6063 1041.29 428.8586 1032.06 421.836 1017.98 427.5583 1007.67 427.5433 982.131 427.5053 956.366 426.4311 930.809 425.5168L831.405 422.216C814.884 421.5119 785.696 419.1713 770.446 420.3306 738.014 424.7767 742.479 452.0102 744.225 477.9924ZM1493.41 543.7532C1496.94 541.7167 1495.74 542.879 1497.82 539.0411 1497.73 536.1134 1498.09 535.8783 1495.98 533.3077 1494.66 531.6913 1491.39 530.9761 1489.36 530.9331 1471.35 530.544 1453.05 530.6971 1435.05 530.7011L1332.33 530.7421 1232.24 530.7041C1214.47 530.6951 1193.25 529.7799 1175.77 531.1872 1172.5 533.6198 1171.84 533.9779 1170.21 537.6607 1170.2 541.0226 1169.69 539.5612 1171.84 542.1808 1177.96 545.0605 1211.34 543.7992 1220.31 543.7972L1303.54 543.8102C1366.01 543.8252 1431.13 544.8095 1493.41 543.7532ZM697.959 395.7937C691.168 398.7384 688.004 406.5943 690.855 413.4249 693.707 420.2566 701.517 423.5284 708.384 420.7687 712.91 418.9503 716.108 414.8353 716.752 409.9991 717.397 405.163 715.39 400.3548 711.498 397.4131 707.607 394.4714 702.434 393.8532 697.959 395.7937ZM566.522 570.5876C568.06 567.68 568.93 563.2329 568.076 559.9691 567.744 558.6998 567.514 558.0076 566.341 557.3555 561.834 554.8519 323.441 555.513 298.088 556.2512 296.871 560.8993 295.962 564.7062 298.329 569.1133 301.637 571.3648 301.546 570.9987 306.414 571.0628 324.938 571.3058 343.624 571.2098 362.149 571.2118L469.812 571.1958 532.943 571.1618C541.567 571.1548 558.776 571.5999 566.522 570.5876ZM710.649 723.1373C713.811 746.8239 742.238 757.5035 758.855 741.7757 764.06 736.8495 765.364 701.6451 759.01 697.3891 754.324 694.2503 736.833 696.2918 730.18 696.3968 728.177 704.6798 728.284 716.8317 732.954 724.3876 736.075 729.4368 747.809 731.2782 750.529 735.2101 748.934 737.7298 748.028 739.2571 744.417 739.8043 739.271 740.5844 731.647 739.7182 727.46 736.4705 717.495 728.7396 720.084 714.9393 716.355 704.7188 715.491 704.4568 714.628 704.1957 713.764 703.9336 708.185 705.8981 710.528 717.1728 710.649 723.1373ZM276.759 634.3419C274.118 644.6774 275.133 672.7322 274.972 684.8001 280.978 684.41 286.265 685.0321 292.227 685.5592 304.659 677.6243 316.853 668.5171 329.025 660.0891 335.723 655.569 354.971 643.6442 358.372 637.7258L358.018 635.8143C353.896 633.2507 285.58 633.4367 276.759 634.3419ZM1128.7 638.2909L1127.27 641.2146C1128 643.014 1128.02 643.6912 1129.94 644.4774 1134.36 646.2918 1488.21 646.4579 1519.22 644.9845 1521.17 641.7697 1521.11 642.942 1520.69 639.8673 1516.97 636.6445 1466.31 638.0438 1458.8 638.0328L1329.58 637.9688 1199.84 637.9788C1177.78 637.9838 1150.42 637.2666 1128.7 638.2909Z"></path>
<path transform="translate(0,0)" style="fill: rgb(0,0,0)" stroke-linecap="round" d="M1177.94 721.3677L1269.42 721.3107C1277.99 721.3067 1317.04 719.9863 1321.2 723.5122 1323.43 727.4041 1322.91 730.2528 1322.96 734.5889 1323.2 754.3676 1284.54 734.0347 1285.64 754.5506 1286.53 771.0616 1288.31 786.2653 1288.5 802.9122 1289.03 850.2296 1288.93 897.4519 1289.45 944.7573 1289.53 951.5499 1290.37 952.2061 1285.6 956.9712L1286.99 958.5906C1292.63 969.1261 1290.82 983.8637 1276.78 985.451 1267.38 986.5773 1257.58 985.7491 1248.1 985.8651 1236.83 985.8341 1213.01 990.1192 1211.98 973.1981 1211.51 965.5623 1220.28 959.3968 1212.38 954.1875 1211.78 953.7914 1211.88 943.3639 1211.88 941.9426L1212.58 796.7538C1212.68 781.8732 1216.15 769.3632 1213.98 754.6057 1210.46 730.7089 1173.43 757.9935 1175.02 732.1333 1175.36 726.5229 1174.03 726.1958 1177.94 721.3677Z"></path>
<path transform="translate(0,0)" style="fill: rgb(0,0,0)" stroke-linecap="round" d="M779.094 544.368C804.002 543.6929 984.971 542.7526 992.852 545.9254 996.019 552.457 996.332 602.359 992.296 608.1123 937.845 609.1616 882.979 607.7322 828.489 608.3084 811.205 608.4914 793.479 608.5104 776.233 607.9733 775.806 595.1182 772.941 553.1872 779.094 544.368Z"></path>
<path transform="translate(0,0)" style="fill: rgb(0,0,0)" stroke-linecap="round" d="M1569.03 555.2897C1594.15 555.0827 1619.27 555.0026 1644.4 555.0497 1654.31 555.0427 1690.2 553.6543 1695.94 557.7973 1700.25 568.0858 1696.38 593.4559 1697.21 605.3387 1697.66 611.7243 1699.47 626.0507 1693.76 629.5075 1674 630.7438 1646.2 629.7196 1625.95 629.8776 1609.94 630.0026 1580.51 630.5998 1565.73 629.1955 1563.96 613.2666 1565.87 586.4732 1565.14 569.6832 1564.9 564.2899 1565.08 559.0476 1569.03 555.2897Z"></path>
<path transform="translate(0,0)" style="fill: rgb(0,0,0)" stroke-linecap="round" d="M1791.22 554.6406C1800.94 554.5456 1818.69 553.0062 1826.56 557.6563 1833.39 565.7803 1833.1 631.293 1825.96 634.9449 1815.5 640.2911 1764.85 637.9546 1752.02 637.9306 1743.91 637.9406 1711.88 641.1763 1712.01 629.3295 1712.18 614.627 1708.76 567.8978 1715.72 556.9281 1723.26 553.2182 1778.57 554.6286 1791.22 554.6406ZM1803.31 604.9186C1804.89 601.8999 1806.48 596.1765 1805.54 592.8618 1805.03 591.0793 1803.82 589.581 1802.18 588.7078 1796.32 585.542 1780.85 586.9653 1773.81 587.2214 1767.83 596.7577 1770.86 605.8289 1783.12 605.4578 1789.82 605.2547 1796.58 605.1787 1803.31 604.9186Z"></path>
</svg>