<!-- Generated by SVGMaker - https://svgmaker.io -->
<!-- Prompt: I want to simplify but keep most of the shape to use as an 128x64 pixel icon -->
<!-- Quality: medium -->
<!-- Type: edit -->
<!-- Created: 2026-03-25T16:46:09.043Z -->
<svg version="1.1" xmlns="http://www.w3.org/2000/svg" style="display: block;" viewBox="0 0 2048 1365" width="1536" height="1024" preserveAspectRatio="none"><path transform="translate(0,0)" fill="rgb(0,0,0)" d="M 716.074 373.297 C 737.5 371.931 762.79 375.919 784.221 378.749 L 859.04 388.511 C 925.302 396.49 993.619 403.303 1059.43 415.461 C 1088.76 420.879 1083.77 457.014 1083.2 479.373 C 1082.97 492.86 1082.81 506.349 1082.72 519.838 C 1092.77 520.2 1101.96 519.729 1111.77 521.87 C 1112.98 533.072 1113.3 654.163 1110.7 658.178 C 1106.94 663.998 1086.77 663.951 1079.99 664.526 C 1079.32 679.195 1082.54 724.655 1076.45 726.957 C 1034.6 742.767 952.966 757.662 906.124 768.33 C 903.613 768.902 899.425 765.2 898.531 764.183 C 894.473 754.664 896.254 678.511 896.558 662.868 C 896.916 660.743 898.848 657.863 900.994 657.421 C 921.413 653.213 1036.47 661.683 1048.66 653.751 C 1052.91 648.27 1052.05 639.248 1052.16 632.142 L 646.67 632.107 C 646.784 638.916 646.234 652.724 655.639 653.362 C 674.023 654.61 692.784 654.086 711.25 654.074 L 830.471 654.042 C 836.294 654.042 865.049 652.755 865.67 656.268 C 867.396 668.559 868.225 703.132 865.359 713.9 C 859.772 734.898 835.642 708.038 827.355 742.41 C 830.747 754.615 835.197 754.657 838.508 763.003 L 836.573 764.272 C 819.021 766.538 808.219 759.615 803.596 742.81 C 805.151 734.641 806.148 731.698 810.806 724.858 C 799.464 725.187 789.75 725.784 783.142 736.524 C 779.887 741.827 778.91 748.219 780.432 754.252 C 790.539 793.887 856.481 773.134 882.462 782.148 C 884.868 782.983 886.121 795.555 886.588 799.205 C 924.908 792.317 966.312 780.797 1004.82 772.67 C 1012.45 770.711 1055.17 758.828 1060.58 764.087 C 1067.91 771.214 1070.85 799.22 1073.35 810.91 C 1085.9 869.834 1110.18 925.597 1124.38 983.978 C 1126.17 991.357 1122.89 1000.35 1115.24 1002.68 C 1066.77 1017.42 1017.82 1032.43 968.594 1044.28 C 955.46 1047.44 949.234 1040.96 944.503 1029.59 C 916.677 962.76 885.513 884.631 878.513 811.924 C 843.536 812.214 807.701 808.719 772.727 807.562 C 763.549 807.258 754.162 806.064 745.052 807.579 C 737.446 812.229 722.482 843.247 719.683 852.353 C 721.69 854.038 723.661 855.765 725.596 857.533 C 731.074 862.622 735.631 872.654 729.064 878.796 C 721.804 885.587 711.987 884.15 702.861 883.76 C 695.783 899.294 680.513 924.37 676.414 939.192 C 680.226 942.833 685.86 947.334 687.362 952.54 C 689.049 958.386 686.359 965.681 683.616 970.845 C 681.597 974.646 678.665 977.953 674.388 979.151 C 667.39 981.112 561.951 952.249 548.066 947.378 C 545.359 946.428 542.829 945.01 540.388 943.52 C 543.826 932.598 558.204 909.249 564.478 898.351 L 619.276 803.245 C 629.474 785.642 640.056 768.175 649.449 750.144 C 655.833 737.889 655.689 727.811 650.383 715.177 C 643.77 699.434 629.384 691.468 617.999 679.877 C 605.169 666.815 606.364 646.483 606.748 629.569 C 598.026 629.825 571.565 631.108 569.19 628.115 C 562.286 619.419 564.743 530.716 568.355 523.904 C 576.777 519.877 604.026 523.751 614.605 522.492 C 623.666 521.414 618.711 513.222 624.47 505.67 C 631.879 500.327 703.76 501.285 717.268 501.062 C 717.251 498.561 717.135 493.062 716.558 491.009 C 707.834 469.146 669.064 486.967 652.886 478.703 C 644.37 474.352 651.3 453.528 655.239 447.729 C 659.88 440.897 668.736 440.607 676.24 439.501 C 670.639 407.887 682.268 379.272 716.074 373.297 z M 1003.5 497.745 C 1014.69 497.734 1027.57 498.033 1038.62 497.583 C 1038.85 485.57 1041.42 455.244 1035.08 446.381 C 1031.79 444.006 1025.78 442.198 1021.73 441.829 C 965.519 436.702 908.812 435.118 852.38 434.165 C 833.446 433.845 814.303 432.695 795.411 433.36 C 783.489 435.67 773.967 441.364 767.053 451.534 C 760.003 462.089 757.431 475.011 759.902 487.462 C 760.579 490.775 761.892 494.649 762.982 497.886 C 842.657 497.036 923.753 497.63 1003.5 497.745 z M 1035.05 607.9 C 1053.85 603.205 1053.51 591.751 1053.96 574.564 C 1054.49 554.362 1055.36 532.27 1028.6 533.397 C 981.091 534.05 931.883 531.6 884.482 533.366 C 879.324 534.453 872.214 535.711 869.364 540.961 C 864.931 549.13 864.509 558.864 864.457 568.571 C 864.691 579.343 863.846 597.081 873.344 604.193 C 875.512 605.816 885.541 607.77 888.268 607.831 C 925.191 608.649 962.215 607.993 999.156 608.156 C 1011.04 608.209 1023.2 608.317 1035.05 607.9 z M 924.65 830.703 C 938.974 893.648 953.41 936.868 978.341 996.814 C 979.572 997.499 979.405 997.721 980.393 997.605 L 1007.98 989.57 C 990.717 942.4 973.347 894.934 961.11 846.18 C 960.023 841.852 956.84 825.799 954.63 823.836 L 952.185 824.244 C 942.711 826.274 934.003 828.192 924.65 830.703 z M 731.172 679.23 C 709.205 689.298 718.353 713.5 743.145 710.725 C 765.559 700.162 754.681 676.63 731.172 679.23 z M 1076.09 968.213 C 1061.96 925.509 1047.34 882.934 1035.39 839.549 C 1033.74 833.554 1028.2 808.46 1026.18 805.23 L 1024.82 805.168 C 1015.9 807.772 1006.89 810.074 997.809 812.072 C 1004.85 840.831 1012.99 873.754 1022.36 901.852 C 1025.89 912.43 1044.98 973.199 1047.66 975.857 L 1048.85 975.937 C 1057.85 973.185 1066.9 970.237 1076.09 968.213 z M 835.248 534.844 C 793.505 534.642 751.763 534.138 710.027 533.333 C 691.249 533.1 671.486 533.546 652.883 533.051 C 660.174 555.074 671.4 564.222 695.479 564.83 C 711.778 565.242 830.496 567.132 832.697 564.693 C 834.494 554.51 835.129 545.197 835.248 534.844 z M 735.112 434.165 C 757.562 424.978 748.364 400.63 722.848 403.144 C 699.883 412.679 711.39 436.869 735.112 434.165 z"></path><path transform="translate(0,0)" fill="rgb(0,0,0)" d="M 892.055 560.088 C 906.714 559.378 925.139 559.872 940.015 559.866 L 1030.64 560.005 C 1031.26 569.837 1031.01 583.287 1030.51 593.12 C 1022.32 594.332 981.904 594.178 971.901 593.885 C 948.106 593.187 915.011 595.152 892.05 593.328 C 891.891 582.248 891.892 571.167 892.055 560.088 z"></path><path transform="translate(0,0)" fill="rgb(0,0,0)" d="M 1579.85 395.304 C 1587.84 394.975 1601.32 394.506 1607.27 400.116 C 1610.49 407.373 1609.02 546.736 1609.02 564.705 C 1642.7 565.499 1676.86 564.41 1710.58 564.897 C 1723.06 565.077 1737.73 565.362 1750.05 564.205 C 1755.89 556.668 1756.99 554.251 1767.1 554.155 C 1796.61 553.875 1826.15 554.217 1855.67 554.364 C 1870.71 554.438 1885.76 553.645 1900.73 554.239 C 1905.32 554.421 1911.86 557.349 1914.59 561.455 C 1922.01 575.156 1918.77 599.065 1917.93 614.139 C 1917.13 628.398 1908.08 634.91 1894.67 634.805 C 1849.02 634.445 1802.27 637.066 1756.87 633.37 C 1752.48 633.012 1748.99 626.193 1747.18 622.82 L 1627.96 623.11 C 1628.03 632.071 1629.47 647.387 1624.76 654.294 C 1616.32 660.178 1582.76 660.199 1574.2 653.438 C 1570.55 647.791 1571.9 631.478 1572.05 623.918 L 1521.16 623.995 C 1519.86 666.543 1524.05 664.539 1479.41 663.985 L 1462.83 664.126 C 1463.03 670.483 1464.45 677.26 1458.78 681.322 C 1448.83 684.433 1387.19 682.824 1374.04 682.826 L 1232.73 682.795 L 1171.22 682.755 C 1162.97 682.748 1140.68 685.083 1135.74 678.129 C 1134.74 676.712 1134.11 671.755 1134.09 669.702 C 1133.9 650.966 1134.62 632.205 1134.69 613.469 C 1135.59 595.099 1132.74 520.615 1136.51 508.358 C 1144.28 505.107 1176.19 506.453 1186.59 506.486 L 1264.4 506.503 L 1389.78 506.5 C 1409.42 506.513 1429.06 506.524 1448.69 506.505 C 1458.53 506.495 1458.22 513.631 1458.91 521.175 C 1468.41 521.346 1477.92 521.346 1487.42 521.176 C 1488.25 515.751 1489.74 504.581 1492.73 500.351 C 1504.07 483.479 1519.78 469.957 1531.82 453.519 C 1536.41 447.264 1541.49 441.349 1545.82 434.858 C 1552.58 424.711 1558.44 414.05 1565.2 403.896 C 1569.93 396.782 1571.84 396.711 1579.85 395.304 z M 1177.4 608.455 L 1370.36 608.515 C 1402.54 608.5 1437.99 607.774 1469.97 608.555 L 1470.07 587.86 C 1461.2 587.843 1451.91 587.976 1443.08 587.799 C 1441.62 571.092 1442.28 553.214 1442.72 536.403 L 1417.59 536.716 L 1417.82 587.819 L 1385.75 587.886 L 1382.66 587.316 C 1379.96 582.121 1381.31 544.932 1381.43 536.609 L 1358.75 536.436 C 1358.78 551.374 1359.37 573.228 1358.26 587.582 C 1345.97 588.161 1333.34 587.88 1321.01 587.769 C 1320.67 570.682 1320.61 553.592 1320.81 536.504 L 1297.37 536.439 C 1297.47 552.887 1297.99 571.399 1297.04 587.656 C 1284.73 587.941 1272.42 587.983 1260.1 587.784 L 1260 536.517 L 1237.38 536.511 C 1237.36 552.477 1237.85 572.11 1237.15 587.774 C 1225.14 587.807 1212.07 588.105 1200.14 587.79 L 1200.01 536.15 L 1177.28 536.275 C 1177.29 559.845 1176.84 585.021 1177.4 608.455 z M 1901.22 602.463 C 1902.2 594.02 1902.1 588.617 1900.97 580.144 L 1822.19 580.074 L 1822.18 602.518 C 1844.52 602.584 1879.8 603.814 1901.22 602.463 z M 1523.9 554.121 C 1530.15 554.182 1536.51 554.31 1542.75 554.286 L 1571.99 554.429 L 1572.01 486.614 C 1565.99 486.775 1558.1 486.752 1552.24 487.273 C 1542.37 490.551 1536.58 494.019 1531.59 503.772 C 1525.81 515.079 1523.77 541.498 1523.9 554.121 z"></path><path transform="translate(0,0)" fill="rgb(0,0,0)" d="M 161.184 520.497 C 164.275 520.574 169.645 520.618 172.559 521.685 C 174.42 522.102 176.607 526.069 176.708 527.833 C 181.788 616.306 167.814 606.263 260.414 606.229 L 441.686 606.149 C 453.432 606.145 534.209 604.836 540.149 607.937 C 543.83 615.544 541.828 632.394 542.269 641.051 C 544.328 681.476 509.103 677.372 480.15 680.405 C 480.232 703.287 478.498 703.32 455.396 703.219 C 438.84 703.205 421.254 701.922 404.82 703.731 C 390.859 705.267 374.3 717.476 362.108 724.899 C 344.767 735.521 327.333 745.99 309.808 756.305 C 292.191 767.237 281.02 780.425 262.716 762.166 C 235.985 735.501 283.074 727.035 298.542 713.807 C 310.147 703.883 313.148 703.706 316.08 687.914 C 309.852 687.855 292.161 688.786 286.78 690.674 C 271.411 696.065 211.398 719.796 202.076 727.523 C 195.164 733.253 200.432 797.634 192.102 807.414 C 189.704 811.225 184.337 813.474 179.947 814.141 C 153.643 818.139 145.971 797.885 142.319 776.923 C 132.372 719.839 132.531 662.295 131.588 604.607 C 131.375 591.525 128.653 531.609 133.69 524.231 C 139.917 519.462 153.023 520.578 161.184 520.497 z"></path><path transform="translate(0,0)" fill="rgb(0,0,0)" d="M 200.734 522.336 C 218.381 521.224 246.672 522.144 265.241 522.148 L 392.395 522.184 L 486.447 522.227 C 501.594 522.235 526.743 521.514 540.856 523.253 C 543.597 525.355 545.067 535.22 544.191 538.008 C 540.661 549.242 551.324 581.88 537.252 584.227 C 521.145 585.102 501.011 584.539 484.545 584.532 L 390.941 584.474 L 274.527 584.417 C 263.566 584.411 204.798 585.344 199.521 582.465 C 194.552 573.861 196.162 541.547 196.36 530.226 C 196.431 526.174 198.066 524.505 200.734 522.336 z"></path></svg>