<?xml version="1.0" encoding="UTF-8" standalone="no"?>
<!-- Generated by SVGMaker - https://svgmaker.io -->
<!-- Prompt: Keep this style and draw a bolt action rifle with scope and a detachable box magazine - updated by SVGMaker Editor -->
<!-- Quality: medium -->
<!-- Type: edit -->
<!-- Created: 2026-03-25T17:00:07.772Z -->
<svg xmlns="http://www.w3.org/2000/svg" xmlns:xlink="http://www.w3.org/1999/xlink" version="1.1" width="1857" height="488" viewBox="95 56 1857 488">
<desc>Created with SVGMaker Editor 3.0.0</desc>
<defs>
</defs>
<path transform="translate(0,0)" style="stroke-linecap: round; fill: rgb(16,16,16)" stroke-linecap="round" d="M1039.54 267.5154C1065.64 266.5752 1097.86 267.7595 1124.49 267.8665L1306.59 268.9938 1480.49 269.6719C1501.77 269.917 1525.13 269.5549 1546.22 270.6442 1546.84 299.24 1555.03 329.7594 1516.53 324.2961 1507.44 323.0057 1485.15 324.248 1475.52 324.6061 1476.48 332.241 1478.35 338.8095 1472.13 344.883 1467.05 349.8362 1460.54 349.7852 1455.59 344.746 1450.21 339.2616 1451.72 332.248 1452.14 325.2523 1419.9 325.8784 1385.27 328.0169 1352.81 329.3783 1297.28 331.4358 1241.77 333.8233 1186.26 336.541 1153.23 338.1774 1119.16 341.4772 1086.03 341.1691 1083.48 341.1451 1081.33 337.6713 1079.74 335.7448 1035.78 336.2259 990.157 340.958 946.022 342.5824 929.218 343.2016 908.899 343.9498 892.431 346.2253 893.808 359.8846 895.67 374.6231 893.895 388.1014 888.653 428.294 847.991 444.3509 811.684 437.7473 775.343 431.1387 762.273 405.7236 768.142 371.2503 753.491 369.2598 742.428 361.79 728.588 358.3822 719.909 356.2447 711.983 358.7023 704.509 363.2404 676.873 380.0204 651.533 415.568 644.37 447.1275 642.269 456.3847 643.813 466.5912 641.177 475.6234 640.538 477.8129 639.397 479.2152 637.245 480.0544 628.602 483.4262 550.887 464.8378 542.232 458.8563 528.379 449.282 529.979 436.733 511.125 429.7714 504.816 429.1092 499.185 428.7771 492.995 430.3955 466.288 437.3762 438.743 445.9252 412.35 453.8251L245.557 504.7183C246.768 508.7213 247.932 512.7384 249.049 516.7693 253.014 531.5118 244.636 539.5328 228.826 534.5805 223.909 533.0402 222.444 518.1397 221.61 512.4452 211.512 516.1911 163.549 532.8551 155.31 531.6058 138.864 519.0729 133.952 317.7875 136.621 287.7873 136.935 284.2524 136.642 280.8176 138.394 277.5488 141.236 275.0902 141.311 274.8422 145.87 274.6791 178.64 273.5069 212.049 273.5589 244.785 273.7429L392.884 274.157 490.482 274.166C500.485 274.166 535.639 273.7119 542.834 275.3673 570.707 281.7799 575.09 316.0671 612.073 315.1679 653.161 314.1686 684.935 279.7134 723.907 270.1441 731.884 268.1846 754.07 269.1068 763.36 269.2548 763.659 277.5828 763.9 285.9138 764.085 294.2448 743.04 303.264 732.168 322.6837 746.126 343.2906 751.309 351.0655 759.436 356.3908 768.633 358.0371 776.583 359.4075 786.82 357.7351 793.164 352.7819 816.615 334.4705 802.713 298.3968 807.918 268.0796 840.848 267.2304 878.335 268.5757 911.463 269.1628L911.748 280.9497C951.89 279.7344 998.783 281.1037 1039.41 281.3577L1039.54 267.5154ZM853.87 418.5397C893.898 406.0597 885.817 356.0777 841.063 358.3902 831.184 360.9679 823.25 364.1126 817.848 373.5359 813.861 380.5596 812.891 388.8996 815.159 396.6504 820.145 414.2896 837.113 420.2651 853.87 418.5397ZM806.417 417.8095L816.248 420.3651C791.128 385.5397 812.618 371.6434 809.526 362.5082L807.817 361.8011C780.084 373.0247 780.454 406.4738 806.417 417.8095Z"></path>
<path transform="translate(0,0)" style="stroke-linecap: round; fill: rgb(16,16,16)" stroke-linecap="round" d="M847.715 146.6209C859.968 146.4839 872.221 146.476 884.474 146.595 884.779 162.8209 884.144 186.8085 885.73 202.0942 939.019 203.7137 999.55 202.4503 1053.4 202.4474 1053.78 184.075 1053.38 165.4274 1053.7 146.9221 1066.07 146.3348 1083.06 146.785 1095.77 146.7859 1096.71 163.9601 1096.42 184.7711 1096.61 202.1302 1117.17 204.0457 1117.23 208.2347 1118.55 227.1192L1900.43 242.5329C1901.03 232.3965 1906.86 225.0708 1917.64 232.0665 1921.01 234.2529 1920.85 239.0471 1921.03 242.935 1928.74 243.2751 1941.51 242.6319 1947.86 246.8469 1954.58 251.311 1953.9 264.9973 1949.59 271.2098 1942.86 276.299 1863.6 274.8908 1848.24 274.9497 1750.66 275.2038 1652.25 278.1756 1554.63 278.0195L1553.87 261.5525C1537.28 260.7433 1516.24 261.2495 1499.31 261.1084L1394.95 259.9582C1276.51 257.9347 1158.06 257.0325 1039.6 257.2505 1039.44 247.096 1039.55 236.6895 1039.54 226.5121L911.495 225.3778 911.546 258.99C901.637 257.9086 884.648 258.3048 874.272 258.2948 852.986 258.1907 831.699 258.2877 810.415 258.5848 810.408 253.5275 811.245 246.9321 807.943 243.5291 788.421 246.713 792.706 280.0639 792.978 294.9615 785.637 295.3967 776.725 294.9535 769.262 294.7814 767.585 270.7737 763.685 238.2639 787.765 223.4163 795.662 218.5462 803.621 217.756 812.583 216.5277 819.858 206.6853 822.053 212.5017 830.959 208.2357 833.821 204.807 832.962 206.3733 833.606 201.1521 835.747 198.7894 838.995 198.7405 842.363 198.1464 842.393 190.5814 840.938 150.3178 843.495 147.0111L847.715 146.6209ZM870.74 226.3841C876.043 226.375 876.305 227.1972 880.267 224.8767 884.512 214.4692 871.683 209.1379 862.829 209.338 856.064 211.3334 850.367 215.5924 848.325 222.6901 850.398 228.9386 864.374 226.5111 870.74 226.3841ZM1081.74 226.5692C1086.52 226.7031 1087.84 227.5103 1091.63 225.5188 1096.94 214.4822 1078.72 210.4092 1070.33 211.2064 1065.01 213.705 1058.88 217.0508 1059.67 224.0215 1064.65 228.6897 1074.17 226.431 1081.74 226.5692Z"></path>
<path transform="translate(0,0)" style="stroke-linecap: round; fill: rgb(16,16,16)" stroke-linecap="round" d="M1028.7 351.7391C1037.06 350.8649 1043.05 350.8679 1051.43 350.8819 1051.7 370.6656 1055.02 488.5399 1051.14 499.5155 1043.64 504.8958 944.812 521.1837 928.721 523.9684 922.329 524.9286 915.024 526.9071 909.65 523.3803 905.911 518.36 905.256 378.2994 906.925 363.855 911.18 360.2681 943.969 358.8708 951.977 358.2136L1028.7 351.7391ZM933.649 494.3673C937.798 493.6801 941.144 493.033 945.365 492.953L947.16 491.6126C947.73 454.9538 946.655 410.7242 946.019 373.8244L933.22 374.6426C932.839 375.1467 932.457 375.6518 932.076 376.1569 932.786 415.5584 932.87 454.9678 933.649 494.3673ZM999.58 484.3339L1012.01 482.5825C1013.72 479.3397 1012.39 380.2699 1012.31 367.989L997.868 368.5211C998.75 387.5037 998.31 407.0693 998.583 426.1429 998.86 445.5146 999.6 464.9962 999.58 484.3339Z"></path>
<path transform="translate(0,0)" style="stroke-linecap: round; fill: rgb(16,16,16)" stroke-linecap="round" d="M1270.17 82.5254C1282.52 81.5931 1337.9 80.7439 1346.83 84.8039 1354.33 93.734 1348.27 157.0492 1350.64 171.7288 1351.27 175.6527 1350.7 184.9379 1347.61 188.0677 1335.78 191.8896 1262.06 190.0952 1245.75 187.9526 1238.83 187.0434 1205.23 179.0305 1196.72 177.032 1192.58 176.6749 1177.55 174.0713 1173.65 173.2421 1162.5 170.8675 1110.05 174.3904 1104.18 169.9123 1100.74 161.5153 1102.32 120.1584 1102.83 108.9547 1106.21 108.5596 1109.98 108.4046 1113.39 108.2635 1152.1 106.6711 1190.11 97.0638 1227.86 88.9979 1242.33 85.9072 1255.31 83.3385 1270.17 82.5254Z"></path>
<path transform="translate(0,0)" style="stroke-linecap: round; fill: rgb(16,16,16)" stroke-linecap="round" d="M795.409 84.3438C813.487 85.9852 812.457 88.9029 813.288 105.7849 821.54 105.7549 828.424 105.902 836.661 106.3921 837.344 126.6009 836.858 149.5625 836.682 169.8773 827.759 170.2684 822.22 170.0564 813.427 168.8351 813.372 170.0854 813.29 171.3357 813.18 172.583 811.948 186.1962 800.835 182.9915 790.719 181.9962L786.23 172.3529C783.307 176.719 781.565 178.8165 778.08 182.7774 756.769 183.4306 734.153 183.2325 712.74 183.4006 698.651 183.6236 682.938 184.2018 668.988 183.5596 668.244 173.9163 668.813 160.101 668.695 150.0696 668.497 133.2475 668.633 116.0034 668.786 99.1764 668.802 97.3699 669.294 88.7559 670.341 88.6088 703.788 83.9137 742.831 88.0097 777.222 86.4733 780.623 86.3213 782.425 89.5541 783.933 91.3755 789.122 92.1697 784.938 87.4185 795.409 84.3438Z"></path>
<path transform="translate(0,0)" style="stroke-linecap: round; fill: rgb(16,16,16)" stroke-linecap="round" d="M937.949 57.3522C950.238 56.7001 997.546 54.6526 1005.55 60.826 1008.95 67.8667 1007.65 84.5357 1007.48 93.2048 1025.41 103.0512 1021.19 108.0054 1043.59 107.4712 1043.76 126.7749 1043.74 146.0805 1043.51 165.3831 1038.63 165.2681 1033.5 165.4672 1028.6 165.5792 1015.16 173.6371 1014.14 176.8609 997.93 180.6668L997.199 180.7848C976.235 184.0786 942.463 185.1319 923.01 176.0107 918.045 173.6821 911.747 169.018 907.169 165.6842L894.299 165.2111C894.067 146.1585 894.043 127.1029 894.226 108.0504 920.553 106.442 913.136 98.8792 932.64 92.9998 932.534 82.6053 929.511 63.6377 937.949 57.3522ZM954.555 107.3972C943.446 109.0806 933.297 112.9515 926.383 122.0947 917.594 133.7185 922.949 148.4511 933.963 156.0229 947.783 165.5232 963.885 164.947 979.715 163.9848 990.166 162.1133 1001.03 158.1404 1007.39 149.0492 1010.81 144.211 1012.13 138.2006 1011.07 132.3742 1006.57 107.8853 974.517 104.7406 954.555 107.3972ZM947.565 86.6482L989.236 86.4722 991.007 86.3562C992.159 82.3392 991.671 73.9912 991.609 69.4581L947.586 69.4201 947.565 86.6482Z"></path>
<path transform="translate(0,0)" style="stroke-linecap: round; fill: rgb(16,16,16)" stroke-linecap="round" d="M108.433 274.3562C114.636 273.8661 122.468 272.5918 126.856 277.679 128.016 280.7557 130.983 426.7228 132.479 445.3292 134.092 464.0927 135.956 482.8342 138.069 501.5487 139.193 511.257 140.61 521.0894 141.364 530.8137 141.941 538.2545 134.867 541.1742 129.157 542.9026 125.848 543.5308 122.681 544.2319 119.366 543.1797 116.151 542.1585 114 540.0129 112.552 537.0022 101.951 514.9559 89.9997 301.9858 99.4061 281.0788 101.163 277.1729 104.758 275.8656 108.433 274.3562Z"></path>
<path transform="translate(0,0)" style="stroke-linecap: round; fill: rgb(16,16,16)" stroke-linecap="round" d="M923.572 248.1308C958.152 248.0908 992.574 248.946 1027.16 249.208 1027.42 256.5878 1027.25 260.8778 1026.74 268.1666 992.526 268.5017 957.752 268.1416 923.501 268.0906L923.572 248.1308Z"></path>
<path transform="translate(0,0)" style="stroke-linecap: round; fill: rgb(16,16,16)" stroke-linecap="round" d="M1055.91 92.5798C1069.11 92.5028 1082.52 92.2467 1095.67 93.0419 1096.61 105.5919 1095.95 124.4034 1095.67 137.3636L1054.01 137.2605C1053.17 124.8976 1053.26 108.0895 1053.83 95.5875 1053.92 93.471 1054.31 93.7381 1055.91 92.5798Z"></path>
<path transform="translate(0,0)" style="stroke-linecap: round; fill: rgb(16,16,16)" stroke-linecap="round" d="M842.352 92.0837C855.681 91.7555 870.127 91.9596 883.532 91.9246 883.707 107.0192 883.74 122.1149 883.629 137.2095 870.587 136.7923 855.432 137.0714 842.254 137.0334L842.352 92.0837Z"></path>
<path transform="translate(0,0)" style="stroke-linecap: round; fill: rgb(16,16,16)" stroke-linecap="round" d="M643.377 88.2878C648.719 88.0437 654.468 88.3238 659.846 88.4748 659.897 89.0859 659.941 89.6981 659.976 90.3102 661.279 117.5498 659.642 146.4637 660.255 173.8693 660.336 177.4501 660.323 180.0928 657.91 182.7754 652.527 182.9435 645.133 183.9757 641.262 180.3849 640.57 177.7642 640.237 175.4087 640.293 171.4557 640.666 144.8693 639.229 116.8996 641.205 90.5263 642.078 89.6271 642.802 88.8799 643.377 88.2878Z"></path>
<path transform="translate(0,0)" style="stroke-linecap: round; fill: rgb(16,16,16)" stroke-linecap="round" d="M767.643 303.3053C780.163 300.0115 792.965 307.5623 796.144 320.1143 799.324 332.6663 791.66 345.4034 779.083 348.4701 766.665 351.4978 754.128 343.95 750.989 331.557 747.85 319.1641 755.282 306.556 767.643 303.3053Z"></path>
<path transform="translate(0,0)" style="stroke-linecap: round; fill: rgb(16,16,16)" stroke-linecap="round" d="M740.159 231.2377C748.273 230.3935 755.288 230.9265 763.376 231.3937 763.771 237.5212 765.917 254.7833 762.204 260.3786 761.434 261.5379 758.666 261.2198 756.74 261.3169L730.583 261.4888C728.487 248.7969 729.058 239.0845 740.159 231.2377Z"></path>
</svg>