<?xml version="1.0" encoding="UTF-8" standalone="no"?>
<!-- Generated by SVGMaker - https://svgmaker.io -->
<!-- Prompt: Keep the style of this icon but I need all of the white to be transparent - updated by SVGMaker Editor -->
<!-- Quality: medium -->
<!-- Type: edit -->
<!-- Created: 2026-03-25T17:51:52.088Z -->
<svg xmlns="http://www.w3.org/2000/svg" xmlns:xlink="http://www.w3.org/1999/xlink" version="1.1" width="1797" height="1079" viewBox="0 0 1797 1079">
<desc>Created with SVGMaker Editor 3.0.0</desc>
<defs>
</defs>
<path transform="translate(0,0)" style="stroke-linecap: round; fill: rgb(0,0,0); fill-rule: evenodd" stroke-linecap="round" d="M1543.05 45.164C1543.04 44.408 1543.03 43.632 1543.02 42.841L1543.02 42.785C1542.9 33.579 1542.75 22.288 1548.85 15.087 1564.03-2.826 1599.18-5.01 1617.08 9.825 1627.94 18.835 1628.2 30.1 1629.06 42.979 1626.74 42.936 1624.51 42.882 1622.39 42.83 1594.46 42.145 1582.85 41.86 1569.19 73.302 1560.74 92.728 1533.65 117.449 1511.41 118.562 1495.33 119.367 1478.52 119.324 1462.11 119.282L1462.05 119.282 1461.16 119.28C1457.41 119.27 1453.7 119.261 1450.01 119.264L1366.33 119.279 994.02 118.764C986.82 118.817 979.96 119.081 972.8 119.845 912 126.331 850.447 124.592 789.1 122.859L789.097 122.859C762.76 122.115 736.461 121.373 710.277 121.282 644.31 121.273 578.344 120.866 512.382 120.061 485.979 119.896 459.543 119.957 433.155 120.205 428.19 120.252 426.238 116.075 424.102 111.504 422.372 107.802 420.521 103.842 416.851 101.659 408.497 96.692 401.276 96.893 392.545 97.136 390.752 97.186 388.895 97.237 386.952 97.246 387.351 58.864 375.926 59.1 347.152 59.694 343.168 59.777 338.851 59.866 334.187 59.861L279.853 59.932C271.948 60.016 261.076 60.957 255.335 66.821 242.273 80.163 241.481 102.361 241.776 120.042 239.212 120.041 235.668 119.911 231.549 119.759 213.808 119.106 185.389 118.06 178.536 125.301 172.148 132.052 169.508 145.197 166.521 153.85 158.208 177.931 149.63 201.901 143.945 226.784 139.318 247.042 136.917 267.627 134.014 288.175 133.62 290.967 133.065 293.885 132.5 296.853L132.5 296.856C131.157 303.913 129.759 311.258 130.337 317.894 131.306 329.014 141.075 337.991 152.956 348.907 174.11 368.345 201.957 393.933 198.73 448.716 195.938 496.118 177.058 552.133 162.3 597.306 155.607 617.794 148.335 639.018 140.887 660.76L140.881 660.778C104.821 766.03 64.612 883.4 65.76 987.92 65.935 1003.88 66.012 1029.95 79.452 1040.86 81.93 1042.88 85.131 1044.44 88.402 1044.03 93.321 1043.42 97.176 1039.11 99.906 1035.28 102.573 1031.54 104.153 1026.97 105.829 1022.72 162.32 1022.05 219.518 1022.23 276.482 1022.41 302.043 1022.49 327.556 1022.57 352.937 1022.57L432.613 1022.54C434.784 1022.54 437.515 1022.52 440.557 1022.49L440.663 1022.49C451.66 1022.39 466.664 1022.25 473.993 1023.13 474.004 1024.73 474.036 1026.38 474.068 1028.06 474.42 1046.32 474.848 1068.55 449.871 1069.27 431.361 1069.8 412.671 1069.75 394.046 1069.69 386.606 1069.66 379.177 1069.64 371.773 1069.65L222.653 1069.78C217.055 1069.79 211.448 1069.79 205.836 1069.79 183.185 1069.77 160.45 1069.76 137.904 1070.47 118.644 1071.09 101.77 1075.35 82.993 1078.12 72.042 1079.73 61.527 1076.41 53.483 1069.07 0.232 1020.52 48.547 859.07 68.181 793.465 68.923 790.984 69.625 788.64 70.278 786.445 82.639 745.431 95.69 704.628 109.426 664.054L140.06 577.45C141.65 572.959 143.267 568.46 144.888 563.95 160.188 521.381 175.817 477.895 171.911 432.087 166.546 369.175 113.617 346.41 58.946 336.915 45.619 334.6 18.187 334.471 8.064 326.39 3.226 322.529 0.413 313.777 0.182 307.508-0.878 278.65 18.948 276.157 39.761 273.54 45.111 272.867 50.526 272.186 55.669 271.047 73.64 267.066 90.019 259 102.293 245.22 118.798 226.69 136.623 169.107 126.46 145.103 119.235 129.438 99.897 119.772 99.244 100.804 98.542 80.444 117.585 60.27 138.211 60.092 156.184 59.938 167.188 68.24 179.565 79.691 226.973 42.595 241.69 42.489 294.626 42.107 298.147 42.082 301.836 42.055 305.716 42.016 306.229 33.802 306.181 28.061 312.324 21.66 321.521 12.079 340.974 11.217 350.439 20.8 356.368 26.802 356.359 32.502 356.347 40.228L356.347 40.229C356.347 40.437 356.346 40.646 356.346 40.857 420.839 39.657 485.797 40.33 550.769 41.003L550.784 41.003C613.589 41.654 676.407 42.305 738.829 41.264 744.903 41.163 752.325 42.273 758.85 43.25 760.12 43.44 761.355 43.625 762.54 43.795 771.162 45.031 778.422 45.822 787.213 45.876L1543.05 45.164ZM462.075 67.163C475.635 65.782 724.526 67.288 731.173 69.474 735.131 70.775 739.091 73.682 740.849 77.53 742.577 81.309 742.156 85.461 740.799 89.273 738.424 95.94 734.065 98.834 728.046 101.737 720.928 102.806 708.573 102.585 699.29 102.419L699.268 102.419C697.277 102.383 695.427 102.35 693.802 102.333L628.413 101.335 506.756 100.949C494.829 100.844 482.943 100.768 470.98 100.452 463.328 100.248 454.85 99.352 450.703 91.71 448.431 87.522 448.722 82.999 450.223 78.606 452.454 72.078 456.376 69.972 462.075 67.163ZM157.044 97.908C155.214 89.122 146.655 83.447 137.851 85.18 132.069 86.319 127.345 90.478 125.481 96.07 123.617 101.662 124.901 107.824 128.844 112.205 132.786 116.587 138.778 118.512 144.533 117.246 153.296 115.317 158.875 106.693 157.044 97.908Z"></path>
<path transform="translate(0,0)" style="stroke-linecap: round; fill: rgb(0,0,0); fill-rule: evenodd" stroke-linecap="round" d="M264.394 246.962L264.477 246.962C282.873 246.877 301.148 246.793 319.023 246.839L601.597 247.573C601.559 247.798 601.507 248.094 601.444 248.456L601.444 248.459C599.812 257.818 590.52 311.136 609.109 306.72 615.641 305.168 631.595 284.201 639.461 278.334 662.24 261.344 689.228 252.372 717.259 248.727 719.26 248.617 721.297 248.489 723.362 248.36L723.367 248.36C743.575 247.095 766.362 245.669 782.634 258.845 798.613 270.369 803.931 296.025 789.333 312.144 772.008 331.275 739.431 329.915 709.593 328.669L709.588 328.669 709.574 328.668 709.56 328.667 709.525 328.666C695.977 328.101 682.998 327.56 672.272 328.977 660.173 330.575 657.111 332.522 649.911 341.258 655.203 341.27 662.368 341.393 670.612 341.536L670.644 341.536 670.656 341.536C703.622 342.105 753.805 342.971 770.492 338.159 784.546 334.107 797.765 325.615 804.854 312.5 811.21 300.741 812.215 285.574 808.234 272.881 804.731 261.71 797.607 253.429 787.29 248.081L1495.02 248.048 1495.02 316.041 1247.28 315.841 1157.09 315.299C1155.07 315.294 1152.4 315.208 1149.34 315.108L1149.33 315.108C1134.75 314.638 1111.19 313.879 1105.89 320.136 1105.87 320.236 1105.86 320.337 1105.84 320.439L1105.84 320.46C1105.52 322.492 1105.15 324.857 1106.88 326.146 1115.41 332.47 1139.27 331.55 1153.64 330.995 1156.76 330.875 1159.43 330.772 1161.4 330.763L1235.9 330.828 1496.22 331.123C1496.66 338.887 1496.4 346.997 1496.83 355.066 1498.69 369.563 1497.3 380.053 1480.88 381.207 1475.08 381.614 1464.54 381.92 1459.14 377.78 1456.97 375.48 1455.68 372.679 1454.44 369.972L1454.43 369.96C1451.81 364.233 1449.37 358.928 1439.12 359.688 1435.61 359.948 1426.03 362.408 1424.11 365.356 1416.69 376.748 1422.06 378.501 1406.45 381.884 1403.19 382.568 1398.07 381.676 1395.62 379.292 1392.42 376.18 1390.57 372.873 1388.9 369.871 1385.57 363.908 1382.91 359.148 1371.64 359.513 1352.57 360.131 1360.18 378.675 1343.21 380.87 1339.29 381.764 1322.83 379.991 1320.72 377.638 1317.24 373.755 1315.6 370.151 1314.23 367.129 1311.39 360.861 1309.68 357.1 1294.97 358.554 1276.19 360.412 1286.73 377.103 1269.86 380.288 1265.27 381.156 1252.88 380.682 1248.37 377.99 1245.03 374.505 1243.59 370.99 1242.34 367.904L1242.34 367.896C1239.85 361.809 1238.04 357.394 1223.59 358.175 1220.67 358.332 1214.9 359.455 1213.35 362.094 1208.09 370.998 1210.68 378.116 1197.16 380.127 1192.98 380.75 1176.21 380.919 1173.55 377.996 1171.3 375.512 1170.19 372.546 1169.14 369.724 1167.09 364.225 1165.24 359.274 1155.49 359.508 1152.7 359.575 1148.38 360.574 1146.6 362.981 1138.84 373.521 1140.67 376.656 1124.85 377.044 1106.63 377.49 1087.66 377.434 1068.97 377.378L1068.29 377.376 1067.58 377.374 1066.88 377.372C1059.83 377.352 1052.82 377.331 1045.92 377.345 1044.57 377.347 1042.56 377.361 1040.13 377.378 1027.91 377.463 1004.91 377.623 1000.01 376.76 993.66 375.079 970.51 375.461 953.89 375.736L953.79 375.738 953.7 375.739C947.69 375.838 942.55 375.922 939.4 375.887 895.93 375.146 852.454 374.648 808.975 374.391L715.445 373.247C643.837 373.006 556.878 374.326 537.336 465.346 534.96 476.412 534.932 486.997 534.66 498.311L518.604 498.669C519.576 483.89 523.802 459.561 525.917 443.691L542.441 322.111C529.006 320.603 505.075 320.832 484.961 321.024L484.942 321.024 484.91 321.024 484.791 321.025C476.997 321.099 469.783 321.167 463.985 321.126 413.261 320.321 362.531 319.945 311.801 320.001 307.19 324.028 293.918 339.717 288.716 345.295 269.261 366.264 249.628 387.066 229.818 407.699 232.035 415.221 234.137 422.776 236.123 430.361 254.366 407.117 297.024 356.097 319.779 338.231 333.307 337.892 347.737 338.123 361.859 338.35L361.934 338.351C367.908 338.447 373.828 338.543 379.6 338.593L522.402 340.081C517.4 392.499 504.021 447.591 500.439 499.701 488.103 504.273 478.851 509.901 470.445 520.382 460.701 532.375 456.251 547.816 458.117 563.156 460.286 581.118 468.908 592.35 482.624 603.099 465.415 667.648 449.041 735.742 439.275 801.904 437.221 815.817 432.329 834.14 426.948 854.29L426.94 854.32C412.65 907.85 394.919 974.28 417.768 1005.27L88.498 1005.29C88.363 1010.95 87.921 1016.77 87.567 1022.44 87.368 1021.62 87.156 1020.76 86.936 1019.86 84.785 1011.11 81.842 999.12 81.906 991.06 83.279 820.568 177.206 666.867 210.914 502.395 221.619 450.164 222.774 408.001 189.376 363.919 178.868 350.051 151.739 328.353 145.91 317.019L145.396 316.003C149.806 290.615 152.064 271.962 154.987 246.442 190.45 247.302 227.662 247.131 264.394 246.962ZM938.27 264.883C951.34 261.243 964.89 268.865 968.57 281.925 972.24 294.985 964.66 308.559 951.62 312.275 938.52 316.008 924.88 308.387 921.19 295.273 917.49 282.158 925.15 268.538 938.27 264.883ZM970.35 331.171C968.17 331.278 966.18 331.376 964.5 331.413 960.62 332.287 953.64 333.823 951.8 337.737 940.05 362.774 977.59 360.338 993.69 359.294 994.9 359.215 995.99 359.144 996.93 359.094 1005.34 356.361 1013.41 350.688 1009.16 340.106 1004.89 329.469 983.83 330.507 970.35 331.171ZM363.857 405.452C379.364 403.512 393.528 414.455 395.569 429.953 397.61 445.451 386.762 459.69 371.282 461.833 355.658 463.995 341.261 453.021 339.201 437.38 337.141 421.739 348.206 407.411 363.857 405.452ZM272.294 920.37C270.889 904.69 257.105 893.08 241.417 894.36 225.548 895.65 213.773 909.63 215.194 925.49 216.615 941.36 230.687 953.02 246.533 951.47 262.199 949.94 273.699 936.06 272.294 920.37Z"></path>
<path transform="translate(0,0)" style="stroke-linecap: round; fill: rgb(243,242,242)" stroke-linecap="round" d="M324.19 517.1974C365.423 515.1739 400.496 546.9515 402.549 588.1924 404.602 629.4343 372.859 664.5397 331.629 666.6242 290.356 668.7107 255.213 636.9191 253.158 595.6342 251.103 554.3493 282.913 519.2218 324.19 517.1974Z"></path>
<path transform="translate(0,0)" style="stroke-linecap: round; fill: rgb(0,0,0)" stroke-linecap="round" d="M322.678 534.4406C400.535 526.4827 415.997 633.7364 334.498 649.4041 317.854 650.3474 302.546 648.0348 288.627 638.3035 276.94 630.2295 269.004 617.7806 266.618 603.7752 264.001 588.5445 267.739 572.9078 276.96 560.5088 288.421 544.8581 303.909 537.3103 322.678 534.4406Z"></path>
<path transform="translate(0,0)" style="stroke-linecap: round; fill: rgb(243,242,242)" stroke-linecap="round" d="M445.208 480.7134C456.244 485.7357 455.832 492.8304 446.596 499.567 434.468 495.1889 435.465 487.19 445.208 480.7134Z"></path>
<path transform="translate(0,0)" style="stroke-linecap: round; fill: rgb(243,242,242)" stroke-linecap="round" d="M145.222 970.0049C149.267 969.1947 153.255 971.6353 154.373 975.6062 155.491 979.5772 153.362 983.7382 149.487 985.1585 146.704 986.1788 143.585 985.5486 141.412 983.5281 139.238 981.5177 138.376 978.4569 139.179 975.6062 139.983 972.7456 142.317 970.585 145.222 970.0049Z"></path>
<path transform="translate(0,0)" style="stroke-linecap: round; fill: rgb(243,242,242)" stroke-linecap="round" d="M357.512 734.8305C361.416 733.4471 365.72 735.3606 367.311 739.1855 368.902 743.0104 367.224 747.4125 363.49 749.2069 360.89 750.4562 357.813 750.1682 355.49 748.4557 353.168 746.7443 351.981 743.8897 352.404 741.035 352.828 738.1813 354.793 735.7937 357.512 734.8305Z"></path>
<path transform="translate(0,0)" style="stroke-linecap: round; fill: rgb(243,242,242)" stroke-linecap="round" d="M120.389 942.7683C124.395 941.638 128.579 943.8585 129.889 947.8095 131.199 951.7604 129.172 956.0514 125.287 957.5418 122.609 958.562 119.584 958.0419 117.412 956.1615 115.24 954.291 114.274 951.3803 114.896 948.5796 115.518 945.779 117.628 943.5484 120.389 942.7683Z"></path>
<path transform="translate(0,0)" style="stroke-linecap: round; fill: rgb(243,242,242)" stroke-linecap="round" d="M334.144 714.6295C338.28 713.8454 342.29 716.496 343.189 720.609 344.089 724.723 341.553 728.8059 337.467 729.8212 334.72 730.5034 331.819 729.6391 329.894 727.5647 327.968 725.4902 327.321 722.5324 328.205 719.8438 329.088 717.1542 331.363 715.1567 334.144 714.6295Z"></path>
<path transform="translate(0,0)" style="stroke-linecap: round; fill: rgb(243,242,242)" stroke-linecap="round" d="M416.731 459.6873C419.235 458.406 422.238 458.5841 424.573 460.1514 426.909 461.7198 428.211 464.4315 427.974 467.2351 427.737 470.0388 425.999 472.4934 423.433 473.6477 419.602 475.3701 415.096 473.7237 413.277 469.9358 411.459 466.1479 412.991 461.6008 416.731 459.6873Z"></path>
<path transform="translate(0,0)" style="stroke-linecap: round; fill: rgb(243,242,242)" stroke-linecap="round" d="M235.396 779.0843C239.468 778.4521 243.315 781.1368 244.128 785.1778 244.941 789.2187 242.43 793.1827 238.431 794.1749 235.681 794.8571 232.778 793.9739 230.873 791.8754 228.969 789.7759 228.37 786.8001 229.315 784.1285 230.26 781.4559 232.596 779.5184 235.396 779.0843Z"></path>
<path transform="translate(0,0)" style="stroke-linecap: round; fill: rgb(243,242,242)" stroke-linecap="round" d="M325.401 763.0254C327.943 761.8711 330.911 762.1852 333.156 763.8456 335.401 765.506 336.571 768.2526 336.213 771.0223 335.854 773.7919 334.024 776.1505 331.43 777.1848 327.548 778.7331 323.139 776.8977 321.501 773.0508 319.863 769.2048 321.594 764.7538 325.401 763.0254Z"></path>
<path transform="translate(0,0)" style="stroke-linecap: round; fill: rgb(243,242,242)" stroke-linecap="round" d="M218.514 714.8116C222.554 713.8404 226.632 716.266 227.708 720.2809 228.784 724.2949 226.466 728.4359 222.482 729.6172 219.81 730.4083 216.92 729.6882 214.932 727.7347 212.945 725.7812 212.173 722.9035 212.918 720.2179 213.662 717.5323 215.805 715.4618 218.514 714.8116Z"></path>
<path transform="translate(0,0)" style="stroke-linecap: round; fill: rgb(243,242,242)" stroke-linecap="round" d="M174.578 944.7187C177.299 943.7685 180.317 944.4387 182.394 946.4291 184.471 948.4196 185.256 951.4103 184.426 954.171 183.597 956.9317 181.293 958.9921 178.46 959.5023 174.519 960.2224 170.689 957.7819 169.671 953.9109 168.654 950.03 170.792 946.029 174.578 944.7187Z"></path>
<path transform="translate(0,0)" style="stroke-linecap: round; fill: rgb(243,242,242)" stroke-linecap="round" d="M275.63 870.8607C279.624 869.5204 283.949 871.6709 285.292 875.6619 286.635 879.6528 284.489 883.9839 280.496 885.3342 276.499 886.6745 272.167 884.524 270.823 880.533 269.478 876.5321 271.631 872.201 275.63 870.8607Z"></path>
<path transform="translate(0,0)" style="stroke-linecap: round; fill: rgb(243,242,242)" stroke-linecap="round" d="M259.123 806.7881C261.615 805.5378 264.59 805.7468 266.882 807.3332 269.175 808.9196 270.419 811.6312 270.127 814.4039 269.836 817.1775 268.055 819.5701 265.483 820.6454 261.691 822.2298 257.326 820.5243 255.612 816.7885 253.897 813.0536 255.45 808.6305 259.123 806.7881Z"></path>
<path transform="translate(0,0)" style="stroke-linecap: round; fill: rgb(243,242,242)" stroke-linecap="round" d="M244.077 738.7665C247.979 737.4091 252.251 739.4096 253.709 743.2755 255.166 747.1415 253.279 751.4655 249.453 753.0239 246.888 754.0691 243.958 753.639 241.801 751.9026 239.643 750.1652 238.598 747.3935 239.071 744.6639 239.544 741.9342 241.461 739.6757 244.077 738.7665Z"></path>
<path transform="translate(0,0)" style="stroke-linecap: round; fill: rgb(243,242,242)" stroke-linecap="round" d="M252.84 691.784C256.903 691.2118 260.689 693.9625 261.403 698.0035 262.117 702.0454 259.502 705.9274 255.489 706.7826 252.765 707.3637 249.94 706.4105 248.124 704.298 246.308 702.1855 245.79 699.2488 246.772 696.6421 247.755 694.0345 250.081 692.1721 252.84 691.784Z"></path>
<path transform="translate(0,0)" style="stroke-linecap: round; fill: rgb(243,242,242)" stroke-linecap="round" d="M209.744 754.7764C213.887 753.9942 217.877 756.7228 218.652 760.8668 219.426 765.0118 216.691 768.9978 212.546 769.7649 208.412 770.5301 204.439 767.8025 203.667 763.6695 202.894 759.5355 205.614 755.5575 209.744 754.7764Z"></path>
<path transform="translate(0,0)" style="stroke-linecap: round; fill: rgb(243,242,242)" stroke-linecap="round" d="M445.671 433.867C448.121 432.5677 451.084 432.7067 453.402 434.2291 455.719 435.7515 457.024 438.4151 456.807 441.1808 456.589 443.9454 454.884 446.372 452.356 447.5133 448.616 449.2017 444.211 447.6153 442.405 443.9294 440.6 440.2435 442.045 435.7895 445.671 433.867Z"></path>
<path transform="translate(0,0)" style="stroke-linecap: round; fill: rgb(243,242,242)" stroke-linecap="round" d="M379.069 920.7729C390.6 921.423 388.977 930.8953 383.385 937.917 371.294 935.8865 371.133 928.3847 379.069 920.7729Z"></path>
<path transform="translate(0,0)" style="stroke-linecap: round; fill: rgb(243,242,242)" stroke-linecap="round" d="M366.237 688.8933C368.901 688.2471 371.705 689.0883 373.573 691.0938 375.442 693.0983 376.083 695.956 375.251 698.5676 374.419 701.1792 372.242 703.1387 369.559 703.6928 365.507 704.529 361.533 701.9634 360.627 697.9254 359.721 693.8885 362.217 689.8695 366.237 688.8933Z"></path>
<path transform="translate(0,0)" style="stroke-linecap: round; fill: rgb(243,242,242)" stroke-linecap="round" d="M332.844 870.7007C336.905 869.6704 341.032 872.131 342.046 876.202 343.061 880.2729 340.576 884.3839 336.505 885.3842 332.46 886.3744 328.376 883.9038 327.368 879.8628 326.36 875.8219 328.808 871.7309 332.844 870.7007Z"></path>
<path transform="translate(0,0)" style="stroke-linecap: round; fill: rgb(243,242,242)" stroke-linecap="round" d="M319.187 968.6546C323.126 967.6043 327.187 969.8749 328.364 973.7758 329.54 977.6867 327.407 981.8177 323.543 983.118 320.932 983.9982 318.048 983.3881 316.02 981.5177 313.991 979.6472 313.141 976.8265 313.8 974.1559 314.459 971.4752 316.524 969.3647 319.187 968.6546Z"></path>
<path transform="translate(0,0)" style="stroke-linecap: round; fill: rgb(243,242,242)" stroke-linecap="round" d="M343.793 828.7744C347.903 828.0252 351.841 830.7579 352.578 834.8719 353.315 838.9859 350.572 842.9158 346.457 843.642 342.359 844.3642 338.449 841.6335 337.714 837.5365 336.98 833.4395 339.699 829.5206 343.793 828.7744Z"></path>
<path transform="translate(0,0)" style="stroke-linecap: round; fill: rgb(243,242,242)" stroke-linecap="round" d="M275.921 714.6936C278.449 713.5803 281.384 713.9364 283.573 715.6218 285.762 717.3072 286.857 720.0528 286.428 722.7825 285.999 725.5122 284.116 727.7907 281.515 728.7229 277.685 730.0973 273.454 728.1908 271.947 724.4099 270.439 720.629 272.196 716.333 275.921 714.6936Z"></path>
<path transform="translate(0,0)" style="stroke-linecap: round; fill: rgb(243,242,242)" stroke-linecap="round" d="M326.644 478.799C338.692 478.0468 340.352 484.7364 334.635 493.9816 331.213 494.3887 330.498 494.5848 327.257 493.5245 321.912 488.5103 323.377 484.7794 326.644 478.799Z"></path>
<path transform="translate(0,0)" style="stroke-linecap: round; fill: rgb(243,242,242)" stroke-linecap="round" d="M155.321 872.8712C158.791 870.8007 163.28 871.8309 165.495 875.2117 167.71 878.5925 166.863 883.1236 163.575 885.4742 161.325 887.0846 158.374 887.3346 155.887 886.1244 153.4 884.9141 151.778 882.4335 151.659 879.6628 151.541 876.9021 152.947 874.2915 155.321 872.8712Z"></path>
<path transform="translate(0,0)" style="stroke-linecap: round; fill: rgb(243,242,242)" stroke-linecap="round" d="M228.604 665.8116C232.622 665.1885 236.411 667.8641 237.17 671.8591 237.929 675.8551 235.387 679.733 231.42 680.6292 228.731 681.2363 225.925 680.3281 224.102 678.2606 222.278 676.1921 221.727 673.2944 222.665 670.7008 223.603 668.1082 225.88 666.2337 228.604 665.8116Z"></path>
<path transform="translate(0,0)" style="stroke-linecap: round; fill: rgb(243,242,242)" stroke-linecap="round" d="M292.315 945.919C296.198 945.0488 300.091 947.3494 301.203 951.1703 302.316 954.9912 300.264 959.0222 296.519 960.3725 293.881 961.3127 290.933 960.7226 288.869 958.8221 286.804 956.9317 285.964 954.041 286.687 951.3303 287.411 948.6197 289.579 946.5392 292.315 945.919Z"></path>
<path transform="translate(0,0)" style="stroke-linecap: round; fill: rgb(243,242,242)" stroke-linecap="round" d="M350.187 941.698C354.004 940.2376 358.287 942.0881 359.841 945.869 361.395 949.6499 359.654 953.9809 355.916 955.6313 353.412 956.7316 350.505 956.3915 348.324 954.7411 346.143 953.0907 345.03 950.3801 345.416 947.6694 345.803 944.9588 347.63 942.6782 350.187 941.698Z"></path>
<path transform="translate(0,0)" style="stroke-linecap: round; fill: rgb(243,242,242)" stroke-linecap="round" d="M383.087 476.7435C387.033 475.6022 391.164 477.8427 392.358 481.7737 393.553 485.7046 391.368 489.8666 387.454 491.1139 384.876 491.9361 382.054 491.306 380.069 489.4655 378.084 487.6251 377.244 484.8584 377.869 482.2238 378.493 479.5902 380.487 477.4966 383.087 476.7435Z"></path>
<path transform="translate(0,0)" style="stroke-linecap: round; fill: rgb(243,242,242)" stroke-linecap="round" d="M408.218 502.7038C412.16 501.6046 416.256 503.8651 417.428 507.787 418.601 511.708 416.418 515.847 412.52 517.0933 409.933 517.9205 407.101 517.2853 405.114 515.4329 403.127 513.5804 402.295 510.7988 402.939 508.1591 403.583 505.5195 405.601 503.433 408.218 502.7038Z"></path>
<path transform="translate(0,0)" style="stroke-linecap: round; fill: rgb(243,242,242)" stroke-linecap="round" d="M271.632 762.8403C274.309 762.2042 277.12 763.0854 278.955 765.1369 280.791 767.1874 281.356 770.0791 280.429 772.6707 279.502 775.2613 277.23 777.1378 274.511 777.5579 270.531 778.173 266.776 775.5354 266.003 771.5824 265.23 767.6295 267.714 763.7716 271.632 762.8403Z"></path>
<path transform="translate(0,0)" style="stroke-linecap: round; fill: rgb(243,242,242)" stroke-linecap="round" d="M328.101 917.8922C330.679 917.042 333.514 917.6621 335.512 919.4926 337.51 921.333 338.36 924.1037 337.734 926.7443 337.109 929.3849 335.105 931.4854 332.495 932.2256 328.569 933.3459 324.469 931.1154 323.272 927.2144 322.076 923.3135 324.222 919.1625 328.101 917.8922Z"></path>
<path transform="translate(0,0)" style="stroke-linecap: round; fill: rgb(243,242,242)" stroke-linecap="round" d="M320.856 806.622C324.826 805.7248 328.785 808.1664 329.769 812.1173 330.752 816.0683 328.399 820.0812 324.472 821.1515 321.853 821.8647 319.054 821.1045 317.155 819.165 315.257 817.2256 314.556 814.4109 315.324 811.8073 316.092 809.2036 318.208 807.2192 320.856 806.622Z"></path>
<path transform="translate(0,0)" style="stroke-linecap: round; fill: rgb(243,242,242)" stroke-linecap="round" d="M285.253 828.8824C287.7 827.6241 290.639 827.8112 292.907 829.3696 295.175 830.9269 296.405 833.6036 296.11 836.3392 295.815 839.0759 294.043 841.4285 291.496 842.4677 287.788 843.9791 283.547 842.3017 281.875 838.6628 280.202 835.0239 281.691 830.7129 285.253 828.8824Z"></path>
<path transform="translate(0,0)" style="stroke-linecap: round; fill: rgb(243,242,242)" stroke-linecap="round" d="M125.864 896.727C128.279 895.4067 131.225 895.5167 133.534 897.0171 135.842 898.5174 137.141 901.1681 136.915 903.9087 136.689 906.6594 134.976 909.05 132.453 910.1602 128.783 911.7606 124.501 910.1902 122.737 906.5994 120.972 902.9985 122.35 898.6475 125.864 896.727Z"></path>
<path transform="translate(0,0)" style="stroke-linecap: round; fill: rgb(243,242,242)" stroke-linecap="round" d="M392.001 711.7899C395.783 710.5506 399.873 712.491 401.306 716.2059 402.739 719.9198 401.014 724.1058 397.38 725.7302 394.855 726.8585 391.915 726.5014 389.733 724.802 387.552 723.1036 386.485 720.3389 386.96 717.6143 387.434 714.8906 389.373 712.6501 392.001 711.7899Z"></path>
<path transform="translate(0,0)" style="stroke-linecap: round; fill: rgb(243,242,242)" stroke-linecap="round" d="M366.426 848.6553C370.275 847.545 374.314 849.6755 375.579 853.4764 376.843 857.2773 374.882 861.3983 371.135 862.8187 368.574 863.7789 365.688 863.2688 363.616 861.4784 361.544 859.6879 360.618 856.9073 361.205 854.2366 361.791 851.556 363.795 849.4155 366.426 848.6553Z"></path>
<path transform="translate(0,0)" style="stroke-linecap: round; fill: rgb(243,242,242)" stroke-linecap="round" d="M305.586 406.5213C309.556 405.4681 313.628 407.8267 314.693 411.7936 315.757 415.7606 313.412 419.8415 309.449 420.9178 305.469 421.9991 301.368 419.6415 300.299 415.6575 299.23 411.6736 301.6 407.5786 305.586 406.5213Z"></path>
<path transform="translate(0,0)" style="stroke-linecap: round; fill: rgb(243,242,242)" stroke-linecap="round" d="M202.309 967.6943C206.157 966.224 210.467 968.1644 211.918 972.0254 213.369 975.8763 211.407 980.1773 207.544 981.6077 203.708 983.028 199.445 981.0875 198.005 977.2566 196.565 973.4257 198.488 969.1547 202.309 967.6943Z"></path>
<path transform="translate(0,0)" style="stroke-linecap: round; fill: rgb(243,242,242)" stroke-linecap="round" d="M351.902 785.6949C355.794 784.5026 359.92 786.6671 361.152 790.5471 362.385 794.427 360.265 798.576 356.399 799.8493 353.862 800.6855 351.072 800.0934 349.092 798.2999 347.112 796.5065 346.249 793.7868 346.83 791.1792 347.411 788.5716 349.348 786.4781 351.902 785.6949Z"></path>
<path transform="translate(0,0)" style="stroke-linecap: round; fill: rgb(243,242,242)" stroke-linecap="round" d="M248.296 851.726C252.144 850.2957 256.421 852.2561 257.842 856.1071 259.263 859.958 257.289 864.239 253.435 865.6494 249.592 867.0597 245.334 865.0892 243.917 861.2483 242.5 857.4074 244.459 853.1464 248.296 851.726Z"></path>
<path transform="translate(0,0)" style="stroke-linecap: round; fill: rgb(243,242,242)" stroke-linecap="round" d="M394.157 379.6778C398.183 379.0716 401.945 381.8233 402.589 385.8443 403.233 389.8652 400.518 393.6541 396.505 394.3363 392.437 395.0285 388.586 392.2678 387.933 388.1928 387.28 384.1168 390.077 380.2919 394.157 379.6778Z"></path>
<path transform="translate(0,0)" style="stroke-linecap: round; fill: rgb(243,242,242)" stroke-linecap="round" d="M384.721 872.8512C387.19 871.5909 390.154 871.8209 392.404 873.4313 394.655 875.0517 395.815 877.7924 395.411 880.533 395.008 883.2737 393.108 885.5642 390.488 886.4644 386.809 887.7247 382.78 885.9243 381.262 882.3435 379.744 878.7626 381.255 874.6216 384.721 872.8512Z"></path>
<path transform="translate(0,0)" style="stroke-linecap: round; fill: rgb(243,242,242)" stroke-linecap="round" d="M310.747 693.5414C314.694 692.5372 318.71 694.9117 319.734 698.8547 320.758 702.7966 318.405 706.8266 314.469 707.8708 310.504 708.9221 306.44 706.5475 305.409 702.5766 304.377 698.6056 306.772 694.5537 310.747 693.5414Z"></path>
<path transform="translate(0,0)" style="stroke-linecap: round; fill: rgb(243,242,242)" stroke-linecap="round" d="M355.055 893.6863C357.612 892.7861 360.459 893.3462 362.477 895.1566 364.495 896.9771 365.36 899.7477 364.732 902.3884 364.104 905.029 362.083 907.1095 359.465 907.8197 355.623 908.8599 351.645 906.6794 350.459 902.8785 349.273 899.0776 351.303 895.0166 355.055 893.6863Z"></path>
<path transform="translate(0,0)" style="stroke-linecap: round; fill: rgb(243,242,242)" stroke-linecap="round" d="M381.915 762.7113C385.742 761.7201 389.672 763.9156 390.836 767.6955 391.999 771.4744 389.985 775.5014 386.264 776.8357 383.701 777.7539 380.841 777.1908 378.818 775.3683 376.796 773.5459 375.938 770.7592 376.585 768.1136 377.232 765.469 379.279 763.3935 381.915 762.7113Z"></path>
<path transform="translate(0,0)" style="stroke-linecap: round; fill: rgb(243,242,242)" stroke-linecap="round" d="M201.952 801.7448C204.443 800.8146 207.242 801.2947 209.281 803.0011 211.319 804.7085 212.284 807.3802 211.805 809.9968 211.327 812.6124 209.48 814.7699 206.97 815.6452 203.147 816.9785 198.963 814.986 197.589 811.1771 196.214 807.3682 198.16 803.1622 201.952 801.7448Z"></path>
<path transform="translate(0,0)" style="stroke-linecap: round; fill: rgb(243,242,242)" stroke-linecap="round" d="M303.398 894.5765C307.309 893.5762 311.302 895.8968 312.363 899.7877 313.423 903.6887 311.158 907.7196 307.277 908.8299 304.717 909.5701 301.959 908.8699 300.06 906.9995 298.16 905.129 297.413 902.3884 298.104 899.8177 298.796 897.2371 300.819 895.2366 303.398 894.5765Z"></path>
<path transform="translate(0,0)" style="stroke-linecap: round; fill: rgb(243,242,242)" stroke-linecap="round" d="M202.256 644.8655C205.8 642.9791 210.201 644.2754 212.158 647.7812 214.114 651.286 212.907 655.7141 209.442 657.7406 207.138 659.0889 204.286 659.0859 201.985 657.7326 199.683 656.3803 198.293 653.8887 198.349 651.219 198.406 648.5504 199.9 646.1198 202.256 644.8655Z"></path>
<path transform="translate(0,0)" style="stroke-linecap: round; fill: rgb(243,242,242)" stroke-linecap="round" d="M182.091 896.777C185.825 895.4567 189.94 897.3171 191.41 900.998 192.88 904.6789 191.181 908.8599 187.561 910.4803 185.09 911.5806 182.215 911.2405 180.069 909.5901 177.922 907.9497 176.848 905.2591 177.27 902.5884 177.691 899.9078 179.541 897.6872 182.091 896.777Z"></path>
<path transform="translate(0,0)" style="stroke-linecap: round; fill: rgb(243,242,242)" stroke-linecap="round" d="M278.268 429.719C282.11 428.7438 286.035 430.9843 287.151 434.7892 288.267 438.5941 286.174 442.6001 282.413 443.8554 279.855 444.7096 277.034 444.0975 275.059 442.259 273.085 440.4206 272.272 437.6499 272.941 435.0363 273.61 432.4227 275.653 430.3832 278.268 429.719Z"></path>
<path transform="translate(0,0)" style="stroke-linecap: round; fill: rgb(243,242,242)" stroke-linecap="round" d="M300.478 738.6054C303.083 737.5902 306.038 738.1373 308.106 740.0177 310.175 741.8982 311 744.7889 310.237 747.4785 309.474 750.1682 307.254 752.1947 304.506 752.7088 300.77 753.407 297.116 751.1474 296.072 747.4915 295.028 743.8357 296.937 739.9857 300.478 738.6054Z"></path>
<path transform="translate(0,0)" style="stroke-linecap: round; fill: rgb(243,242,242)" stroke-linecap="round" d="M371.362 969.8149C374.96 967.9544 379.386 969.3447 381.269 972.9256 383.153 976.5165 381.786 980.9575 378.211 982.858 374.606 984.7785 370.126 983.3981 368.227 979.7773 366.328 976.1664 367.735 971.6953 371.362 969.8149Z"></path>
<path transform="translate(0,0)" style="stroke-linecap: round; fill: rgb(243,242,242)" stroke-linecap="round" d="M302.671 454.8511C305.107 453.6838 307.987 453.9439 310.173 455.5303 312.36 457.1157 313.503 459.7723 313.15 462.451 312.797 465.1296 311.006 467.4001 308.483 468.3654 304.796 469.7767 300.652 468.0263 299.092 464.3994 297.532 460.7715 299.111 456.5585 302.671 454.8511Z"></path>
<path transform="translate(0,0)" style="stroke-linecap: round; fill: rgb(243,242,242)" stroke-linecap="round" d="M295.011 785.7179C297.494 784.8047 300.276 785.2968 302.295 787.0052 304.314 788.7146 305.26 791.3773 304.771 793.9769 304.282 796.5775 302.434 798.714 299.932 799.5722 296.122 800.8785 291.97 798.8751 290.622 795.0782 289.274 791.2822 291.231 787.1082 295.011 785.7179Z"></path>
<path transform="translate(0,0)" style="stroke-linecap: round; fill: rgb(243,242,242)" stroke-linecap="round" d="M375.329 805.7698C379.074 805.0296 382.762 807.2782 383.82 810.946 384.879 814.6139 382.956 818.4818 379.393 819.8522 376.8 820.8494 373.866 820.2993 371.809 818.4308 369.752 816.5614 368.924 813.6927 369.669 811.0151 370.413 808.3374 372.603 806.3079 375.329 805.7698Z"></path>
<path transform="translate(0,0)" style="stroke-linecap: round; fill: rgb(243,242,242)" stroke-linecap="round" d="M217.201 873.9014C220.987 872.4011 225.274 874.2615 226.752 878.0624 228.229 881.8634 226.332 886.1344 222.524 887.5847 218.755 889.0251 214.534 887.1446 213.071 883.3937 211.608 879.6328 213.453 875.3918 217.201 873.9014Z"></path>
<path transform="translate(0,0)" style="stroke-linecap: round; fill: rgb(243,242,242)" stroke-linecap="round" d="M449.819 381.8423C459.989 384.761 460.365 392.8279 452.222 398.8584 442.369 396.4048 441.079 387.3016 449.819 381.8423Z"></path>
<path transform="translate(0,0)" style="stroke-linecap: round; fill: rgb(243,242,242)" stroke-linecap="round" d="M174.09 781.913C177.406 779.6544 181.923 780.4896 184.213 783.7854 186.503 787.0802 185.711 791.6063 182.438 793.9279 179.12 796.2804 174.521 795.4752 172.201 792.1354 169.88 788.7956 170.728 784.2035 174.09 781.913Z"></path>
<path transform="translate(0,0)" style="stroke-linecap: round; fill: rgb(243,242,242)" stroke-linecap="round" d="M196.149 692.9283C199.636 690.8538 204.145 692.014 206.198 695.5139 208.251 699.0147 207.063 703.5168 203.551 705.5493 200.07 707.5648 195.615 706.3895 193.579 702.9187 191.543 699.4478 192.691 694.9848 196.149 692.9283Z"></path>
<path transform="translate(0,0)" style="stroke-linecap: round; fill: rgb(243,242,242)" stroke-linecap="round" d="M255.299 968.7046C259.08 967.2242 263.337 969.1147 264.78 972.9156 266.224 976.7065 264.302 980.9475 260.499 982.3679 256.736 983.7582 252.549 981.8677 251.121 978.1168 249.693 974.3559 251.558 970.1549 255.299 968.7046Z"></path>
<path transform="translate(0,0)" style="stroke-linecap: round; fill: rgb(243,242,242)" stroke-linecap="round" d="M307.225 852.8063C309.385 851.2959 312.193 851.0559 314.573 852.1961 316.953 853.3364 318.535 855.667 318.713 858.2976 318.891 860.9282 317.637 863.4588 315.432 864.8992 312.094 867.0897 307.616 866.1995 305.375 862.8987 303.133 859.5879 303.957 855.0968 307.225 852.8063Z"></path>
<path transform="translate(0,0)" style="stroke-linecap: round; fill: rgb(243,242,242)" stroke-linecap="round" d="M286.089 672.6703C290.072 671.9992 293.843 674.6898 294.505 678.6748 295.168 682.6597 292.47 686.4266 288.484 687.0808 284.511 687.7319 280.76 685.0433 280.099 681.0713 279.439 677.0984 282.118 673.3405 286.089 672.6703Z"></path>
<path transform="translate(0,0)" style="stroke-linecap: round; fill: rgb(243,242,242)" stroke-linecap="round" d="M420.746 409.8741C423.23 408.9579 426.015 409.461 428.021 411.1885 430.028 412.9159 430.94 415.5955 430.405 418.1881 429.869 420.7818 427.97 422.8803 425.444 423.6715 421.67 424.8527 417.643 422.8083 416.368 419.0644 415.093 415.3195 417.036 411.2415 420.746 409.8741Z"></path>
<path transform="translate(0,0)" style="stroke-linecap: round; fill: rgb(243,242,242)" stroke-linecap="round" d="M411.52 629.0657C417.298 628.3565 419.941 628.1204 422.614 633.5718 422.749 637.9788 421.813 639.3991 420.007 643.2941 416.728 643.6572 416.239 643.6432 413.011 642.973 407.222 638.4829 408.635 635.1571 411.52 629.0657Z"></path>
<path transform="translate(0,0)" style="stroke-linecap: round; fill: rgb(243,242,242)" stroke-linecap="round" d="M401.615 671.587C405.265 669.8816 409.604 671.478 411.279 675.1409 412.955 678.8038 411.326 683.1318 407.65 684.7792 404.015 686.4076 399.747 684.8002 398.09 681.1773 396.433 677.5545 398.007 673.2724 401.615 671.587Z"></path>
<path transform="translate(0,0)" style="stroke-linecap: round; fill: rgb(243,242,242)" stroke-linecap="round" d="M150.072 921.8631C152.5 920.7829 155.325 921.113 157.434 922.7334 159.543 924.3537 160.599 926.9944 160.187 929.615 159.775 932.2456 157.96 934.4362 155.457 935.3264 151.783 936.6367 147.73 934.8163 146.281 931.1854 144.832 927.5645 146.507 923.4435 150.072 921.8631Z"></path>
<path transform="translate(0,0)" style="stroke-linecap: round; fill: rgb(243,242,242)" stroke-linecap="round" d="M472.633 409.8151C475.122 408.8039 477.968 409.262 480.014 411.0044 482.06 412.7468 482.967 415.4825 482.366 418.1021 481.765 420.7218 479.757 422.7903 477.156 423.4654 473.484 424.4206 469.7 422.3621 468.506 418.7593 467.312 415.1554 469.117 411.2445 472.633 409.8151Z"></path>
<path transform="translate(0,0)" style="stroke-linecap: round; fill: rgb(243,242,242)" stroke-linecap="round" d="M473.17 457.8639C484.237 457.6958 483.875 466.3789 477.878 473.3816 466.735 473.4306 466.426 464.9596 473.17 457.8639Z"></path>
<path transform="translate(0,0)" style="stroke-linecap: round; fill: rgb(243,242,242)" stroke-linecap="round" d="M417.616 738.7034C421.442 738.0023 425.128 740.4889 425.91 744.3008 426.693 748.1127 424.287 751.8506 420.493 752.7158 417.966 753.2919 415.325 752.4547 413.591 750.5293 411.856 748.6028 411.298 745.8892 412.134 743.4346 412.969 740.98 415.066 739.1706 417.616 738.7034Z"></path>
<path transform="translate(0,0)" style="stroke-linecap: round; fill: rgb(243,242,242)" stroke-linecap="round" d="M223.874 602.7452C226.314 601.827 229.061 602.3091 231.042 604.0055 233.023 605.701 233.924 608.3406 233.395 610.8942 232.865 613.4468 230.987 615.5093 228.495 616.2765 224.802 617.4128 220.875 615.4093 219.626 611.7524 218.377 608.0945 220.258 604.1066 223.874 602.7452Z"></path>
<path transform="translate(0,0)" style="stroke-linecap: round; fill: rgb(243,242,242)" stroke-linecap="round" d="M181.139 737.8302C184.466 736.0868 188.576 737.2241 190.535 740.4298 192.493 743.6366 191.629 747.8126 188.56 749.9791 186.386 751.5125 183.539 751.7095 181.175 750.4883 178.812 749.267 177.324 746.8314 177.316 744.1697 177.308 741.5091 178.782 739.0645 181.139 737.8302Z"></path>
<path transform="translate(0,0)" style="stroke-linecap: round; fill: rgb(243,242,242)" stroke-linecap="round" d="M234.36 540.8911C236.765 539.7889 239.582 540.112 241.675 541.7293 243.769 543.3467 244.792 545.9914 244.334 548.597 243.875 551.2026 242.009 553.3391 239.49 554.1443 235.904 555.2896 232.047 553.4441 230.688 549.9333 229.329 546.4215 230.938 542.4595 234.36 540.8911Z"></path>
<path transform="translate(0,0)" style="stroke-linecap: round; fill: rgb(243,242,242)" stroke-linecap="round" d="M225.71 825.5606C229.291 823.9502 233.5 825.5466 235.114 829.1275 236.727 832.7083 235.135 836.9194 231.556 838.5367 227.973 840.1551 223.757 838.5598 222.141 834.9749 220.526 831.39 222.124 827.174 225.71 825.5606Z"></path>
<path transform="translate(0,0)" style="stroke-linecap: round; fill: rgb(243,242,242)" stroke-linecap="round" d="M279.489 481.9488C282.992 480.3214 287.152 481.8127 288.824 485.2946 290.497 488.7774 289.061 492.9574 285.602 494.6758 283.324 495.8081 280.612 495.627 278.505 494.2007 276.398 492.7744 275.221 490.3248 275.425 487.7872 275.628 485.2505 277.181 483.02 279.489 481.9488Z"></path>
<path transform="translate(0,0)" style="stroke-linecap: round; fill: rgb(243,242,242)" stroke-linecap="round" d="M245.026 498.5658C248.609 497.6266 252.306 499.6291 253.477 503.1439 254.649 506.6587 252.894 510.4797 249.465 511.88 247.038 512.8712 244.26 512.4291 242.26 510.7327 240.26 509.0363 239.37 506.3677 239.951 503.8091 240.533 501.2514 242.489 499.23 245.026 498.5658Z"></path>
<path transform="translate(0,0)" style="stroke-linecap: round; fill: rgb(243,242,242)" stroke-linecap="round" d="M192.991 850.5957C196.634 849.4955 200.491 851.496 201.694 855.1068 202.897 858.7177 201.009 862.6286 197.434 863.9289 195.03 864.8092 192.339 864.309 190.408 862.6286 188.478 860.9482 187.613 858.3576 188.15 855.847 188.687 853.3464 190.542 851.3359 192.991 850.5957Z"></path>
<path transform="translate(0,0)" style="stroke-linecap: round; fill: rgb(243,242,242)" stroke-linecap="round" d="M164.821 829.7027C167.132 828.4203 169.968 828.5474 172.153 830.0327 174.339 831.5181 175.504 834.1067 175.164 836.7283 174.824 839.349 173.038 841.5555 170.546 842.4337 167.113 843.644 163.325 842.0216 161.832 838.7008 160.339 835.38 161.638 831.4691 164.821 829.7027Z"></path>
<path transform="translate(0,0)" style="stroke-linecap: round; fill: rgb(243,242,242)" stroke-linecap="round" d="M360.339 502.7288C362.837 501.9666 365.551 502.6588 367.379 504.5253 369.206 506.3907 369.843 509.1194 369.03 511.601 368.217 514.0835 366.09 515.906 363.513 516.3291 359.879 516.9252 356.404 514.6017 355.567 511.0138 354.73 507.426 356.816 503.8031 360.339 502.7288Z"></path>
<path transform="translate(0,0)" style="stroke-linecap: round; fill: rgb(243,242,242)" stroke-linecap="round" d="M410.606 780.8747C413.064 780.3146 415.632 781.1218 417.327 782.9882 419.022 784.8537 419.579 787.4893 418.786 789.8819 417.993 792.2755 415.972 794.0549 413.498 794.539 409.755 795.2702 406.117 792.8626 405.327 789.1307 404.537 785.3988 406.888 781.7229 410.606 780.8747Z"></path>
<path transform="translate(0,0)" style="stroke-linecap: round; fill: rgb(243,242,242)" stroke-linecap="round" d="M427.387 692.8522C431.142 692.3451 434.612 694.9367 435.192 698.6816 435.772 702.4255 433.249 705.9464 429.517 706.5995 427.038 707.0326 424.518 706.0924 422.928 704.1409 421.338 702.1895 420.926 699.5308 421.851 697.1903 422.776 694.8487 424.893 693.1893 427.387 692.8522Z"></path>
<path transform="translate(0,0)" style="stroke-linecap: round; fill: rgb(243,242,242)" stroke-linecap="round" d="M396.662 826.6609C399.06 825.8557 401.706 826.4249 403.562 828.1423 405.418 829.8607 406.189 832.4563 405.573 834.9099 404.956 837.3635 403.05 839.2849 400.602 839.9211 396.994 840.8583 393.292 838.7678 392.23 835.194 391.168 831.6201 393.128 827.8472 396.662 826.6609Z"></path>
<path transform="translate(0,0)" style="stroke-linecap: round; fill: rgb(243,242,242)" stroke-linecap="round" d="M480.579 365.9054C484.118 364.6531 488.006 366.4755 489.309 369.9964 490.613 373.5182 488.849 377.4332 485.348 378.7885 483.037 379.6837 480.424 379.2636 478.509 377.6902 476.594 376.1179 475.675 373.6343 476.104 371.1937 476.533 368.7521 478.243 366.7316 480.579 365.9054Z"></path>
<path transform="translate(0,0)" style="stroke-linecap: round; fill: rgb(243,242,242)" stroke-linecap="round" d="M427.668 528.015C432.767 527.8289 435.459 527.0167 438.47 531.6869 438.883 535.5418 437.688 537.0972 435.909 540.463 433.932 541.0501 431.924 541.1101 429.861 541.2882 426.356 539.6908 427.458 540.744 425.706 537.3462 425.499 532.9952 426.112 531.9209 427.668 528.015Z"></path>
<path transform="translate(0,0)" style="stroke-linecap: round; fill: rgb(243,242,242)" stroke-linecap="round" d="M257.498 649.8647C260.761 648.5924 264.453 650.0448 265.975 653.1995 267.498 656.3533 266.338 660.1482 263.312 661.9116 261.134 663.1809 258.428 663.1219 256.307 661.7576 254.187 660.3943 253.01 657.9557 253.262 655.4471 253.513 652.9375 255.15 650.781 257.498 649.8647Z"></path>
<path transform="translate(0,0)" style="stroke-linecap: round; fill: rgb(243,242,242)" stroke-linecap="round" d="M339.112 376.8211C342.377 375.1507 346.378 376.421 348.081 379.6698 349.784 382.9175 348.555 386.9325 345.325 388.6689 343.206 389.8092 340.639 389.7222 338.601 388.4429 336.564 387.1626 335.371 384.887 335.476 382.4834 335.582 380.0789 336.97 377.9173 339.112 376.8211Z"></path>
<path transform="translate(0,0)" style="stroke-linecap: round; fill: rgb(243,242,242)" stroke-linecap="round" d="M250.372 457.0227C253.532 455.1912 257.577 456.2385 259.452 459.3732 261.327 462.508 260.338 466.5679 257.232 468.4884 255.182 469.7547 252.609 469.8197 250.499 468.6574 248.388 467.4962 247.066 465.2866 247.04 462.8771 247.014 460.4675 248.287 458.2299 250.372 457.0227Z"></path>
<path transform="translate(0,0)" style="stroke-linecap: round; fill: rgb(243,242,242)" stroke-linecap="round" d="M447.379 607.9975C449.613 606.9943 452.216 607.2913 454.165 608.7727 456.115 610.2541 457.099 612.6826 456.731 615.1042 456.363 617.5248 454.702 619.5513 452.4 620.3865 449.019 621.6128 445.274 619.9454 443.923 616.6116 442.572 613.2778 444.099 609.4719 447.379 607.9975Z"></path>
<path transform="translate(0,0)" style="stroke-linecap: round; fill: rgb(243,242,242)" stroke-linecap="round" d="M440.297 648.6755C443.737 648.1733 446.951 650.5039 447.544 653.9307 448.137 657.3575 445.893 660.6323 442.484 661.3165 440.197 661.7756 437.841 660.9564 436.332 659.178 434.822 657.3985 434.397 654.941 435.221 652.7584 436.045 650.5759 437.989 649.0125 440.297 648.6755Z"></path>
<path transform="translate(0,0)" style="stroke-linecap: round; fill: rgb(243,242,242)" stroke-linecap="round" d="M380.696 654.6869C382.836 654.2978 385.02 655.089 386.415 656.7574 387.811 658.4258 388.203 660.7164 387.442 662.7539 386.681 664.7923 384.884 666.2637 382.736 666.6088 379.463 667.1349 376.377 664.9264 375.818 661.6586 375.258 658.3898 377.434 655.2801 380.696 654.6869Z"></path>
<path transform="translate(0,0)" style="stroke-linecap: round; fill: rgb(243,242,242)" stroke-linecap="round" d="M428.573 576.6019C429.553 576.8329 431.418 577.29 432.245 577.7711 433.949 578.7384 435.165 580.3798 435.595 582.2912 436.336 585.513 434.372 588.1496 432.656 590.6752 428.68 590.7973 429.774 591.3154 426.777 589.53 424.912 585.0909 426.942 581.163 428.573 576.6019Z"></path>
<path transform="translate(0,0)" style="stroke-linecap: round; fill: rgb(0,0,0)" stroke-linecap="round" d="M500.839 611.2114C524.823 614.9413 543.767 611.7315 562.092 595.0255 576.168 582.9266 582.319 555.7761 573.596 539.087 563.518 519.8054 551.944 511.3964 553.136 486.6835 558.671 371.999 689.553 386.5565 770.078 386.6355 846.728 386.7845 923.38 387.6857 1000.01 389.3391 1000.05 399.2025 1001.68 427.6593 994.95 433.9698 983.12 445.0455 981.75 441.8077 981.64 460.5562L981.89 528.2535C982.04 543.5651 983.29 560.6872 980.78 575.7518 979.72 582.1174 975.75 588.2238 971.26 592.6659 960.74 603.5145 945.87 604.6868 932.22 609.0358 920.09 612.8998 908.62 617.3768 896.11 620.2955 859.881 628.7526 820.926 631.1261 783.825 630.728 748.817 630.2089 713.924 626.57 679.561 619.8574 654.812 614.8832 624.997 604.1157 601.206 603.5625 583.19 605.541 561.022 615.4034 547.525 627.2412 542.884 631.3122 537.24 641.7767 535.976 646.7799 518.413 716.3016 506.02 787.1856 491.121 857.3254 488.745 868.5081 486.749 879.8408 485.144 891.1335 482.608 908.9178 481.455 926.8621 481.697 944.8164 481.931 963.881 483.512 986.2463 485.22 1005.2409L438.346 1005.2509C434.849 1001.7201 431.91 997.6691 429.632 993.248 410.429 955.759 444.568 863.777 453.158 821.1917 467.272 751.227 479.045 679.1247 500.839 611.2114ZM821.348 574.3275C758.981 580.2619 697.377 483.6207 684.545 431.1441 680.438 414.3491 673.322 407.4845 655.323 409.564 586.876 417.7279 557.429 481.4572 596.741 537.9328 639.668 585.7663 707.345 596.8499 769.859 600.4868 813.779 603.0414 902.43 599.8986 938.68 571.5798 948.79 563.1558 951.79 549.4235 952.27 537.0296 952.79 523.3353 951.48 509.899 951.11 496.4158 950.47 473.5923 954.72 450.6388 937.43 432.3904 921.78 415.8735 900.27 407.3754 877.53 407.0364 856.877 406.9143 836.059 406.5122 815.362 406.2532 791.598 405.9561 765.186 404.4437 741.641 405.465 736.482 407.6385 730.961 411.1834 729.546 416.9707 716.657 469.7114 754.713 522.17 793.759 553.4875 802.987 560.8893 813.383 566.8967 821.348 574.3275Z"></path>
<path transform="translate(0,0)" style="stroke-linecap: round; fill: rgb(0,0,0); fill-rule: evenodd" stroke-linecap="round" d="M 1638.93 53.1864 C 1635.05 53.3479 1631.6 53.4919 1628.94 53.4571 C 1611.18 53.5156 1603.1 53.0069 1597.45 56.4673 C 1591.7 59.991 1588.47 67.6302 1580.11 84.1745 C 1566.51 111.069 1540.02 123.351 1513.09 133.909 C 1512.47 165.956 1512.41 198.012 1512.91 230.061 L 1651.86 230.089 C 1647.66 223.473 1649.08 203.119 1651.31 195.628 C 1653.09 189.646 1655.31 187.826 1659.87 184.163 C 1674.41 183.465 1689.22 183.708 1704.02 183.95 C 1715.4 184.136 1726.78 184.322 1738.04 184.081 C 1741.4 184.009 1745 184.085 1748.7 184.163 C 1770.43 184.624 1795.64 185.159 1795.9 156.24 C 1795.95 150.71 1796.05 145.142 1796.15 139.555 C 1796.48 120.875 1796.81 101.973 1795.38 83.5253 C 1793.46 58.8646 1769.26 59.3877 1749.84 59.8076 C 1746.81 59.8731 1743.9 59.936 1741.21 59.9007 C 1731.65 59.82 1722.12 59.8282 1712.6 59.8364 C 1707.48 59.8408 1702.35 59.8451 1697.23 59.8357 C 1696.56 99.6953 1696.02 143.502 1694.08 183.07 L 1681.12 183.128 C 1680.16 150.894 1680.47 121.63 1680.78 91.0665 C 1680.89 80.8492 1681 70.4868 1681.06 59.8197 C 1675.18 51.676 1653.91 52.5624 1638.93 53.1864 Z"></path>
<path transform="translate(0,0)" style="stroke-linecap: round; fill: rgb(0,0,0)" stroke-linecap="round" d="M1512.53 246.9364C1556.61 245.422 1607.54 246.7323 1652.41 246.5973 1652.39 263.1262 1652.57 280.0383 1652.05 296.5573 1650.5 345.7781 1651.43 356.7127 1600.13 356.0235 1581.38 355.7875 1562.62 355.8105 1543.87 356.0915 1534.07 356.1726 1518.88 356.7397 1509.67 355.5524 1510.91 319.3547 1511.86 283.149 1512.53 246.9364Z"></path>
<path transform="translate(0,0)" style="stroke-linecap: round; fill: rgb(0,0,0)" stroke-linecap="round" d="M971.78 136.4884C978.61 135.4362 1012.27 136.0363 1020.94 136.0583L1125.06 136.3244 1494.97 136.6484C1494.87 167.8239 1495.06 198.9994 1495.55 230.1709 1412.4 229.2077 1327.55 230.0469 1244.25 230.0038L720.065 228.5835C722.82 211.8315 726.155 194.6424 729.171 177.9083 731.378 165.6704 734.037 148.9894 737.729 137.5327 750.359 136.6965 774.745 137.7507 788.642 137.7907L896.1 137.9247C920.97 137.9358 947.07 138.5149 971.78 136.4884Z"></path>
<path transform="translate(0,0)" style="stroke-linecap: round; fill: rgb(0,0,0); fill-rule: evenodd" stroke-linecap="round" d="M275.842 164.853C253.159 164.847 251.561 154.767 243.673 136.137 239.626 136.235 235.188 136.231 230.694 136.227 223.602 136.221 216.37 136.214 210.308 136.605 208.503 136.624 206.55 136.625 204.54 136.626 199.685 136.628 194.495 136.629 190.237 136.891 176.653 163.762 167.073 197.149 161.261 226.616L422.25 227.788C423.658 227.538 425.12 227.665 426.018 226.485 427.018 225.172 440.23 142.193 440.23 136.852 437.611 135.995 437.285 136.046 434.792 136.432 434.627 136.458 434.452 136.485 434.266 136.513 427.291 142.992 433.135 164.154 415.181 164.577 382.29 165.353 349.315 165.178 316.365 165.003 302.851 164.931 289.341 164.859 275.842 164.853ZM337.787 192.9C336.885 181.294 326.865 172.543 315.246 173.212 307.519 173.658 300.636 178.246 297.251 185.207 293.866 192.169 294.508 200.418 298.929 206.771 303.349 213.126 310.859 216.594 318.562 215.839 330.145 214.702 338.69 204.506 337.787 192.9Z"></path>
<path transform="translate(0,0)" style="stroke-linecap: round; fill: rgb(0,0,0)" stroke-linecap="round" d="M267.651 75.0764C278.057 74.3342 292.232 74.7673 302.922 74.7994 303.821 82.5692 305.003 100.2385 310.178 104.9546 328.881 122.0017 388.825 104.1584 410.748 115.086 416.098 117.7537 417.572 141.5434 417.805 149.8254 414.463 150.2395 410.643 150.4495 407.25 150.7186L315.753 150.7966C302.536 150.8066 277.837 151.5698 265.98 149.4323 250.697 130.5447 250.038 92.4916 267.651 75.0764Z"></path>
<path transform="translate(0,0)" style="stroke-linecap: round; fill: rgb(0,0,0)" stroke-linecap="round" d="M509.481 511.489C533.101 506.6918 556.129 521.9795 560.882 545.6141 565.635 569.2478 550.309 592.2533 526.672 596.9645 503.096 601.6636 480.168 586.3809 475.427 562.8083 470.686 539.2356 485.923 516.2741 509.481 511.489Z"></path>
<path transform="translate(0,0)" style="stroke-linecap: round; fill: rgb(0,0,0)" stroke-linecap="round" d="M638.222 135.3431C644.222 135.2611 650.836 135.7612 656.875 136.0873 651.403 162.8557 645.067 201.8701 641.38 229.0316L622.618 229.0846C626.088 204.8638 632.662 158.1346 638.222 135.3431Z"></path>
<path transform="translate(0,0)" style="stroke-linecap: round; fill: rgb(0,0,0)" stroke-linecap="round" d="M454.166 135.2541L471.917 135.6322C466.919 166.4886 462.089 197.373 457.429 228.2824L439.131 228.1594C443.364 198.8384 448.626 164.2351 454.166 135.2541Z"></path>
<path transform="translate(0,0)" style="stroke-linecap: round; fill: rgb(0,0,0)" stroke-linecap="round" d="M703.421 136.0683L721.447 136.0803C715.599 166.3576 710.458 198.5803 704.994 229.1166L687.747 229.0646C693.57 200.1497 698.462 165.5594 703.421 136.0683Z"></path>
<path transform="translate(0,0)" style="stroke-linecap: round; fill: rgb(0,0,0)" stroke-linecap="round" d="M671.349 136.0523L689.093 136.0643C684.262 157.3834 676.121 206.9403 673.565 228.8316L655.51 228.9336C661.317 198.1912 665.695 166.8767 671.349 136.0523Z"></path>
<path transform="translate(0,0)" style="stroke-linecap: round; fill: rgb(0,0,0)" stroke-linecap="round" d="M606.286 135.3921C611.709 135.3871 618.051 135.7992 623.543 136.0163L607.978 228.9256 591.031 229.0416C597.005 198.9824 600.268 165.8254 606.286 135.3921Z"></path>
<path transform="translate(0,0)" style="stroke-linecap: round; fill: rgb(0,0,0)" stroke-linecap="round" d="M575.43 135.2161L592.197 135.5792C587.023 158.5517 580.632 204.6068 576.993 229.0426L560.008 229.0296C564.86 198.7143 569.407 165.0433 575.43 135.2161Z"></path>
<path transform="translate(0,0)" style="stroke-linecap: round; fill: rgb(0,0,0)" stroke-linecap="round" d="M485.294 135.2431C490.866 135.2861 496.709 135.5692 502.3 135.7512 497.717 165.5434 493.002 199.8756 486.822 228.9836L470.61 228.9926C476.175 200.1907 480.781 164.6882 485.294 135.2431Z"></path>
<path transform="translate(0,0)" style="stroke-linecap: round; fill: rgb(0,0,0)" stroke-linecap="round" d="M515.901 135.2251L532.007 136.0363C526.349 162.8427 521.008 201.483 517.139 229.0166L500.91 229.0016C506.561 200.9469 511.422 163.999 515.901 135.2251Z"></path>
<path transform="translate(0,0)" style="stroke-linecap: round; fill: rgb(0,0,0)" stroke-linecap="round" d="M556.078 135.5682C559.442 135.6032 558.724 135.0791 560.857 136.7665 556.192 167.2258 551.291 197.6491 546.157 228.0334 543.766 229.5007 538.827 228.9296 535.75 228.8616L532.553 228.8366 531.144 227.3962C531.604 218.8292 534.874 200.7448 536.331 191.7697 539.251 173.7864 541.886 154.4767 545.367 136.6975 548.423 135.1261 552.467 135.5682 556.078 135.5682Z"></path>
<path transform="translate(0,0)" style="stroke-linecap: round; fill: rgb(0,0,0)" stroke-linecap="round" d="M318.323 74.9394L370.349 75.2825C372.177 83.1984 373.237 89.1718 374.415 97.2147 365.195 97.2667 326.694 98.272 320.74 95.7884 318.563 90.8122 318.634 80.8638 318.323 74.9394Z"></path>
<path transform="translate(0,0)" style="stroke-linecap: round; fill: rgb(0,0,0)" stroke-linecap="round" d="M614.906 247.8146C631.938 247.6576 649.219 247.8666 666.272 247.9446 654.807 252.7718 647.441 256.6277 637.303 263.7604 627.179 271.6353 619.913 279.5242 610.988 288.6274 610.877 271.8644 611.913 264.4456 614.906 247.8146Z"></path>
</svg>