<?xml version="1.0" encoding="UTF-8" standalone="no"?>
<!-- Generated by SVGMaker - https://svgmaker.io -->
<!-- Prompt: keep this style but draw a variable power rifle scope. - updated by SVGMaker Editor -->
<!-- Quality: medium -->
<!-- Type: edit -->
<!-- Created: 2026-03-25T17:01:56.495Z -->
<svg xmlns="http://www.w3.org/2000/svg" xmlns:xlink="http://www.w3.org/1999/xlink" version="1.1" width="1341" height="319" viewBox="24 293 1341 319">
<desc>Created with SVGMaker Editor 3.0.0</desc>
<defs>
</defs>
<path transform="translate(0,0)" style="stroke-linecap: round; fill: rgb(0,0,0)" stroke-linecap="round" d="M118.6063 380.0421C175.7933 378.5497 249.0173 379.939 307.2373 380.5962 320.8863 380.7502 361.4853 401.4432 378.1403 405.6362 383.4243 406.9675 421.9823 419.6096 426.5003 426.1761 428.7233 462.2328 429.7063 503.0586 426.0733 538.8222 425.3843 545.6128 391.1083 555.1091 383.7123 557.6667L336.9013 574.2597C306.0123 585.2373 303.0523 585.8034 270.1053 585.8184L215.9603 585.7904 159.3073 585.8325C147.4253 585.8355 134.3173 586.8667 122.6413 584.6142 118.3043 583.777 115.5433 583.0628 112.9523 579.1779 95.3803 552.8265 99.7003 436.8317 106.0313 404.3689 107.9363 394.5966 109.9913 385.8495 118.6063 380.0421Z"></path>
<path transform="translate(0,0)" style="stroke-linecap: round; fill: rgb(0,0,0)" stroke-linecap="round" d="M1049.6484 386.3806C1105.1284 387.1708 1160.7184 386.5376 1216.2184 386.4916 1235.2584 386.4756 1271.9884 384.3051 1289.5284 387.6409 1291.3684 387.99 1292.6184 389.1652 1293.5883 390.7346 1305.8784 410.5704 1302.2684 541.8889 1295.6284 567.7441 1294.3184 570.2227 1292.2984 573.9186 1289.7184 575.2129 1285.8684 577.1403 1080.9684 576.9743 1059.8884 576.0411 1054.9584 575.823 1050.1184 575.2049 1045.3684 573.8616 1044.2184 569.9546 1043.8284 564.8714 1043.8984 560.7804 1044.8483 508.5919 1046.1484 456.1543 1043.4784 404.0068 1043.1284 397.0351 1042.9084 389.6864 1049.6484 386.3806Z"></path>
<path transform="translate(0,0)" style="stroke-linecap: round; fill: rgb(0,0,0)" stroke-linecap="round" d="M570.0423 406.2544C587.3013 405.6682 700.5283 404.1148 706.2783 408.0508 710.3783 410.8475 711.5383 419.5315 712.6984 424.1637 723.2383 425.2929 740.2883 424.8018 751.1884 424.7928L814.9683 424.6258C824.3184 424.5437 845.3783 423.6785 853.3783 425.628 859.6083 431.4054 856.3084 457.3036 857.0584 465.6896 857.8483 474.6588 856.3184 478.6647 852.6984 486.3336 847.1884 498.0144 855.6984 533.2958 847.7683 542.5281 840.5983 545.6588 811.4983 544.4585 802.2083 544.4075 776.2883 544.3065 737.0283 543.1492 712.0684 544.7446 711.5283 547.0411 710.9783 549.3507 710.2783 551.6072 709.1583 555.2671 707.1283 558.3108 703.5483 559.9492 698.2983 562.3458 574.3524 562.0367 570.4233 560.0553 564.8223 557.2306 563.1064 550.2469 561.0403 544.7966 553.7894 543.7463 536.6243 546.0569 532.1103 540.9877 526.7103 525.738 531.8703 482.9848 530.2723 464.9864 529.4853 456.1303 530.3764 441.8019 530.2323 432.7637 530.0033 418.4253 553.1133 428.2876 560.5753 423.3755 564.7523 420.5448 562.6644 412.0217 570.0423 406.2544ZM643.4903 544.1634C678.1483 539.3803 702.2883 507.2906 697.2783 472.6563 692.2783 438.021 660.0383 414.0832 625.4453 419.3145 591.1663 424.4967 567.4993 456.3864 572.4593 490.7056 577.4194 525.0249 609.1473 548.9036 643.4903 544.1634ZM821.0083 524.5097C820.5483 522.6343 820.7483 521.63 819.3084 521.0059 814.2983 518.8324 800.6383 519.9246 795.1784 520.3897 795.8883 522.8833 795.6784 524.2297 797.9583 525.2209 803.7683 527.7485 815.1683 525.8541 821.0083 524.5097Z"></path>
<path transform="translate(0,0)" style="stroke-linecap: round; fill: rgb(0,0,0)" stroke-linecap="round" d="M624.7743 432.3266C652.3063 426.8883 678.9883 444.9636 684.1483 472.5543 689.3183 500.1449 670.9803 526.6492 643.3473 531.5424 616.0963 536.3676 590.0453 518.3402 584.9523 491.1317 579.8593 463.9242 597.6243 437.6899 624.7743 432.3266Z"></path>
<path transform="translate(0,0)" style="stroke-linecap: round; fill: rgb(0,0,0)" stroke-linecap="round" d="M956.1484 386.4586C967.3684 386.7037 1022.2384 383.898 1027.8583 389.0482 1032.1784 400.746 1031.3483 449.5137 1029.4684 463.7171 1028.5784 470.4688 1005.8384 480.2531 997.3684 485.5884 1007.8284 492.451 1020.0484 496.576 1029.9384 504.777 1031.4884 514.4053 1031.6284 568.2122 1028.9484 576.4732 1027.0784 577.4294 1025.0784 578.0836 1022.9984 578.4107 1004.4484 581.1933 970.4984 577.6075 950.9684 577.9115 936.7184 576.0411 922.5384 563.4291 922.2884 549.1466 921.5184 503.9538 920.3284 458.0978 923.1984 413.127 924.1484 398.2314 942.3584 387.7559 956.1484 386.4586ZM988.7184 450.9891C1003.4784 431.8015 961.4484 437.1108 951.8384 437.4398 937.7384 457.0045 978.4684 451.2942 988.7184 450.9891ZM989.7184 528.1556C991.6084 525.2499 991.8284 525.1179 991.8384 521.7891 986.9484 514.2363 960.0284 517.231 951.0784 517.443 949.3084 520.5638 949.0184 520.7678 949.0584 524.2187 953.8084 531.9935 980.8884 528.8048 989.7184 528.1556ZM989.7284 556.5004L991.6384 554.747 991.4184 552.5044C985.5484 548.7015 958.9284 550.3449 951.1684 550.543L948.6784 552.0183 948.5184 553.5547C953.3884 558.5859 982.0184 557.5056 989.7284 556.5004ZM987.9884 490.6526C1000.2584 470.0277 962.7884 475.8981 951.4184 476.2361 937.9384 497.1552 978.3584 492.0859 987.9884 490.6526ZM989.4884 413.8432L991.3184 411.9567 990.7784 410.0243C984.4184 406.5334 960.5684 408.1158 952.4284 408.3919L950.3284 410.4073 950.5184 412.3878C955.4284 415.1305 982.2084 414.0452 989.4884 413.8432Z"></path>
<path transform="translate(0,0)" style="stroke-linecap: round; fill: rgb(0,0,0)" stroke-linecap="round" d="M581.2034 294.489C596.1573 294.4679 694.4883 292.1734 700.2383 296.3134 701.3383 297.1076 701.7483 299.6412 701.9983 300.9425 703.9783 311.533 701.9883 324.3491 702.0983 335.2327 702.2583 350.5454 703.8483 366.3912 703.0183 381.6459 702.8683 384.3225 702.6784 386.47 701.1083 388.7346 698.2283 390.731 696.7083 390.489 693.2083 390.707 677.5283 390.716 574.8324 392.1074 568.2944 388.5945 565.8443 383.4433 567.1943 365.1719 567.7623 358.7604 568.8593 346.4004 564.3723 303.8882 570.7473 296.2854 574.2343 294.1679 577.0513 294.559 581.2034 294.489ZM645.2083 357.142C646.4363 356.8089 647.7733 356.8819 648.0494 355.6116 650.0054 346.5955 649.7473 334.8426 648.3093 325.7575 647.5743 321.1063 638.4814 322.3036 634.8193 322.4557 632.9133 323.1998 631.3564 323.3159 630.9133 325.4684 629.1633 333.9714 630.2253 348.2048 630.4774 356.9519L645.2083 357.142ZM603.0943 357.12C604.9883 356.2238 606.9764 355.9137 607.3193 353.6471 608.1873 347.9058 608.6633 341.6693 608.3223 335.8489 607.5653 322.9028 607.6193 321.7695 594.9583 322.4807 593.3234 322.9428 590.9103 323.1768 590.3313 325.0383 588.3053 331.5528 586.4183 352.4128 591.8514 356.5798 596.4484 357.331 598.4693 357.22 603.0943 357.12ZM682.6784 357.31C685.0083 350.0333 686.5083 328.104 679.5183 322.8498 676.8284 322.3846 675.9083 322.2256 673.1984 322.2166 669.9843 327.1618 669.8073 351.5056 672.7813 356.3138 676.2783 357.7091 678.8983 357.364 682.6784 357.31Z"></path>
<path transform="translate(0,0)" style="stroke-linecap: round; fill: rgb(0,0,0)" stroke-linecap="round" d="M41.7524 380.1761C51.9344 379.5319 82.8503 377.8525 91.4014 380.5542 92.6164 380.9383 93.1594 381.1043 93.7383 382.2926 95.0763 385.0423 88.1114 424.5907 87.4684 431.9765 84.1903 468.0902 84.4823 504.4409 88.3414 540.4976 89.5643 550.9801 93.9223 570.4357 93.4154 581.0093 93.3263 582.8717 90.7124 583.5989 89.2083 584.105 58.9524 584.3061 29.8334 592.389 27.4614 552.6215 24.3604 500.636 21.2994 444.8556 30.2974 393.4803 31.3484 387.4828 36.5954 382.7527 41.7524 380.1761Z"></path>
<path transform="translate(0,0)" style="stroke-linecap: round; fill: rgb(0,0,0)" stroke-linecap="round" d="M447.4874 392.1819C458.7154 391.3657 515.2384 390.1074 522.2764 395.0035 527.2514 401.8502 526.2854 408.2667 526.0164 416.2536 525.2903 437.8718 511.8834 432.1295 500.5344 442.0108 491.2374 458.3457 507.3004 463.471 516.7184 468.3982 521.5213 470.9108 522.7604 487.5628 522.4404 492.78 521.7903 503.3956 523.3464 514.4102 515.0204 522.7172 506.8964 525.3818 468.0744 523.3833 456.7923 524.1525 453.7994 524.3566 448.5814 522.9843 446.3924 520.0916 440.5814 512.4157 441.3214 491.7107 442.4344 482.5796 444.7814 463.3299 450.9534 467.2429 463.9534 460.1892 466.7464 458.6748 467.5514 452.8824 467.9704 449.4996 469.7794 435.5233 450.7563 440.1544 444.2744 430.4951 436.7144 419.2294 436.7024 400.927 447.4874 392.1819Z"></path>
<path transform="translate(0,0)" style="stroke-linecap: round; fill: rgb(0,0,0)" stroke-linecap="round" d="M1328.1984 386.4916C1334.6784 386.3856 1341.2184 386.0585 1347.2784 388.7492 1353.0784 391.3288 1356.8684 395.7788 1359.0284 401.6863 1361.5584 408.6089 1362.7184 415.9067 1363.3184 423.2254 1365.0284 444.0224 1365.8383 546.2069 1358.6083 561.4926 1354.9084 569.3245 1349.7284 572.3982 1341.8583 575.1959 1335.9284 576.5442 1318.2684 576.6172 1312.4684 575.2009 1307.7184 570.8348 1312.8583 555.6602 1313.1284 548.4925 1315.1484 495.7798 1315.1484 442.7731 1311.1284 390.1835 1311.1284 390.1835 1312.5184 388.082 1312.6484 387.8779 1316.5184 385.8735 1323.4984 386.4666 1328.1984 386.4916ZM1348.9684 489.8444C1349.5983 485.9565 1350.4584 483.2628 1349.1284 479.638 1344.4684 475.547 1339.5684 477.0573 1332.7784 477.5004L1330.9984 477.6195C1330.5084 481.4964 1329.6884 484.2861 1331.3084 487.7099 1334.5184 490.6856 1335.9784 490.4295 1340.4284 490.2695 1343.2784 490.1605 1346.1284 490.0184 1348.9684 489.8444ZM1330.5584 442.9251L1330.6083 454.2709C1336.3984 454.3509 1342.4084 454.5259 1348.1784 454.4849 1348.3383 450.2999 1349.0584 447.1082 1346.6884 443.9404 1342.5584 441.4458 1335.7584 442.6431 1330.5584 442.9251ZM1347.5484 521.7771C1348.4884 518.1532 1349.4184 516.2697 1348.1984 512.8019 1343.5983 508.982 1336.7784 510.5684 1330.2984 510.9725L1330.4584 521.357C1336.7284 521.8041 1341.2084 522.1812 1347.5484 521.7771ZM1330.1184 541.9159C1329.9184 546.2119 1329.1384 549.8338 1331.4084 553.2026 1335.7784 555.6962 1340.2984 554.4809 1344.7584 552.2204 1346.1184 547.8073 1347.0784 547.2262 1346.1083 543.2452 1342.8383 541.0317 1334.7984 541.9419 1330.1184 541.9159ZM1330.4684 420.7328C1335.2984 420.8599 1340.7784 421.1299 1345.5484 421.0179 1344.1684 408.6489 1342.3684 407.8217 1330.0883 407.8077L1330.4684 420.7328Z"></path>
<path transform="translate(0,0)" style="stroke-linecap: round; fill: rgb(0,0,0)" stroke-linecap="round" d="M873.1783 423.4275C880.7783 422.8814 903.8383 421.9441 909.7983 424.5898 914.7683 433.0228 910.4283 525.9071 911.4983 542.43 911.6283 544.4715 908.2783 545.7508 906.7083 546.442 902.1183 546.556 873.3283 548.3195 869.4083 544.5015 868.2083 543.3443 867.8283 531.9645 867.8283 528.6827 867.8883 495.2127 867.2683 461.5286 868.0483 428.0706 868.0983 425.769 871.5483 424.3647 873.1783 423.4275Z"></path>
<path transform="translate(0,0)" style="stroke-linecap: round; fill: rgb(0,0,0)" stroke-linecap="round" d="M787.6684 554.3543C798.9284 553.244 842.6084 552.2918 852.8484 557.035 856.6484 558.7684 860.9284 565.454 861.3684 569.75 862.9184 584.9146 867.5584 607.5041 848.5184 611.9411 827.3184 612.1122 804.4884 613.3695 783.5984 610.9009 770.7684 609.3855 772.8284 589.3207 772.9484 580.3005 773.1184 566.8833 774.2084 559.8826 787.6684 554.3543Z"></path>
<path transform="translate(0,0)" style="stroke-linecap: round; fill: rgb(0,0,0)" stroke-linecap="round" d="M448.6803 557.271C467.8373 555.8727 489.3483 556.8979 508.4913 557.047 522.4033 557.9002 527.3593 567.7325 526.4883 580.5236 525.6043 593.4987 530.2963 603.8102 517.3803 611.5 499.1393 613.6535 476.1473 611.329 457.6643 611.9861 440.9743 612.5793 438.7113 601.0625 439.5053 587.3542 440.2733 574.1081 436.9163 566.7013 448.6803 557.271Z"></path>
<path transform="translate(0,0)" style="stroke-linecap: round; fill: rgb(0,0,0)" stroke-linecap="round" d="M446.5044 528.1908C461.0024 527.3716 476.3304 528.0128 490.9224 527.7317 499.2004 527.5717 520.7063 525.5982 520.9614 537.132 519.2163 540.6448 518.8583 541.7541 515.6794 544.1627L514.6124 544.2997C505.7514 545.386 422.8734 551.7435 446.5044 528.1908Z"></path>
</svg>