<?xml version="1.0" encoding="UTF-8" standalone="no"?>
<!-- Generated by SVGMaker - https://svgmaker.io -->
<!-- Prompt: lets try rendering a bolt in stead of a screw - updated by SVGMaker Editor -->
<!-- Quality: medium -->
<!-- Type: edit -->
<!-- Created: 2026-03-25T17:05:48.975Z -->
<svg xmlns="http://www.w3.org/2000/svg" xmlns:xlink="http://www.w3.org/1999/xlink" version="1.1" width="203" height="302" viewBox="148 19 203 302">
<desc>Created with SVGMaker Editor 3.0.0</desc>
<defs>
</defs>
<path transform="translate(0,0)" style="stroke-linecap: round; fill: rgb(9,9,8)" stroke-linecap="round" d="M236.5163 59.8214C248.262 59.2746 279.7191 58.5792 289.0096 64.8569 292.1048 69.9681 290.5143 91.0412 290.6953 98.0053 290.8143 102.5578 291.3334 124.1501 289.6239 126.6397 285.8143 132.1924 268.362 133.1475 261.3429 133.7829 246.0096 134.1477 222.7239 135.7024 208.9249 128.1387 206.5006 126.8097 207.0225 96.8031 207.1506 92.7145 207.4049 84.5987 205.8797 71.5317 208.8435 64.652 210.5882 60.602 232.792 59.9481 236.5163 59.8214Z"></path>
<path transform="translate(0,0)" style="stroke-linecap: round; fill: rgb(9,9,8)" stroke-linecap="round" d="M237.5887 19.2837C271.6382 18.9279 306.0762 20.4502 338.0714 33.2323 343.0095 35.2047 347.1048 37.2351 351.3952 40.4349 344.7381 43.0165 338.3048 43.8549 331.5857 45.5762 307.7 51.6943 286.7667 52.6379 262.4525 53.772 230.5544 54.0611 200.5078 53.3399 169.3287 45.8334 162.7659 44.253 154.6269 42.9579 148.4416 40.4435 167.0897 24.8641 214.0135 20.4312 237.5887 19.2837Z"></path>
<path transform="translate(0,0)" style="stroke-linecap: round; fill: rgb(9,9,8)" stroke-linecap="round" d="M148.9111 43.5698C155.432 44.8577 165.2658 49.1397 171.6672 51.6169 179.1187 54.5005 192.3406 57.9218 197.5996 63.6474 198.1905 70.0123 197.8539 79.3955 197.8429 86.0294L197.8001 124.6273 197.4801 125.8228C192.9953 127.4184 155.7111 117.0192 150.6173 111.817 148.1249 109.2716 148.8673 89.5089 148.8687 85.3126L148.9111 43.5698Z"></path>
<path transform="translate(0,0)" style="stroke-linecap: round; fill: rgb(9,9,8)" stroke-linecap="round" d="M349.5715 43.8637C350.0477 43.7699 350.3763 43.8632 350.8953 43.917 351.7524 45.7313 351.4715 52.5538 351.4667 54.8739L351.3429 77.275C351.3191 83.9713 352.4953 106.4419 350.0953 110.7311 346.5572 117.0655 311.4811 125.1083 304.4477 126.0761L303.643 126.0976C301.6287 122.5963 303.7382 75.7346 302.6334 68.5495 301.2144 59.2841 316.0572 56.5296 322.9953 53.6217 331.0191 50.2566 340.7429 46.2485 349.5715 43.8637Z"></path>
<path transform="translate(0,0)" style="stroke-linecap: round; fill: rgb(9,9,8)" stroke-linecap="round" d="M311.1339 208.3722L312.4972 208.7652C313.5315 210.109 313.8312 210.9562 314.0251 212.655 315.6 224.82 297.9237 230.0553 288.4274 232.5044 264.1813 238.753 209.6328 243.4571 189.3668 227.5168 186.8546 224.1702 185.5706 218.3701 188.2755 214.8534 191.8343 212.9828 192.5835 217.1396 196.6659 218.7363 223.6739 229.3001 290.2256 227.2633 311.1339 208.3722Z"></path>
<path transform="translate(0,0)" style="stroke-linecap: round; fill: rgb(9,9,8)" stroke-linecap="round" d="M310.987 228.8079C311.3219 228.9116 312.221 229.456 312.5795 229.6567 315.0828 233.2103 314.4776 239.1505 311.5217 242.1421 301.9079 251.8774 280.2768 256.1834 267.0666 257.4695 245.741 259.5459 207.2787 262.2546 189.6018 248.8381 187.018 245.4643 185.7722 240.8096 187.6462 236.8523 191.0809 233.8726 190.9463 236.5586 194.6784 238.8125 203.7376 244.2827 222.3787 246.1935 232.8364 246.1057 256.4303 245.9083 293.0286 245.3492 310.987 228.8079Z"></path>
<path transform="translate(0,0)" style="stroke-linecap: round; fill: rgb(9,9,8)" stroke-linecap="round" d="M271.6678 305.9192C282.9388 303.9544 297.3361 301.2605 306.1095 294.1823 306.991 293.4713 310.2407 291.3029 311.3513 290.4138 311.7627 290.6497 312.174 290.8856 312.5854 291.1215 325.6134 314.7376 255.2197 322.1708 242.2211 321.4569 228.9127 320.726 215.6949 321.5578 202.6616 317.1078 198.9618 315.9976 190.5491 312.7224 188.7045 309.1189 187.0379 305.8631 185.882 300.1661 188.2984 297.0367 191.8202 296.0155 193.6477 300.8795 198.859 302.7875 218.8123 310.0942 245.9702 309.4195 266.667 306.5123 267.8599 306.6966 270.3574 306.1438 271.6678 305.9192Z"></path>
<path transform="translate(0,0)" style="stroke-linecap: round; fill: rgb(9,9,8)" stroke-linecap="round" d="M311.2984 187.462L312.5912 187.9064C313.4139 188.9084 313.7313 189.4919 313.9252 190.7932 316.7576 209.6429 276.1692 214.7366 263.4408 215.6495 243.5198 217.0772 205.162 218.9836 189.0565 206.0474 186.6906 202.8647 185.989 197.5896 187.8777 194.0632 191.4523 191.2984 190.7277 194.4114 195.2214 196.8401 205.5563 202.0737 222.6344 203.9715 234.1557 203.8802 256.4714 203.7039 294.3684 202.8584 311.2984 187.462Z"></path>
<path transform="translate(0,0)" style="stroke-linecap: round; fill: rgb(9,9,8)" stroke-linecap="round" d="M311.3983 167.5723L312.0565 167.7078C315.171 170.2957 314.3953 177.6637 311.698 180.1286 300.474 190.4059 275.6226 193.8733 261.0256 194.9178 242.2798 196.2599 204.8529 197.8885 189.8727 185.6849 186.6066 182.2181 185.1822 176.5353 189.4678 173.3208 191.3553 173.1881 191.0033 173.2908 192.9684 174.7889 199.3361 179.6455 210.2275 181.1169 218.2147 181.7968 242.8969 183.8965 291.4537 183.5858 311.3983 167.5723Z"></path>
<path transform="translate(0,0)" style="stroke-linecap: round; fill: rgb(9,9,8)" stroke-linecap="round" d="M287.7281 281.8886C293.4635 279.989 297.9883 278.6922 303.377 275.9484 306.8735 274.1656 309.8939 270.0309 311.698 269.8001 313.3258 271.2154 314.219 273.8645 314.2072 275.9234 314.125 286.2479 296.6544 292.1852 288.6272 294.4091 270.0636 299.5243 251.1297 300.7774 231.8639 300.2529 218.0619 299.8775 200.6371 298.9028 189.7246 289.6897 186.3045 286.8019 185.8456 280.3905 188.7668 277.0257L189.9509 276.6254C191.3107 277.5871 197.4251 281.9061 198.5657 282.3575 203.8862 284.4623 216.004 287.0088 221.6448 286.9198 228.3321 287.8327 247.5862 288.1032 254.3206 286.8886 260.626 287.1466 274.0948 284.6511 280.694 283.4853L287.7281 281.8886Z"></path>
<path transform="translate(0,0)" style="stroke-linecap: round; fill: rgb(9,9,8)" stroke-linecap="round" d="M311.1456 249.1643L312.4032 249.9133C314.9653 253.7674 314.3365 259.9485 310.8577 262.9498 296.4898 275.3575 268.8824 278.4671 250.5832 279.5547 233.4763 280.5719 202.849 280.7432 189.5895 269.2858 186.2623 265.6347 185.218 259.0543 189.7681 255.8898 191.7414 256.1018 191.4934 256.9172 192.9778 258.1658 201.8929 265.6597 222.9805 267.0676 234.0616 266.9491 258.1932 266.6922 292.864 266.2868 311.1456 249.1643Z"></path>
<path transform="translate(0,0)" style="stroke-linecap: round; fill: rgb(9,9,8)" stroke-linecap="round" d="M311.2279 149.5045L312.5089 149.9122C321.8642 160.6647 295.626 168.3219 288.6448 169.7281 263.4409 174.8059 213.1016 179.5355 190.6061 166.2448 187.1561 163.4052 184.7973 156.8974 189.184 153.9114 191.6092 153.6307 199.8468 158.0338 202.9566 158.5515 234.148 163.7443 282.9271 164.0459 311.2279 149.5045Z"></path>
<path transform="translate(0,0)" style="stroke-linecap: round; fill: rgb(9,9,8)" stroke-linecap="round" d="M311.6569 137.7251L313.0907 137.8929 313.7313 139.0576C313.7607 144.5515 306.18 146.8939 301.6023 147.9911 276.416 154.0327 214.0859 159.4616 191.3859 147.0045 188.8749 145.2048 186.8675 142.4875 187.7566 139.3502 188.1045 139.0893 188.5305 138.7701 189.0342 138.393 192.3437 139.289 197.0067 140.7626 200.2252 141.4731 204.0772 142.3236 210.3473 143.6686 214.0248 143.9 221.8228 144.3905 230.9918 144.5657 238.7833 144.5611 259.3215 144.5492 292.7524 145.1667 311.6569 137.7251Z"></path>
<path transform="translate(0,0)" style="stroke-linecap: round; fill: rgb(9,9,8); fill-opacity: 0.09" stroke-linecap="round" d="M221.6448 286.9198C228.4314 286.2013 231.7351 284.8456 239.0654 285.0457 244.9771 285.2079 248.7615 286.6567 254.3206 286.8886 247.5862 288.1031 228.3321 287.8327 221.6448 286.9198Z"></path>
<path transform="translate(0,0)" style="stroke-linecap: round; fill: rgb(9,9,8); fill-opacity: 0.09" stroke-linecap="round" d="M266.667 306.5123C263.9873 305.846 260.8552 306.713 257.4175 304.8554 262.0011 304.3287 266.4907 302.7739 270.4808 304.5419L270.5337 305.0907 271.6678 305.9191C270.3574 306.1437 267.8599 306.6966 266.667 306.5123Z"></path>
<path transform="translate(0,0)" style="stroke-linecap: round; fill: rgb(9,9,8); fill-opacity: 0.05" stroke-linecap="round" d="M280.6941 283.4853C279.8243 282.4176 279.4071 282.3779 278.1025 281.8931L277.6677 281.7371 277.2975 280.8464 279.554 280.2493 279.3719 280.4625C282.5099 279.7282 285.0132 278.4858 287.734 280.3644L287.7281 281.8886 280.6941 283.4853Z"></path>
</svg>