<?xml version="1.0" encoding="UTF-8" standalone="no"?>
<!-- Generated by SVGMaker - https://svgmaker.io -->
<!-- Prompt: image has been manually edited -->
<!-- Quality: medium -->
<!-- Type: crafted -->
<!-- Created: 2026-03-25T17:05:25.327Z -->
<svg xmlns="http://www.w3.org/2000/svg" xmlns:xlink="http://www.w3.org/1999/xlink" version="1.1" width="53" height="141" viewBox="98 11 53 141">
<desc>Created with SVGMaker Editor 3.0.0</desc>
<defs>
</defs>
<path transform="translate(0,0)" style="stroke-linecap: round; fill: rgb(29,29,29)" stroke-linecap="round" d="M121.432 11.3078C130.876 10.416 136.7375 14.7719 141.8614 22.5268 146.6387 29.7576 148.5529 38.2945 149.9184 46.7178 150.2141 48.5427 151.4187 50.6987 151.7293 52.5767 152.1256 57.0405 151.9872 62.0678 151.9835 66.5746L151.9584 92.669 152.0259 115.5472C152.0372 118.9844 152.2181 123.6613 151.7711 127.0894 151.4941 129.2111 148.9869 130.5356 147.2111 131.6571 147.7729 133.4363 148.1681 134.2517 149.145 135.843 159.635 152.944 135.126 152.544 125.1263 152.744 118.8042 152.553 109.3678 152.5045 103.6163 149.6099 94.9669 145.2604 100.4475 137.3645 103.4472 131.3995 101.7266 130.1537 99.8063 128.9838 99.079 126.8711 98.4527 125.0495 98.2421 58.6239 98.8381 53.6834 99.1366 51.2094 99.8711 48.7695 100.3651 46.3283 101.8827 38.831 103.2448 31.86 106.802 24.9929 110.1099 18.6074 114.4075 13.5432 121.432 11.3078ZM107.5978 122.4034L115.636 122.9066 115.6214 65.1788C113.0117 64.6702 110.0663 64.0122 107.5905 63.028 107.4839 82.8194 107.4863 102.6108 107.5978 122.4034ZM141.3999 57.0481C142.999 56.3767 143.9953 55.198 143.4935 53.3814 141.8357 51.5725 132.6638 53.0684 129.7026 53.1338 122.6632 53.2899 115.9848 52.5328 109.0366 52.2964 108.0475 53.1105 108.3251 52.6943 107.9214 53.8476 108.0893 54.7033 108.2184 55.6138 109.1572 56.0461 116.3569 59.3626 134.3835 58.9128 141.3999 57.0481ZM109.2063 45.1113C111.2145 45.2728 113.7239 45.5447 115.7011 45.559 116.4411 39.8076 116.9769 34.9713 118.7417 29.3793 119.3972 27.3019 122.1248 21.5572 122.4248 20.1168 113.1184 23.1497 110.0066 35.9643 108.8645 44.6294 109.0111 44.89 109.0114 45.0043 109.2063 45.1113ZM135.7705 137.2736C136.419 136.0188 137.1105 134.4063 135.7138 133.4545 134.1938 133.4818 132.9166 133.6515 131.4269 133.7485 123.899 134.2365 116.2911 133.7546 108.8108 132.9635 108.7054 133.9577 108.4514 135.2246 109.0757 136.1128 110.1469 137.6404 114.4214 137.7859 116.1772 137.9495 119.7275 138.2739 132.8966 138.4769 135.7705 137.2736ZM132.1432 146.6062C132.8417 145.5756 133.0108 145.3937 133.1523 144.1722 133.0708 143.9631 132.8778 143.2599 132.6551 143.2599 124.3811 143.2357 116.4999 142.678 108.2584 141.9475 107.3848 144.6178 109.4408 145.6453 111.7851 146.0303 118.1623 147.079 125.7332 147.4397 132.1432 146.6062Z"></path>
</svg>