<?xml version="1.0" encoding="UTF-8" standalone="no"?>
<!-- Generated by SVGMaker - https://svgmaker.io -->
<!-- Prompt: Keep this style but draw an Smith and Wesson XVR 460 revolver - updated by SVGMaker Editor -->
<!-- Quality: medium -->
<!-- Type: edit -->
<!-- Created: 2026-03-25T17:01:22.787Z -->
<svg xmlns="http://www.w3.org/2000/svg" xmlns:xlink="http://www.w3.org/1999/xlink" version="1.1" width="1547" height="741" viewBox="52 180 1547 741">
<desc>Created with SVGMaker Editor 3.0.0</desc>
<defs>
</defs>
<path transform="translate(0,0)" style="stroke-linecap: round; fill: rgb(0,0,0)" stroke-linecap="round" d="M392.258 244.3922C405.888 243.838 427.734 244.8223 442.012 244.8883L548.178 245.0363 700.245 245.0953C728.272 245.0893 756.308 244.9803 784.331 245.2194 792.805 245.2924 801.398 245.2094 802.405 255.8329 803.465 266.9376 803.115 278.0903 803.125 289.2439L803.005 351.7599C802.935 370.2294 805.215 411.1532 801.675 427.5941 798.726 441.2944 783.699 446.4857 782.258 461.1172 780.867 475.2496 784.697 537.6355 778.685 544.6422 776.311 547.4089 771.784 548.3911 768.301 548.9052 748.321 551.8549 720.446 548.4671 698.258 550.6917 690.274 551.4919 677.649 552.8812 671.414 558.3565 660.193 568.2079 660.89 598.6362 655.973 613.2887 651.667 626.1228 644.697 636.9704 636.214 647.3739 593.712 694.1381 513.223 705.6428 457.075 676.5219 424.083 659.4097 414.671 621.4356 413.97 587.4425 413.762 577.3641 413.659 565.6803 411.418 555.8759 408.467 543.783 393.615 538.3117 383.057 532.6953 343.1 511.4392 318.659 479.5626 312.2 434.3147 310.01 423.1151 310.801 411.6633 308.856 400.4766 306.211 385.267 273.097 389.8041 270.581 382.6673 274.417 377.3651 291.618 376.0348 298.461 373.7312 344.795 358.1345 369.462 321.7067 378.477 275.2846 380.154 266.6535 379.204 257.3813 382.441 250.1425 383.886 246.9088 388.995 245.3704 392.258 244.3922ZM452.759 288.0276C405.373 303.0903 391.965 357.4883 406.021 400.5636 413.227 422.1098 428.617 439.9561 448.868 450.2476 450.289 450.9637 451.739 451.6219 453.215 452.22 454.65 469.6332 453.343 484.3888 475.319 484.8339 495.456 485.241 515.541 485.1109 535.678 485.0789L649.915 485.0069C721.718 485.572 717.346 494.8463 717.382 423.048L717.394 351.6929 717.389 304.6606C717.398 296.8688 719.258 269.0561 710.804 266.0164 697.602 261.2682 673.918 262.9046 659.222 262.8966L588.936 262.9126C552.732 262.9366 504.347 261.5203 469.374 263.2707 455.97 267.7588 455.154 275.7837 452.759 288.0276ZM550.766 496.1926C565.228 505.1357 568.609 513.8138 583.301 500.8667L589.334 496.0916 550.766 496.1926ZM781.229 413.1026C784.56 410.548 785.07 410.193 787.05 406.5231 787.506 393.5009 751.05 397.0168 741.476 397.3899 736.046 400.8347 734.394 402.8462 737.297 409.2757 744.649 415.8913 770.517 413.3347 781.229 413.1026ZM740.742 347.3579C737.179 349.9525 736.922 350.8037 735.167 354.7186 735.882 367.8728 771.075 364.3079 781.167 363.6818 785.956 360.427 788.889 356.37 785.352 350.7017 778.026 344.5232 751.622 346.3886 741.509 347.2849L740.742 347.3579ZM743.854 276.2518C737.291 279.5276 733.59 285.437 736.336 292.0406 740.221 301.3818 769.976 298.1311 777.802 297.91 789.687 294.1841 789.852 281.108 779.644 277.8042 770.034 274.6934 754.204 276.0158 743.854 276.2518ZM619.08 545.4824C605.218 535.7201 595.413 536.1732 579.218 535.489 561.533 534.7418 543.317 535.0189 525.706 533.8256 551.602 548.5922 536.737 566.5195 529.023 586.4712 523.836 599.8845 525.917 619.3551 539.805 626.2578 548.807 631.441 567.881 634.5678 571.228 643.0928 570.287 645.6464 569.622 646.5967 566.812 647.5609 544.778 655.1197 513.129 646.8407 503.922 623.6492 497.033 606.299 505.222 590.8683 497.647 574.9025 491.482 563.1967 464.038 564.0009 471.817 547.1708 474.776 540.7693 485.56 535.9681 485.531 533.5926 482.831 533.4305 481.795 533.4385 479.098 533.6626 468.621 534.0727 455.742 534.3067 448.399 543.1439 435.013 559.2547 434.144 584.0537 434.619 603.8234 435.607 659.1697 483.536 673.2701 530.235 670.9805 562.753 669.3861 598.771 659.8599 621.322 634.8459 644.402 609.2467 646.266 568.9961 619.08 545.4824Z"></path>
<path transform="translate(0,0)" style="stroke-linecap: round; fill: rgb(0,0,0)" stroke-linecap="round" d="M477.534 278.483L621.767 278.615C643.14 278.624 664.686 278.8671 686.064 278.3929 692.441 278.706 698.281 281.5727 698.927 288.4453 699.692 296.5773 699.72 308.6142 689.03 309.8225 678.197 311.0468 666.292 310.4766 655.204 310.4246L581.573 310.2456C569.297 310.2356 556.903 309.8005 544.637 310.7757 524.837 312.4571 526.708 343.9107 543.072 348.5748 550.624 350.7273 564.944 349.8551 573.339 349.8621L653.633 349.8571C663.378 349.8841 673.709 348.7208 683.348 349.644 687.074 350.0011 691.026 350.9473 694.03 353.2819 696.848 355.4724 698.643 358.9783 699.008 362.5111 699.681 369.0347 700.325 383.9143 695.698 388.8294 688.527 396.4483 627.025 393.1135 613.915 393.0534 599.855 393.1345 546.559 390.0467 537.706 396.4323 533.743 399.2909 531.635 403.3899 530.77 408.1161 529.602 414.5066 530.686 422.1204 534.624 427.4087 536.914 430.4834 539.82 432.2779 543.534 433.1391 553.847 435.5306 565.912 434.4184 576.526 434.4044L649.052 434.1273C661.254 434.0733 674.894 432.864 686.939 434.6644 690.815 435.2436 694.305 436.4299 696.571 439.8377 700.238 445.351 699.698 457.3939 697.948 463.4903 697.246 465.9359 695.458 468.0815 693.217 469.2647 690.824 470.527 687.888 470.8851 685.213 470.9982 663.407 471.9274 481.159 472.0714 475.296 469.7949 472.875 468.8556 469.728 465.1377 469.015 462.6401 466.334 453.2609 468.137 407.0578 468.136 394.5548 468.133 360.3746 466.638 325.4172 468.29 291.312 468.417 288.6864 468.587 285.6647 469.995 283.3721 471.831 280.3824 474.297 279.4112 477.534 278.483Z"></path>
<path transform="translate(0,0)" style="stroke-linecap: round; fill: rgb(0,0,0)" stroke-linecap="round" d="M453.011 303.0988C453.835 306.0946 453.548 335.0715 453.544 339.7046L453.383 433.4411C443.584 428.883 439.562 425.7253 432.422 417.7113 428.113 412.151 425.196 407.4929 422.365 400.9663 413.454 380.2443 413.124 356.8327 421.449 335.8687 427.948 319.8739 437.29 309.8244 453.011 303.0988Z"></path>
<path transform="translate(0,0)" style="stroke-linecap: round; fill: rgb(0,0,0)" stroke-linecap="round" d="M828.035 243.2643C845.095 242.5161 867.435 243.0742 884.775 243.0682L992.965 243.0702 1328.145 243.0482 1485.315 243.0712C1505.665 243.0772 1545.425 240.7957 1563.155 244.8966 1565.475 245.4338 1567.205 245.5558 1568.425 247.8614 1570.275 251.3402 1570.785 256.0913 1571.055 259.9543 1571.935 272.7153 1572.235 372.1172 1569.795 377.9286 1568.075 382.0205 1564.955 383.4999 1561.125 385.0973 1545.045 385.8055 1525.655 385.3293 1509.335 385.3313L1415.115 385.3393 1126.625 385.3423 925.535 385.3293C907.355 385.3273 836.285 386.8717 821.915 382.7137 821.115 381.6645 820.435 380.6062 819.885 379.3989 818.285 375.8881 817.825 371.1269 817.605 367.315 816.785 353.4517 816.055 257.2596 819.515 249.8638 821.295 246.0609 824.345 244.6906 828.035 243.2643Z"></path>
<path transform="translate(0,0)" style="stroke-linecap: round; fill: rgb(0,0,0)" stroke-linecap="round" d="M218.999 400.2704C227.212 399.7403 284.871 403.8032 289.608 407.5631 295.904 412.5603 295.566 427.691 296.347 435.1007 301.062 479.8685 323.026 515.253 361.662 538.5666 371.164 544.2999 384.539 548.1869 392.753 555.2066 393.054 555.4646 393.338 555.7417 393.634 556.0047 395.298 557.4841 396.067 558.7574 396.663 560.9059 400.584 575.0423 401.021 591.3882 403.131 605.9777 405.366 621.4334 409.015 636.265 412.442 651.4677 413.39 655.6757 415.462 663.0124 413.428 666.7293 409.412 668.3487 393.213 659.8077 388.165 658.0692 359.48 648.1919 319.742 661.232 309.368 691.6053 302.03 713.0904 309.739 727.4249 319.288 746.3694 314.969 759.2905 306.854 765.6911 299.559 775.6034 282.66 798.5679 296.284 818.4077 303.389 841.2292 305.54 848.1388 286.046 853.14 281.375 860.3818 272.825 873.645 274.474 887.0982 263.912 899.6612 240.149 922.8068 170.663 920.7063 137.967 919.1859 115.388 918.1456 52.712 908.3833 52 877.4759 52.688 859.2815 58.564 838.7066 62.519 821.1694 84.542 723.5069 108.711 627.6339 166.365 544.0029 191.978 506.851 210.914 460.1738 211.378 414.5898 211.441 408.3443 214.244 404.0333 218.999 400.2704Z"></path>
<path transform="translate(0,0)" style="stroke-linecap: round; fill: rgb(0,0,0)" stroke-linecap="round" d="M823.995 397.3096C872.515 395.7952 927.065 396.9685 975.935 396.9695L1261.105 396.9655 1453.375 396.9095C1482.375 396.8945 1527.235 395.4822 1554.955 397.4406 1551.335 406.0197 1549.415 409.2515 1543.015 416.0051 1538.015 419.1308 1535.775 419.98 1529.995 420.0071 1475.735 420.2671 1421.305 420.1581 1367.055 420.1531L1050.345 420.1301 893.855 420.1381 853.825 420.1651C846.035 420.2431 814.785 423.948 816.375 407.397 816.685 404.1673 821.065 399.137 823.995 397.3096Z"></path>
<path transform="translate(0,0)" style="stroke-linecap: round; fill: rgb(0,0,0)" stroke-linecap="round" d="M417.766 185.1299C422.449 184.9418 454.462 189.722 461.6 190.5182 463.128 190.6882 470.302 194.171 472.16 195.0953 505.211 188.0126 524.737 215.4071 546.03 216.8005 564.782 218.0278 599.682 217.8717 619.647 218.0628L766.506 219.4761C776 219.5821 785.736 219.5061 795.208 219.8072 805.065 220.1213 824.365 217.5426 828.815 228.7813 826.555 236.6032 817.845 235.1829 811.315 235.0438 706.452 235.1219 601.589 234.5937 496.732 233.4605 470.494 233.1784 443.515 232.9813 417.68 232.8683 387.604 232.7373 394.356 213.6297 405.714 196.3566 410.5 189.0798 407.973 188.2916 417.766 185.1299Z"></path>
<path transform="translate(0,0)" style="stroke-linecap: round; fill: rgb(0,0,0)" stroke-linecap="round" d="M1500.005 180.4117C1500.625 180.3217 1501.255 180.2497 1501.885 180.2107 1512.285 179.5665 1538.105 180.0026 1545.545 187.3404 1551.585 193.2978 1553.335 209.1776 1553.505 217.1815 1553.605 221.9587 1552.845 227.34 1549.225 230.7868 1544.235 235.54 1478.005 233.4024 1466.665 233.3674 1453.625 233.4324 1421.945 234.1736 1410.425 232.8383L1409.715 231.693C1412.495 225.2835 1433.365 221.3315 1440.285 217.0655 1464.015 202.452 1469.915 183.6235 1500.005 180.4117Z"></path>
<path transform="translate(0,0)" style="stroke-linecap: round; fill: rgb(0,0,0)" stroke-linecap="round" d="M276.953 276.1941C300.797 274.9148 321.94 280.8052 340.643 295.9078 353.997 306.6914 354.897 315.2345 343.998 327.9565 343.146 328.2466 338.174 329.953 337.553 328.8147 331.853 318.3642 327.102 310.8464 316.225 305.044 311.072 302.3594 305.597 300.3429 299.933 299.0426 292.225 297.2802 269.334 297.4732 270.35 287.3848 270.908 281.8465 272.848 279.3949 276.953 276.1941Z"></path>
<path transform="translate(0,0)" style="stroke-linecap: round; fill: rgb(0,0,0)" stroke-linecap="round" d="M1584.305 275.9181C1589.245 277.4815 1592.125 278.4837 1594.525 283.739 1600.115 295.9969 1598.375 334.4291 1594.115 346.225 1591.455 348.5415 1589.275 349.8558 1585.845 349.8448 1582.895 346.545 1584.275 285.2173 1584.305 275.9181Z"></path>
</svg>