<?xml version="1.0" encoding="UTF-8" standalone="no"?>
<!-- Generated by SVGMaker - https://svgmaker.io -->
<!-- Prompt: image has been manually edited -->
<!-- Quality: medium -->
<!-- Type: crafted -->
<!-- Created: 2026-03-25T17:05:02.778Z -->
<svg xmlns="http://www.w3.org/2000/svg" xmlns:xlink="http://www.w3.org/1999/xlink" version="1.1" width="29" height="155" viewBox="110 4 29 155">
<desc>Created with SVGMaker Editor 3.0.0</desc>
<defs>
</defs>
<path transform="translate(0,0)" style="stroke-linecap: round; fill: rgb(29,29,29)" stroke-linecap="round" d="M124.1094 4.3731C124.7456 4.318 125.5311 4.3093 125.9326 4.8769 127.6891 7.3539 128.7471 11.3542 129.5428 14.2037 131.8008 22.2884 133.2356 30.5294 134.3458 38.8359 134.4878 39.8969 135.2095 40.8238 135.2646 41.9107 135.4095 44.0036 135.3139 46.1028 135.2936 48.1986L135.2661 58.0778C138.9082 64.2404 139.4458 66.5569 139.4458 73.6535L139.4429 81.7908 139.4473 108.8147 139.4531 133.7236C139.4531 136.533 139.6285 143.7638 139.2922 146.279 138.8386 146.998 137.9545 147.6518 137.2907 148.2085 137.0545 148.7216 137.327 149.5885 137.6516 150.0118 144.7822 159.2983 131.6761 159.739 124.9297 159.7708 121.4586 159.7636 113.2599 159.6679 110.9341 156.5396 108.9161 153.8244 112.3206 150.9048 112.7377 148.6216L112.765 148.4665C111.069 147.3619 110.852 146.9618 110.8541 144.8685 110.8588 139.9469 110.8674 135.0254 110.8649 130.1053L110.8671 97.9221 110.8593 77.9045C110.8574 74.4309 110.7984 70.6229 110.9288 67.1733 111.0403 64.2269 113.8456 60.6039 114.2247 57.2696 114.9011 52.8557 114.0972 47.8018 114.3289 43.4662 114.4285 41.604 115.4069 36.0433 115.6805 34.2938 116.5139 28.9652 120.1641 7.3182 124.1094 4.3731ZM116.0104 144.19C117.3568 144.2582 118.8539 144.3654 120.1902 144.3828L120.1374 141.8213 120.1317 93.99 120.1273 77.9888C120.1283 75.0817 120.0477 71.6495 120.2041 68.7749 119.0375 68.7701 117.0834 68.8195 115.9791 68.7215L115.9792 116.8692C115.9802 125.9404 115.9062 135.1297 116.0104 144.19ZM119.2258 38.2683L122.9427 38.302 123.8702 17.8827C123.9079 17.1281 124.2586 12.5227 124.0427 12.1666 121.576 20.4716 119.5335 29.392 119.0838 38.0658L119.2258 38.2683ZM119.3645 42.5496C119.1936 43.3511 119.199 43.7815 119.1817 44.6062 121.318 44.9106 129.1355 45.232 130.8819 44.5589 131.2138 44.1327 131.3283 44.0373 131.353 43.5076 131.1558 43.0271 130.937 42.7937 130.3718 42.7893 126.8848 42.7627 122.7919 42.4219 119.3645 42.5496ZM116.6047 65.0246C117.8642 65.0922 119.1249 65.1329 120.3862 65.1465L120.7844 65.103C121.0629 64.7332 121.2165 63.1599 121.3194 62.5578 122.176 57.5566 122.576 52.9266 122.534 47.8324 121.5499 47.7725 120.0151 47.7383 119.089 47.6354 119.329 55.0316 119.2985 58.2136 116.6047 65.0246ZM129.6297 151.4064C130.1587 150.7903 130.4225 150.0568 129.7355 149.4755 127.8645 149.2971 125.3253 149.5334 123.3934 149.5407 121.0122 149.5494 118.6751 149.3754 116.321 149.3421L116.1059 151.3325C119.2726 152.0544 126.4746 152.2109 129.6297 151.4064ZM115.7382 154.0114C115.2024 154.2535 115.2991 154.1201 115.0076 154.5463 114.9433 156.0525 117.1934 156.2105 118.3536 156.3134 121.6006 156.6005 125.5224 156.7875 128.7312 156.1511 129.3747 155.809 130.066 155.2871 129.6819 154.4825 129.0442 154.1129 120.2497 154.6753 118.8091 154.2375 118.6824 154.1984 115.9689 154.0172 115.7382 154.0114Z"></path>
</svg>