<?xml version="1.0" encoding="UTF-8" standalone="no"?>
<!-- Generated by SVGMaker - https://svgmaker.io -->
<!-- Prompt: image has been manually edited -->
<!-- Quality: medium -->
<!-- Type: crafted -->
<!-- Created: 2026-03-25T17:02:33.458Z -->
<svg xmlns="http://www.w3.org/2000/svg" xmlns:xlink="http://www.w3.org/1999/xlink" version="1.1" width="71" height="183" viewBox="124 15 71 183">
<desc>Created with SVGMaker Editor 3.0.0</desc>
<defs>
</defs>
<path transform="translate(0,0)" style="stroke-linecap: round; fill: rgb(29,29,29)" stroke-linecap="round" d="M158.3921 15.3679C166.1949 15.2311 189.4112 14.9345 190.2352 26.5361 190.5659 31.1823 190.3765 37.7187 190.3765 42.5297L190.3739 73.9216 190.3739 176.4289C208.4941 196.8447 174.2083 197.5942 161.8135 198.117 150.672 198.3944 111.6449 197.9036 128.8504 177.5332L128.8504 71.783 128.8451 40.4681C128.8451 35.7427 128.7811 30.6894 128.9491 25.9512 129.0024 24.4457 130.0158 22.574 131.0878 21.4849 136.8639 15.6165 150.6507 15.6059 158.3921 15.3679ZM137.3679 132.3081C139.9972 132.9782 142.7333 132.9224 145.224 133.4969L145.168 71.1996C145.1786 60.6898 145.0373 49.8388 145.208 39.3535 142.7973 38.7285 139.7119 38.02 137.3679 37.2977L137.3679 132.3081ZM134.1492 185.5698C133.0185 189.2054 136.1812 190.5684 139.1492 191.3073 147.9547 193.4972 168.4696 194.8362 176.6164 191.2753 177.483 190.5578 177.5177 190.3977 177.8137 189.3014 177.6644 188.3759 177.883 188.7306 177.1684 188.1812 175.115 187.9384 169.0296 188.7973 166.6509 188.9333 156.8215 189.4908 143.3226 189.4428 134.1492 185.5698ZM145.872 154.642C142.9119 153.9779 140.2746 153.2683 137.3519 152.4468 137.3572 160.9316 137.6052 170.9395 137.2825 179.3016 139.8372 180.0271 142.8586 180.7766 145.5013 181.0274L145.8266 180.7873C145.7306 173.5161 145.4 161.6598 145.872 154.642ZM137.1145 142.9297C137.2052 143.9753 137.2159 145.4317 137.6985 146.2852 139.6986 147.6242 142.4266 147.9283 144.7973 148.3498 155.3441 150.2143 169.1309 150.1476 179.6297 148.0617 180.8804 147.8243 182.1151 147.4909 183.3178 147.0641 184.3311 145.8558 184.5525 144.7595 183.4298 143.6099 181.8324 142.9671 173.3683 144.1754 171.115 144.3701 159.9388 145.3357 148.1707 144.8689 137.1145 142.9297ZM148.6347 29.9844C155.0668 30.4136 176.387 30.5486 181.8138 27.6289 185.1231 22.9747 174.8483 24.2472 172.9523 24.426 166.3736 24.9319 159.7762 25.1112 153.1814 24.9632 148.872 24.8647 144.3973 24.5308 140.1012 24.6145 139.1732 24.6327 138.7386 24.956 138.0986 25.5902 136.4692 29.8351 146.0827 29.8751 148.6347 29.9844Z"></path>
</svg>