<?xml version="1.0" encoding="UTF-8" standalone="no"?>
<!-- Generated by SVGMaker - https://svgmaker.io -->
<!-- Prompt: Keep this style but draw an MP5 -->
<!-- Quality: medium -->
<!-- Type: edit -->
<!-- Created: 2026-03-25T17:58:57.442Z -->
<svg xmlns="http://www.w3.org/2000/svg" xmlns:xlink="http://www.w3.org/1999/xlink" version="1.1" width="1560" height="721" viewBox="252 320 1560 721">
<desc>Created with SVGMaker Editor 3.0.0</desc>
<defs>
</defs>
<path transform="translate(0,0)" style="fill: rgb(6,6,6)" stroke-linecap="round" d="M765.077 320.0875C776.936 319.4574 790.362 325.3328 801.975 327.7043 827.718 332.9616 816.351 353.6916 811.042 371.0597 824.83 382.4245 822.3 396.6979 814.493 411.1454 835.66 412.1256 862.361 411.3274 884.043 411.3114L1013.94 411.2844 1395.67 411.8985 1532.2 412.0176C1545.08 412.0316 1582.34 410.9743 1593.11 412.6527 1597.74 415.9305 1595.98 416.3126 1599.69 421.7139 1616.97 431.2152 1647.71 417.4709 1624.35 392.5779 1623.15 370.5696 1618.62 317.1088 1654 324.0215 1677.9 328.6906 1674.43 374.1265 1674.26 392.3949 1674.22 397.253 1661.44 403.0984 1668.91 412.5037 1670.04 412.7848 1671.16 413.0838 1672.28 413.4009 1674.51 414.0391 1677.03 415.0383 1677.93 417.2758 1680.93 424.7586 1684.31 448.4583 1682.06 455.406 1679.45 458.3647 1676.35 458.7748 1672.44 459.9301 1671.5 472.125 1670.27 485.4572 1671.21 497.6071 1671.53 505.1699 1688.93 504.9139 1693.27 503.1314 1700.13 500.3098 1695.7 479.6838 1711.99 488.5179 1713.37 491.2206 1713.23 494.5824 1713.35 497.5621 1713.73 506.9854 1715.15 561.4114 1710.75 565.0803 1709.11 566.4516 1706.58 566.7397 1704.6 566.1155 1698.92 564.3281 1699.38 557.9136 1697.33 553.6556 1695.96 550.8089 1693.04 548.8964 1690.1 547.9862 1685.8 546.6509 1680.5 546.9249 1676.52 549.1255 1670.91 552.2202 1671.43 557.1734 1669.96 562.5837 1664.33 568.5151 1642.88 563.0198 1632.25 566.3766 1616.44 569.6514 1624.36 589.019 1619.88 598.6343 1617.82 603.0634 1585.54 601.5681 1580.77 601.553L1514.28 601.346C1461.45 601.6191 1408.63 603.1284 1355.87 605.8751 1339.47 606.6553 1322.33 607.7095 1305.84 608.3667 1277.17 609.507 1300.09 589.2481 1278.33 586.6025 1276.05 586.3244 1269.37 586.0133 1267.26 586.2974 1260.1 587.2576 1241.02 583.7488 1237.43 590.8425 1232.52 600.5428 1229.18 614.9003 1229.08 625.8639 1229.75 633.4737 1240.89 651.7231 1236.21 659.497 1231.15 662.3426 1140.55 678.9556 1133.27 679.0256 1123.96 674.4305 1128.46 652.2512 1125.76 642.824 1122.79 632.4755 1124.39 606.6963 1117.01 599.0264 1099.68 592.945 1108.09 634.1979 1109.36 641.7487 1110.76 650.0607 1119.5 667.4469 1117.13 674.6856 1110.35 677.2512 1053.79 676.1349 1042.8 676.1249 1004.22 676.227 965.637 676.0699 927.058 675.6558 890.462 675.1367 853.492 675.2197 816.884 674.5366 810.177 674.4115 801.41 673.3583 795.499 670.2685 769.423 657.9036 779.466 631.4112 764.882 611.9755 755.757 599.8146 739.165 600.3578 728.533 590.1063 724.268 585.9943 685.988 593.2871 682.233 599.1115L682.785 601.49C691.703 610.1651 710.918 604.8258 722.694 607.5695 765.948 617.6479 755.783 650.0847 769.948 675.5308 781.731 696.6969 835.318 689.1691 859.306 693.176 867.149 700.3448 844.287 730.1729 847.597 740.8905 850.074 748.9124 872.069 760.2711 879.476 764.6962 910.453 787.2616 950.919 777.7653 986.906 780.2309 991.342 780.535 1000.67 778.7196 1004.43 776.401 1024.59 763.979 1024.53 702.6863 1036.64 689.9483 1041.68 687.2626 1054.37 687.0506 1057.75 692.5529 1058.06 697.9852 1042.94 751.9081 1040.3 761.6555 1036.18 776.8031 1030.48 790.5154 1016.11 798.5293 1011.31 801.205 1006.4 802.5913 1000.97 803.3185 982.011 805.8541 901.785 805.9491 885.336 800.0897 868.71 794.1673 854.606 779.3957 837.738 774.9357 835.56 774.3605 832.201 773.8154 830.303 775.1797 827.05 777.5203 824.174 782.7675 822.247 786.2234 812.442 803.8006 754.538 920.6266 753.272 932.8365 752.689 938.4609 756.836 942.915 759.992 947.073 756.043 964.9983 745.548 975.6708 726.442 967.997 690.48 953.5535 655.105 937.5017 619.627 921.8999 609.897 917.6219 595.776 912.1846 587.884 905.606 584.831 897.417 609.482 861.5354 615.104 852.3502 636.262 817.6179 657.629 783.0146 679.203 748.5403 690.599 730.585 703.513 711.9805 714.034 693.5481 717.492 687.4877 720.809 675.1497 720.357 668.2731 718.301 637.0056 699.81 632.2914 676.35 618.5311 674.082 617.2018 667.116 610.5492 664.792 608.3137 653.419 607.8105 620.459 609.1679 612.167 606.6423 607.353 601.6791 615.254 592.5969 594.026 575.9909 596.218 591.3626 595.251 605.0429 581.546 614.9323 574.699 619.7984 566.187 621.7159 557.915 620.2555 539.58 617.1568 528.452 601.5781 532.756 583.7088 534.109 578.0914 536.939 572.8502 537.86 567.6029 536.49 565.2573 535.889 564.9643 533.39 564.015 524.125 560.4972 481.888 559.764 472.863 563.5649 459.56 569.1673 447.146 584.0849 436.784 594.0663 416.866 613.2529 315.399 717.6279 300.66 723.8064 289.735 728.3865 271.137 728.2094 260.291 723.5523 256.99 722.135 253.86 719.8904 252.648 716.3736 251.656 713.4929 252.117 709.508 252.423 706.5182 253.532 695.6476 255.858 684.808 257.309 673.9634 259.638 655.8531 261.357 637.6707 262.463 619.4443 264.616 582.1724 264.816 544.8134 263.064 507.5195 262.454 493.8622 255.9 445.8487 260.366 437.6837 267.925 431.1342 331.81 432.7025 343.716 436.9756 348.931 438.847 359.155 449.8406 364.955 453.8336 385.094 455.501 503.791 456.1662 517.939 451.8171 528.236 448.6514 537.832 441.3786 546.927 435.7133 563.385 425.4628 615.005 390.8965 629.534 387.1916 640.01 384.521 653.977 385.5632 664.851 385.8543 681.863 386.3094 678.905 391.1286 689.406 401.13 691.202 402.8404 693.451 404.1457 696.01 403.9586 712.159 402.7844 703.877 362.5547 714.723 350.2097 717.698 346.8229 721.687 345.2706 726.141 345.2145 738.294 345.0615 736.521 355.392 743.794 361.4674 745.929 363.2509 746.859 363.3229 749.56 363.1558 756.633 358.0246 755.932 331.0962 765.077 320.0875ZM1165.99 533.4877C1171.01 529.6138 1173.57 526.6581 1171.15 520.5086 1166.94 516.3806 1162.6 515.7495 1156.85 515.7915L839.706 516.1035C794.121 516.0965 746.083 515.2873 700.682 516.2036 696.671 519.9155 692.991 524.6006 697.417 529.7538 699.69 532.4015 706.548 534.0789 709.973 534.0579 733.796 533.9118 757.691 533.9008 781.512 533.9018L936.126 533.9328 1086.56 533.9768C1108.92 533.9808 1142.59 535.0231 1164.37 533.6318 1164.91 533.5927 1165.45 533.5447 1165.99 533.4877ZM1599.19 469.3983C1604.61 465.9605 1608.91 460.4332 1604.82 453.4555 1603.07 450.4758 1597.97 449.7466 1594.91 449.5636 1579.61 448.9314 1564.17 449.2175 1548.87 449.2485L1465.07 449.3485C1395.56 449.3355 1320.72 447.8852 1251.48 449.3765 1236.44 459.1649 1245.8 469.7024 1260.33 469.8875 1280.57 470.1445 1300.82 469.7144 1321.06 469.7064L1449.29 469.7994 1548.57 469.8705C1560.2 469.8795 1588.3 470.5906 1599.19 469.3983ZM1010.5 468.7982C1015.55 464.8693 1019.38 458.9488 1014.45 452.5363 1012.71 450.2818 1008.94 449.3315 1006.26 449.1835 992.35 448.7014 977.976 448.8504 964.07 448.8364L881.005 448.8094 766.471 448.8094C746.57 448.8154 722.2 448.2363 702.648 449.1315L701.457 449.1885C692.209 457.3024 693.977 468.4621 707.249 468.9352 723.546 469.5174 739.824 469.3283 756.129 469.3323L844.814 469.3473 951.051 469.3383C966.538 469.3343 996.277 470.8597 1010.5 468.7982ZM1177.36 482.6765C1184.27 482.4155 1188.01 482.7996 1193.6 477.6023 1204.89 467.3719 1197.26 451.474 1183.35 449.8056 1176.22 448.9504 1168.11 449.0745 1160.91 449.2035 1126.38 449.8256 1091.41 448.6154 1056.93 449.4065 1051.69 451.0039 1047.16 453.0804 1044.33 458.1506 1042.15 462.0736 1041.28 466.6937 1042.71 471.0197 1044.06 475.0797 1047.22 478.6826 1051.17 480.391 1062.05 485.1051 1157.1 482.5835 1177.36 482.6765ZM316.791 670.4286C333.861 655.0819 333.929 640.1743 335.011 618.5461 336.78 583.2096 335.48 547.5571 335.902 512.1806 336.035 501.0169 336.118 489.6322 335.003 478.5485 333.787 468.5171 329.176 467.6099 320.536 468.143 316.038 472.228 315.088 473.4713 314.974 479.6188 313.883 538.0028 318.307 596.6769 306.652 654.3537 305.64 659.3619 304.092 667.0258 306.275 671.6929 310.233 674.3535 312.872 672.7921 316.791 670.4286ZM666.082 552.0662C625.057 553.2285 626.896 557.9906 627.812 515.0993 627.947 508.8128 626.722 498.5073 630.044 493.183 641.121 485.5642 673.119 499.2695 677.032 482.4875 673.345 468.4331 640.421 473.4623 627.386 473.4453 621.752 474.4385 612.697 477.0942 609.988 482.7625 604.432 494.3903 602.617 554.7308 613.524 562.0896 621.556 567.5109 658.613 566.0525 669.657 565.1623 672.092 565.1063 675.348 561.8295 676.596 559.9621 676.966 556.1522 677.31 557.6585 675.19 554.3157 671.893 552.1462 670.108 552.0612 666.082 552.0662ZM1542.76 500.8429C1540.86 505.438 1540.56 510.9333 1540.63 515.8265 1540.82 528.8536 1539.15 542.6369 1541.49 555.431 1541.92 557.7555 1546.84 558.8558 1548.61 559.2989 1553.7 552.2002 1553.59 508.9058 1549.71 502.4473 1546.42 500.3858 1547.19 501.0479 1542.76 500.8429ZM1369.93 498.7934C1366.97 505.319 1367.21 546.1488 1369.09 555.312 1369.38 556.7193 1370.63 557.1354 1372 558.0326L1377.11 558.1416C1379.5 550.6768 1380.23 507.5365 1377.08 500.7669 1374.02 498.3173 1374.31 499.0425 1369.93 498.7934ZM1445.58 558.9518C1449 554.8128 1449.33 505.301 1446.32 500.0267 1443.76 498.3193 1442.85 498.6003 1439.61 498.5463 1435.16 507.8276 1437.97 542.982 1438.13 554.5508 1438.17 557.3584 1443.31 558.6187 1445.58 558.9518ZM1411.25 558.5597C1415.29 550.4748 1412.75 513.4819 1412.82 502.6603 1412.84 498.7754 1407.11 498.6564 1404.43 498.6073 1401.98 505.0099 1402.88 518.3471 1402.71 525.6678 1402.51 534.492 1402.58 543.7682 1403.07 552.5653 1403.39 558.2146 1406.27 558.3947 1411.25 558.5597ZM1342.83 557.8906C1345.66 550.2167 1347.22 504.3747 1342.38 499.4495 1339.62 498.7284 1339.29 498.6884 1336.44 498.5143 1332.72 507.2384 1334.9 544.0873 1335.62 555.1979 1335.82 558.2767 1340.57 558.0526 1342.83 557.8906ZM562.495 601.9561C568.75 601.309 573.362 595.8127 572.917 589.5392 572.472 583.2647 567.129 578.4765 560.846 578.7186 556.597 578.8826 552.774 581.3492 550.873 585.1541 548.972 588.958 549.294 593.4971 551.714 596.995 554.133 600.4918 558.265 602.3943 562.495 601.9561ZM795.53 349.3305C792.413 344.0503 782.014 341.6607 776.296 340.9095 776.274 342.814 775.841 344.3213 776.882 345.4606 779.886 348.7474 791.002 348.9534 795.53 349.3305ZM1582.28 503.5905C1571.83 518.5181 1570.53 552.1292 1598.62 545.4986 1613.42 531.8223 1594.75 508.6828 1582.28 503.5905ZM867.315 606.2292C854.108 587.8017 851.424 583.1016 827.984 584.3189 822.141 587.7147 818.277 590.0913 820.116 597.317 824.445 603.1204 832.094 604.9649 836.913 610.0551 842.277 615.7214 845.87 624.6806 851.33 630.1579 858.164 637.0146 874.87 636.5685 883.864 635.2221 901.577 626.16 885.395 611.2434 873.078 607.7265 871.169 607.1844 869.247 606.6853 867.315 606.2292ZM1476.58 497.6061C1472.82 500.5268 1472.09 501.9211 1471.77 506.8893 1471.17 516.2006 1469.67 549.9277 1473.32 556.8083 1474.75 557.8866 1475.93 558.8428 1477.51 559.718 1481.11 556.8753 1482.13 556.0241 1482.45 551.385 1483.31 538.675 1483.23 525.7289 1483.02 512.9848 1482.91 506.4222 1483.11 500.3718 1476.58 497.6061ZM1508.86 498.4853C1502.83 508.8738 1505.35 540.5734 1506.5 552.9564 1506.83 556.5753 1509.67 558.2907 1512.69 559.583 1513.48 558.7858 1514.5 557.7545 1515.76 556.4882 1518.65 545.5496 1517.05 529.0336 1517.55 517.7439 1517.81 511.6615 1517.24 505.0929 1515.28 501.0959 1512.2 498.3903 1513.61 499.2165 1508.86 498.4853ZM635.374 419.1583C614.713 440.3314 662.715 435.9563 672.091 435.0381 695.412 414.7852 644.186 418.6912 635.374 419.1583ZM1148.31 600.3698C1124.9 622.7861 1184.46 616.6927 1192.21 615.8005 1197.16 612.7247 1200.53 610.0631 1197.78 604.3867 1190.02 597.9792 1158.94 599.6986 1148.31 600.3698ZM1041.97 579.9019C1035.66 585.7112 1034.06 594.0142 1034.56 602.3412 1035.33 615.3854 1029.29 637.0846 1047.65 637.4487 1054.24 632.6105 1054.83 620.9447 1054.41 613.3289 1053.78 602.0342 1057.9 580.326 1041.97 579.9019Z"></path>
<path transform="translate(0,0)" style="fill: rgb(6,6,6)" stroke-linecap="round" d="M1234.44 676.5849C1235.99 676.2289 1236.54 676.5269 1238.18 676.808 1242.7 680.0678 1246.11 698.5132 1247.93 705.2358 1252.06 720.6965 1256.67 736.0262 1261.74 751.2028 1280.01 805.4459 1302.82 858.0545 1329.92 908.4676 1336.04 919.7503 1370.64 976.1998 1371.49 982.6234 1371.82 985.161 1370.02 987.1034 1368.41 988.8379 1362.61 995.0904 1311.02 1033.7016 1302.84 1038.5328 1301.01 1039.613 1299.15 1040.4032 1296.98 1040.3632 1293.61 1040.3032 1291.61 1037.9126 1289.42 1035.6721 1230.39 962.3775 1182.32 845.8676 1157.32 755.2768 1154.85 746.3017 1141.15 701.0138 1145.08 695.4065 1148.6 690.3852 1223.24 678.1793 1234.44 676.5849ZM1335.42 991.1124C1336.12 989.596 1338.13 985.5411 1337.42 984.1307 1330.43 970.2454 1320.9 957.5143 1313.2 943.9431 1300.53 921.3847 1288.75 898.3331 1277.9 874.8425 1254.95 824.5094 1234.98 772.791 1219.56 719.7303 1217.8 713.6758 1214.6 701.6419 1210.82 696.8348 1207.68 695.5315 1205.73 695.9426 1202.32 696.1226 1199.95 703.8475 1207.32 725.1446 1209.89 733.8747 1229.34 801.951 1255.71 867.8598 1288.57 930.5699 1298.76 949.8145 1312.01 972.666 1325.54 989.9111 1328.6 993.8121 1331.4 992.2687 1335.42 991.1124Z"></path>
<path transform="translate(0,0)" style="fill: rgb(6,6,6)" stroke-linecap="round" d="M1752.41 486.634C1763.15 486.647 1798.94 485.2266 1806.74 488.6134 1812.79 496.0982 1812.8 554.8963 1808.72 562.5452 1803.56 566.6112 1792.59 565.3509 1785.75 565.2258 1769.57 565.1058 1746.9 566.3361 1731.2 564.6687 1724.23 563.9285 1725.87 495.8242 1728.38 489.6667 1733.83 485.2456 1745.14 486.5459 1752.41 486.634Z"></path>
<path transform="translate(0,0)" style="fill: rgb(6,6,6)" stroke-linecap="round" d="M880.982 692.1962C891.466 691.9721 932.037 690.7508 938.894 694.0216 941.738 699.3269 908.475 740.8588 931.429 763.9114 934.645 766.367 935.97 766.457 936.868 769.7578L935.221 771.3101C927.381 772.8995 914.727 768.7555 906.586 764.1054 886.878 752.8497 890.103 722.3374 880.239 703.6289 877.96 699.3049 878.957 695.9361 880.982 692.1962Z"></path>
<path transform="translate(0,0)" style="fill: rgb(6,6,6)" stroke-linecap="round" d="M1091.93 691.3018C1096.61 691.0218 1103.6 689.6274 1105.6 694.4866 1105.02 702.4895 1098.17 719.9127 1093.73 726.7424 1092.71 727.0454 1091.69 727.3295 1090.67 727.5956 1086.93 728.5548 1085.36 728.5598 1082.3 726.7223 1081.94 721.7061 1088.94 695.1418 1091.93 691.3018Z"></path>
</svg>